<?xml version="1.0" encoding="UTF-8" standalone="no"?>
<svg viewBox="0 0 723.48126 506.17154" xmlns="http://www.w3.org/2000/svg" xmlns:xlink="http://www.w3.org/1999/xlink">
<defs>
<clipPath id="clipPath30603">
<path d="m172.54666,119.65383c0,0 20.11621,15.239 54.07792,11.76129 34.14803-3.51943 40.78441-10.05479 40.78441-10.05479 28.52258-31.58159-136.19804-25.14129-94.86233-1.7065z" fill-rule="evenodd"/>
</clipPath>
<clipPath id="clipPath29604">
<path d="m214.7035,131.11718 6.077.24534c-2.53429,1.7204 4.83381-35.34914 16.01425-42.7394 4.8322-3.19409-1.20324-12.31505-3.82058-10.93334 0,0-6.4702,4.67108-7.23014,8.09398s-6.71906,17.6034-8.13123,27.84572-2.56255,14.88784-2.9093,17.4877z" fill-rule="evenodd"/>
</clipPath>
<clipPath id="clipPath14294">
<path d="m100.84271,272.89235c-21.48055,104.60248-64.95959,118.69781-105.8239,116.99268-7.88444-.32898-7.53147,1.2321-16.44968.10179-7.77566-.98551-21.32657-6.02005-29.17224-5.43819-46.97446,3.48375-91.99218-58.48044-91.99218-117.48015 0-66.54593 44.03337-110.22627 113.13273-111.82065 95.30491-2.18227 130.30527,51.09859 130.30527,117.64452z"/>
</clipPath>
<clipPath id="clipPath14290">
<path d="m97.16192,268.95702c-21.01772,104.60248-63.55996,118.69781-103.54379,116.99268-7.71456-.32898-7.3692,1.2321-16.09525.10179-7.60812-.98551-20.86706-6.02005-28.54369-5.43819-45.96234,3.48375-90.0101-58.48044-90.0101-117.48015 0-66.54593 43.08462-110.22627 110.69515-111.82065 93.25145-2.18227 127.49768,51.09859 127.49768,117.64452z"/>
</clipPath>
<clipPath id="clipPath14286">
<path d="m95.24176,274.24608c-20.49425,98.94105-61.9769,112.2735-100.96488,110.66066-7.52242-.31118-7.18565,1.16541-15.69438.0963-7.41863-.93217-20.34734-5.69423-27.83277-5.14386-44.81758,3.2952-87.76826-55.31529-87.76826-111.12174 0-62.94425 42.01153-104.26047 107.93812-105.76856 90.92888-2.06415 124.32217,48.33297 124.32217,111.27722z"/>
</clipPath>
<filter id="filter3417">
<feGaussianBlur stdDeviation=".9573"/>
</filter>
<filter id="filter30589">
<feGaussianBlur stdDeviation=".5768"/>
</filter>
<filter id="filter24623">
<feGaussianBlur stdDeviation=".2146"/>
</filter>
<filter id="filter13287">
<feGaussianBlur stdDeviation="5.8072"/>
</filter>
<filter id="filter12154">
<feGaussianBlur stdDeviation="2.9395"/>
</filter>
<filter height="2.1931" id="filter38751" width="1.14818" x="-.07409" y="-.59655">
<feGaussianBlur stdDeviation="9.8809"/>
</filter>
<filter height="1.87753" id="filter35726" width="1.12506" x="-.06253" y="-.43877">
<feGaussianBlur stdDeviation="5.1545"/>
</filter>
<filter height="1.2674" id="filter18604" width="1.05068" x="-.02534" y="-.1337">
<feGaussianBlur stdDeviation=".9919"/>
</filter>
<filter height="1.23764" id="filter7541" width="1.18445" x="-.09222" y="-.11882">
<feGaussianBlur stdDeviation="10.9876"/>
</filter>
<linearGradient gradientTransform="matrix(.78051,-1.25021,-1.25021,-.78051,1030.83,751.925)" gradientUnits="userSpaceOnUse" id="linearGradient3493" x1="231.56615" x2="228.08559" y1="419.96646" y2="410.60843">
<stop offset="0" stop-color="#8a0"/>
<stop offset="1" stop-color="#8a0" stop-opacity="0"/>
</linearGradient>
<linearGradient gradientUnits="userSpaceOnUse" id="linearGradient3491" x1="66.93785" x2="66.08534" y1="120.98807" y2="76.03907">
<stop offset="0" stop-color="#450"/>
<stop offset="1" stop-color="#450" stop-opacity="0"/>
</linearGradient>
<linearGradient gradientUnits="userSpaceOnUse" id="linearGradient3489" x1="128.89179" x2="144.48754" y1="61.85281" y2="59.79931">
<stop offset="0" stop-color="#668000"/>
<stop offset="1" stop-color="#668000" stop-opacity="0"/>
</linearGradient>
<linearGradient gradientTransform="matrix(2.27687,0,0,1.77361,-292.901,-639.711)" gradientUnits="userSpaceOnUse" id="linearGradient3487" x1="198.4978" x2="206.76935" y1="406.63519" y2="445.48529">
<stop offset="0" stop-color="#28170b"/>
<stop offset="1" stop-color="#28170b" stop-opacity="0"/>
</linearGradient>
<linearGradient gradientTransform="matrix(2.27687,0,0,1.77361,-292.901,-639.711)" gradientUnits="userSpaceOnUse" id="linearGradient3485" x1="292.10797" x2="291.94354" y1="476.45422" y2="459.20956">
<stop offset="0" stop-color="#502d16"/>
<stop offset="1" stop-color="#502d16" stop-opacity="0"/>
</linearGradient>
<linearGradient gradientUnits="userSpaceOnUse" id="linearGradient37702" x1="-134.76347" x2="-66.7581" y1="343.27988" y2="311.95261">
<stop offset="0" stop-color="#f8f8f8"/>
<stop offset="1" stop-color="#f8f8f8" stop-opacity="0"/>
</linearGradient>
<linearGradient gradientUnits="userSpaceOnUse" id="linearGradient30599" x1="210.89064" x2="243.81515" y1="146.45266" y2="108.47597">
<stop offset="0"/>
<stop offset="1" stop-opacity="0"/>
</linearGradient>
<linearGradient gradientUnits="userSpaceOnUse" id="linearGradient14306" x1="-24.92376" x2="-28.8591" y1="174.78334" y2="272.92316">
<stop offset="0" stop-color="#7aa827"/>
<stop offset="1" stop-color="#a3a827" stop-opacity="0"/>
</linearGradient>
<linearGradient id="linearGradient13303">
<stop offset="0" stop-color="#fff"/>
<stop offset="1" stop-color="#fff" stop-opacity="0"/>
</linearGradient>
<linearGradient gradientTransform="matrix(.80657,-.59114,.59114,.80657,-462.1004,226.95713)" gradientUnits="userSpaceOnUse" id="linearGradient4303-6" x1="529.11609" x2="558.95526" y1="537.73499" y2="254.73242">
<stop offset="0" stop-color="#363636"/>
<stop offset="1" stop-color="#757575" stop-opacity="0"/>
</linearGradient>
<linearGradient id="linearGradient4098-6-1">
<stop offset="0" stop-color="#ffb142"/>
<stop offset="1" stop-color="#c87600"/>
</linearGradient>
<linearGradient gradientUnits="userSpaceOnUse" id="linearGradient29608" x1="220.90099" x2="225.37206" xlink:href="#linearGradient13303" y1="99.83392" y2="101.95313"/>
<linearGradient gradientUnits="userSpaceOnUse" id="linearGradient14308" x1="-47.22397" x2="-51.15931" xlink:href="#linearGradient13303" y1="206.26599" y2="295.46683"/>
<linearGradient gradientUnits="userSpaceOnUse" id="linearGradient4333-0" x1="318.0423" x2="318.04225" xlink:href="#linearGradient4098-6-1" y1="1026.20017" y2="1040.28027"/>
<linearGradient gradientUnits="userSpaceOnUse" id="linearGradient4331-4" x1="318.04228" x2="318.04223" xlink:href="#linearGradient4098-6-1" y1="1026.20017" y2="1040.28027"/>
<linearGradient gradientUnits="userSpaceOnUse" id="linearGradient4325-5" x1="318.04229" x2="318.04224" xlink:href="#linearGradient4098-6-1" y1="1026.20017" y2="1040.28027"/>
<linearGradient gradientUnits="userSpaceOnUse" id="linearGradient4323-7" x1="318.04229" x2="318.04223" xlink:href="#linearGradient4098-6-1" y1="1026.20017" y2="1040.28027"/>
<pattern height="24.73528" id="pattern30611" patternTransform="translate(160.89182,-165.99763)" patternUnits="userSpaceOnUse" width="39.50123">
<path d="m1.72435,5.4391h32.88199v19.29618h-32.88199z" fill="url(#pattern30614)"/>
<path d="m0,0h39.50123v24.73528h-39.50123z" fill="none"/>
</pattern>
<pattern height="46.65917" id="pattern26663" patternTransform="translate(163.81449,-152.8456)" patternUnits="userSpaceOnUse" width="55.73278">
<path d="m-278.71875-209.70604a2.88614,7.83381 0 1,1 -5.77228,0 2.88614,7.83381 0 1,1 5.77228,0z" fill="#d7eb90" fill-rule="evenodd" transform="matrix(.74092,0,0,.45974,262.24155,100.96523)"/>
<path d="m-278.71875-209.70604a2.88614,7.83381 0 1,1 -5.77228,0 2.88614,7.83381 0 1,1 5.77228,0z" fill="#d7eb90" fill-rule="evenodd" transform="matrix(.74092,0,0,.45974,253.16436,126.80313)"/>
<path d="m-278.71875-209.70604a2.88614,7.83381 0 1,1 -5.77228,0 2.88614,7.83381 0 1,1 5.77228,0z" fill="#d7eb90" fill-rule="evenodd" transform="matrix(.74092,0,0,.45974,241.63603,111.21553)"/>
<path d="m-278.71875-209.70604a2.88614,7.83381 0 1,1 -5.77228,0 2.88614,7.83381 0 1,1 5.77228,0z" fill="#d7eb90" fill-rule="evenodd" transform="matrix(.74092,0,0,.45974,219.22886,100.01194)"/>
<path d="m-278.71875-209.70604a2.88614,7.83381 0 1,1 -5.77228,0 2.88614,7.83381 0 1,1 5.77228,0z" fill="#d7eb90" fill-rule="evenodd" transform="matrix(.74092,0,0,.45974,236.44017,139.46806)"/>
<path d="m-278.71875-209.70604a2.88614,7.83381 0 1,1 -5.77228,0 2.88614,7.83381 0 1,1 5.77228,0z" fill="#d7eb90" fill-rule="evenodd" transform="matrix(.74092,0,0,.45974,210.78558,125.50416)"/>
<path d="m-278.71875-209.70604a2.88614,7.83381 0 1,1 -5.77228,0 2.88614,7.83381 0 1,1 5.77228,0z" fill="#d7eb90" fill-rule="evenodd" transform="matrix(.74092,0,0,.45974,210.78558,125.50416)"/>
</pattern>
<pattern id="pattern30609" patternTransform="matrix(.58999,0,0,.41356,162.61617,-160.55853)" xlink:href="#pattern26663"/>
<pattern id="pattern30614" patternTransform="matrix(.58999,0,0,.41356,1.72435,5.4391)" xlink:href="#pattern30609"/>
<radialGradient cx="-81.08172" cy="44.94246" gradientTransform="matrix(-.0179,-1.17689,2.37216,-.03448,134.98924,46.13461)" gradientUnits="userSpaceOnUse" id="radialGradient15312" r="44.55597">
<stop offset="0" stop-color="#1d3300"/>
<stop offset=".4965" stop-color="#68a02c" stop-opacity=".2368"/>
<stop offset="1" stop-color="#61a334" stop-opacity="0"/>
</radialGradient>
<radialGradient cx="-44.64239" cy="283.90643" gradientTransform="matrix(.18752,.97812,-.90903,.17428,237.70374,251.6128)" gradientUnits="userSpaceOnUse" id="radialGradient15285" r="121.719">
<stop offset="0" stop-color="#b3ff4b"/>
<stop offset=".7376" stop-color="#68a02c"/>
<stop offset="1" stop-color="#3c6320"/>
</radialGradient>
<radialGradient cx="203.99533" cy="148.6814" gradientTransform="matrix(-1.33662,-.10351,.02705,-.2176,472.63736,188.55529)" gradientUnits="userSpaceOnUse" id="radialGradient21659" r="41.19307" xlink:href="#linearGradient13303"/>
</defs>
<g transform="matrix(.39976,0,0,.3768,521.5128,317.82226)">
<path d="m411.79872,322.43326c0,9.14767-59.70882,16.56333-133.36339,16.56333s-133.36338-7.41566-133.36338-16.56333 59.70882-16.56333 133.36338-16.56333 133.36339,7.41565 133.36339,16.56333z" fill="#4d4d4d" fill-rule="evenodd" filter="url(#filter38751)" opacity=".6769" transform="matrix(1.04786,0,0,4.07545,-28.31558,-978.33863)"/>
<path d="m304.26598,314.99686c0,6.48808-36.9051,11.74772-82.42984,11.74772s-82.42985-5.25964-82.42985-11.74772 36.9051-11.74772 82.42985-11.74772 82.42984,5.25963 82.42984,11.74772z" fill-opacity=".9534" fill-rule="evenodd" filter="url(#filter35726)" transform="matrix(1.22567,0,0,1.55252,-21.40213,-116.73827)"/>
<path clip-path="url(#clipPath14294)" d="m100.84271,272.89235c-21.48054,104.60248-64.95959,118.69781-105.8239,116.99268-7.88444-.32898-7.53147,1.2321-16.44968.10179-7.77566-.98551-21.32657-6.02005-29.17224-5.43819-46.97446,3.48375-91.99219-58.48044-91.99219-117.48015 0-66.54593 44.03337-110.22627 113.13274-111.82065 95.30491-2.18227 130.30526,51.09859 130.30526,117.64452z" fill="url(#radialGradient15285)" stroke="url(#linearGradient37702)" stroke-opacity=".3008" stroke-width="5.41083" transform="matrix(1.22567,0,0,1.22567,269.61174,-94.7973)"/>
<path clip-path="url(#clipPath14294)" d="m100.84271,272.89235c-21.48054,104.60248-64.95959,118.69781-105.8239,116.99268-7.88444-.32898-7.53147,1.2321-16.44968.10179-7.77566-.98551-21.32657-6.02005-29.17224-5.43819-46.97446,3.48375-91.99219-58.48044-91.99219-117.48015 0-66.54593 44.03337-110.22627 113.13274-111.82065 95.30491-2.18227 130.30526,51.09859 130.30526,117.64452z" fill="url(#pattern30611)" filter="url(#filter3417)" opacity=".0923" stroke="url(#pattern26663)" stroke-width="2.57659" transform="matrix(1.22567,0,0,1.22567,269.61174,-94.7973)"/>
<path clip-path="url(#clipPath14290)" d="m92.37766,214.65037c3.10028,12.06886 4.53125,25.04536 4.53125,38.5625-21.48055,104.6025-64.94819,118.70513-105.8125,117-7.88444-.32895-7.55054,1.22406-16.46875.0937-7.77566-.9855-21.31058-6.01936-29.15625-5.4375-29.22413,2.16733-57.69048-21.00927-75.03125-53.03125 13.12085,45.79255 49.33778,84.68548 86.8125,81.90625 7.84567-.58186 21.41185,4.45202 29.1875,5.4375 8.91821,1.13031 8.55305-.45399 16.4375-.125 40.86431,1.70513 84.36321-12.36629 105.84375-116.96875 0-25.12504-5.00316-48.36552-16.34375-67.4375z" fill="#241f1c" filter="url(#filter7541)" opacity=".4769" transform="matrix(1.25266,0,0,1.22567,271.50077,-89.97387)"/>
<path clip-path="url(#clipPath14286)" d="m-86.57729,173.47156c-6.70074-.91218-11.02202,5.7749-15.74132,10.49422-5.62676,5.62676-12.10011,9.77067-15.74132,17.0531-3.48237,6.96473-6.97342,8.69972-10.49422,15.74132-2.55549,5.11099-1.31178,13.58959-1.31178,19.67666v19.67665c0,8.2013-.67162,12.44615 3.93533,17.05311 6.86889,6.86889 5.24711-8.80618 5.24711-14.42955 0-8.49511.48199-12.28798 5.24711-17.0531 5.78764-5.78765 14.35082-8.86754 11.80599,1.31177-1.89244,7.56979-1.57316,12.595 1.31178,18.36488 3.07082,6.14163 6.13927,8.29028 11.80599,2.62356 5.33404-5.33404-1.39644-10.57888 6.55889-2.62356 5.25525,5.25525 8.41352,11.01439 15.74132,9.18244 6.96755-1.74189 5.09653-9.18244 17.0531-9.18244 8.96494,0 8.04962,3.93533 15.74132,3.93533 11.33305,0 10.82026.6521 14.42955,7.87067 3.95236,7.90471 7.3019,8.61367 11.80599,13.11777 5.6638,5.6638 8.70856,2.75062 11.80599,10.49421 1.83728,4.5932 8.28184-6.06946 10.49422-10.49421 3.54147-7.08295 11.3905-11.49438 17.0531-15.74133 3.63561-2.72671 7.66537,2.82885 14.42955-3.93533 6.5222-6.5222 13.33559-1.09396 17.0531,2.62355 1.96031,1.96031 16.55976,0 19.67666,0 5.1025,0 6.55889-9.14615 6.55889-14.42954 0-5.68348-2.99441-12.5477-5.24711-17.0531-2.81492-5.62983-3.96202-13.17114-6.55889-18.36488l-7.87066-15.74133c-3.37777-6.75554-8.21811-9.52989-11.80599-13.11777-3.75193-3.75193-5.89342-8.51697-9.18244-11.80599-5.40126-5.40126-7.40843-6.55889-15.74133-6.55889-6.26624,0-14.08375-.24149-18.36488-1.31177-7.16819-1.79205-9.53444-2.14367-15.74133-5.24711-5.72838-2.86419-5.67319-5.24711-14.42955-5.24711h-19.67666-19.67666c-7.8075,0-10.68945,5.44234-14.42955,9.18244-3.34556,3.34556-11.32959,3.93533-15.74133,3.93533z" fill="url(#linearGradient14306)" filter="url(#filter13287)" transform="matrix(1.28466,0,0,1.29581,270.8587,-115.69033)"/>
<path clip-path="url(#clipPath14294)" d="m-97.07151,237.74864c-2.43613,2.89007-5.36055,11.35221-3.93533,17.0531 2.48764,9.95052 1.56281,10.0266 9.18244,15.74132 4.88811,3.66609 4.65038,8.88408 10.49422,11.806 2.43166,1.21583 2.62355-14.62085 2.62355-17.0531 0-4.12811 5.24711-6.53836 5.24711-14.42955 0-8.83492.19591-11.61009-3.93533-15.74133-2.87485-2.87484-17.74502,1.8509-19.67666,2.62356zm52.47109-3.93533c-3.65088-3.65088-4.70563,15.28368-3.93534,18.36488 2.47606,9.9042 7.87067,6.7327 7.87067,18.36487 0,9.43993.88945,10.07189 5.2471,14.42955 4.41031,4.4103 10.10636,3.51042 17.05311,5.24711 7.33006,1.83251 12.20996,5.24711 19.67665,5.24711 8.53414,0 13.32751-4.0402 20.98844-7.87066 2.25856-1.12929 6.37336-14.24403 7.87066-15.74133 3.33844-3.33844-2.62356-15.13217-2.62356-18.36488 0-7.50999 1.31178-10.86628 1.31178-18.36488 0-4.64745-10.87306-9.27715-15.74132-10.49421-5.62315-1.40579-15.60633,1.31177-22.30021,1.31177-7.07423,0-12.45182,2.62356-19.67666,2.62356-8.65742,0-8.43431,1.5936-15.74132,5.24711z" fill="url(#linearGradient14308)" fill-rule="evenodd" filter="url(#filter12154)" opacity=".3577" transform="matrix(1.22567,0,0,1.22567,269.61174,-94.7973)"/>
<path d="m190.08388,129.03427c0,0 24.65592,18.67805 66.28192,14.41551 41.85436-4.31367 49.9884-12.3239 49.9884-12.3239 34.95939-38.70874-166.93444-30.81503-116.27032-2.09161z" fill="url(#radialGradient15312)" fill-rule="evenodd"/>
<path d="m207.50217,98.4286c0,0-30.54893,10.9515-18.44464,9.79871 22.78886-7.79131 52.04318-6.13066 74.93134,1.72919-17.05106-14.48384-33.60675-12.76465-56.4867-11.5279z" fill="#fff" fill-rule="evenodd" filter="url(#filter18604)" opacity=".1846" transform="matrix(1.43899,.16791,-.13347,1.81032,-51.01772,-113.18086)"/>
<path d="m186.03125,121.65625c-6.70591-1.04375-15.3789,6.99089-7.40625,12.0625 10.90386,5.91232 23.63032,7.12692 35.90572,6.70221 14.62828.42983 30.15573-1.11447 42.62553-9.07721 2.8147-6.06863-4.01497-2.73125-7.59375-1.53125-12.97406,3.43809-26.75918,3.77735-40.18339,3.53446-7.02399-.74023-15.23264-1.98364-21.09786-5.19071 1.27377-2.35561.95986-6.47901-2.25-6.5z" fill="url(#radialGradient21659)" fill-rule="evenodd" filter="url(#filter18604)" opacity=".4654" transform="matrix(1.72473,0,0,2.18535,-131.68108,-142.84327)"/>
<path clip-path="url(#clipPath30603)" d="m223.08699,127.66322 6.60499-11.18805c0,0 2.96551-7.81816 10.10969-11.05325s12.8056-2.29153 12.8056-2.29153l7.41376,6.3354c0,0-10.78366-2.69592-22.51089,9.30091s-19.0062,16.17549-19.0062,16.17549c-1.85716-2.81722-3.50852,4.88001 4.58305-7.27897z" fill="url(#linearGradient30599)" fill-rule="evenodd" filter="url(#filter30589)" transform="matrix(1.22307,-.07988,.07988,1.22307,-36.66585,.48925)"/>
<g clip-path="url(#clipPath29604)" transform="matrix(1.22567,0,0,1.22567,-24.04558,-16.96149)">
<path d="m214.7035,131.11718 6.077.24534c-2.53429,1.7204 4.83381-35.34914 16.01425-42.7394 4.8322-3.19409-1.20324-12.31505-3.82058-10.93334 0,0-6.4702,4.67108-7.23014,8.09398s-6.71906,17.6034-8.13123,27.84572-2.56255,14.88784-2.9093,17.4877z" fill="#372a07" fill-rule="evenodd"/>
<path d="m233.12929,78.2052c-.12825.09394-1.51429,1.10085-3.08961,2.57678-1.64764,1.5437-3.28325,3.57404-3.54319,4.74488-.44268,1.99388-2.09435,6.27899-3.85104,11.50931s-3.61028,11.28857-4.29705,16.26967c-1.31859,9.56365-2.49196,14.88804-2.90271,17.47904l2.64173.13885c-.008-.98025.78354-3.48685 1.03047-5.11698 .51738-3.4156 1.54186-8.16772 3.01392-13.20004s3.38143-10.34998 5.64558-14.9231 4.87226-8.4069 7.98816-10.46651c.90562-.59862 1.24693-1.35552 1.3051-2.37653s-.006-2.83184-.55751-3.95728-1.59275-1.58881-2.28556-2.16374c-.34641-.28747-.67743-.461-.87465-.52114s-.21045-.00016-.22364.0068z" fill="#db9b1e" fill-opacity=".411" fill-rule="evenodd" filter="url(#filter24623)"/>
<path d="m233.00867,80.08646c-1.93358,1.56802-4.24549,3.00052-5.28679,5.34896-4.08455,10.78449-3.95203,12.26306-6.10929,18.32624-1.22229,4.92851-2.08035,9.94211-3.06811,14.92257-.73452,3.87631-1.44728,7.75671-2.15147,11.63864 1.23671.79578.81692-3.06276 1.54251-4.40948 1.84043-14.18161 5.3311-27.65593 10.86012-39.62691 1.28987-2.30986 3.60641-3.78117 5.55546-5.45405-.13849-.50824-1.00803-.38593-1.34243-.74597z" fill="url(#linearGradient29608)" fill-rule="evenodd" opacity=".2615"/>
</g>
</g>
<g transform="translate(1.74062,159.37136)">
<path d="m108.80436,163.23603-6.50534-2.53373c0,0-14.63704-.63344-21.95557,0s-12.19753,5.06747-9.75802,9.5015 20.60825,10.08988 36.05843,8.82302 66.40081,5.11245 99.74069,9.54648 81.39861-.78713 116.36485,1.7466 168.84862,3.87845 176.16713,1.34472 19.4343-.47973 30.81865-.47973 75.6247,1.57427 100.83293-1.5929 31.03993-5.28481 44.05061-5.28481 40.14504-1.64892 44.44522-1.00448c2.77635.41605 4.87902-11.40178-3.25268-11.40178s-38.07941-.045-47.83742-.045-8.94485,0-15.45019-1.9003-3.25268-.63344-13.0107-1.90031-11.38435-1.90028-9.75801-6.3343 3.25268-5.70091-4.87902-5.70091-5.69217,8.23463-14.63702,10.76835-36.5926-2.84113-46.35062-.30738-33.3399,5.06744-43.09794,5.06744-134.21921-.77496-156.98792-.77496-109.4409-2.47005-126.51745-3.73693-39.84526-1.26684-49.60326-1.26684-21.95557,5.06745-21.95557-1.9003 .52833-8.73445 14.3522-15.7022 25.20822-10.13492 24.39505-12.66866 0-6.33428-4.87902-6.33428-7.03366.49981-19.23119,4.3004-34.15309,13.30208-34.15309,13.30208 .81319-5.06745 6.50538-10.76836 14.63701-4.434 15.45018-13.30206 6.50534-18.36952 4.87902-21.53668-12.19755-4.43401-12.19755-4.43401-2.43948,6.33431-7.3185,10.13489-1.62634,4.43403-6.50534,1.26689-11.38436,1.26684-11.38436,4.43402 7.31851,4.43401 6.50534,8.23459-4.06585,19.63639-13.82387,25.3373-19.51603,17.10264-19.51603,17.10264z" fill="#a05a2c" fill-rule="evenodd" stroke="#28170b" stroke-width=".40191"/>
<path d="m108.80436,163.23603-6.50534-2.53373c0,0-14.63704-.63344-21.95557,0s-12.19753,5.06747-9.75802,9.5015 20.60825,10.08988 36.05843,8.82302 66.40081,5.11245 99.74069,9.54648 81.39861-.78713 116.36485,1.7466 168.84862,3.87845 176.16713,1.34472 19.4343-.47973 30.81865-.47973 75.6247,1.57427 100.83293-1.5929 31.03993-5.28481 44.05061-5.28481 40.14504-1.64892 44.44522-1.00448c2.77635.41605 4.87902-11.40178-3.25268-11.40178s-38.07941-.045-47.83742-.045-8.94485,0-15.45019-1.9003-3.25268-.63344-13.0107-1.90031-11.38435-1.90028-9.75801-6.3343 3.25268-5.70091-4.87902-5.70091-5.69217,8.23463-14.63702,10.76835-36.5926-2.84113-46.35062-.30738-33.3399,5.06744-43.09794,5.06744-134.21921-.77496-156.98792-.77496-109.4409-2.47005-126.51745-3.73693-39.84526-1.26684-49.60326-1.26684-21.95557,5.06745-21.95557-1.9003-.42953-8.73445 13.39434-15.7022 25.20822-10.13492 24.39505-12.66866 0-6.33428-4.87902-6.33428-6.0758.49981-18.27333,4.3004-34.15309,13.30208-34.15309,13.30208 .81319-5.06745 6.50538-10.76836 14.63701-4.434 15.45018-13.30206 6.50534-18.36952 4.87902-21.53668-12.19755-4.43401-12.19755-4.43401-2.43948,6.33431-7.3185,10.13489-1.62634,4.43403-6.50534,1.26689-11.38436,1.26684-11.38436,4.43402 7.31851,4.43401 6.50534,8.23459-4.06585,19.63639-13.82387,25.3373-19.51603,17.10264-19.51603,17.10264z" fill="url(#linearGradient3485)" fill-rule="evenodd"/>
<path d="m108.80436,163.23603-6.50534-2.53373c0,0-14.63704-.63344-21.95557,0s-12.19753,5.06747-9.75802,9.5015 20.60825,10.08988 36.05843,8.82302 66.40081,5.11245 99.74069,9.54648 81.39861-.78713 116.36485,1.7466 168.84862,3.87845 176.16713,1.34472 19.4343-.47973 30.81865-.47973 75.6247,1.57427 100.83293-1.5929 31.03993-5.28481 44.05061-5.28481 40.14504-1.64892 44.44522-1.00448c2.77635.41605 4.87902-11.40178-3.25268-11.40178s-38.07941-.045-47.83742-.045-8.94485,0-15.45019-1.9003-3.25268-.63344-13.0107-1.90031-11.38435-1.90028-9.75801-6.3343 3.25268-5.70091-4.87902-5.70091-5.69217,8.23463-14.63702,10.76835-36.5926-2.84113-46.35062-.30738-33.3399,5.06744-43.09794,5.06744-134.21921-.77496-156.98792-.77496-109.4409-2.47005-126.51745-3.73693-39.84526-1.26684-49.60326-1.26684-21.95557,5.06745-21.95557-1.9003 .20906-8.73445 14.03293-15.7022 25.20822-10.13492 24.39505-12.66866 0-6.33428-4.87902-6.33428-6.71439.49981-18.91192,4.3004-34.15309,13.30208-34.15309,13.30208 .81319-5.06745 6.50538-10.76836 14.63701-4.434 15.45018-13.30206 6.50534-18.36952 4.87902-21.53668-12.19755-4.43401-12.19755-4.43401-2.43948,6.33431-7.3185,10.13489-1.62634,4.43403-6.50534,1.26689-11.38436,1.26684-11.38436,4.43402 7.31851,4.43401 6.50534,8.23459-4.06585,19.63639-13.82387,25.3373-19.51603,17.10264-19.51603,17.10264z" fill="url(#linearGradient3487)" fill-rule="evenodd"/>
<path d="m147.44075,112.14825c0,0-4.02305-14.65532-4.59775-21.83929s.8621-8.04608-1.4368-11.49438-12.6438-20.40249-12.6438-26.43704 4.3104-29.59799 4.02303-34.19571 .57472-9.48285-.28735-10.63228 5.17247.5747 10.34492,1.43678 19.54042,11.20702 19.54042,27.58647-4.31038,43.39123-8.3334,51.14991-7.18397,9.77022-7.47135,11.78174 3.73568,14.36793 3.44833,15.80472-2.58625-2.87357-2.58625-3.16092z" fill="#8a0" fill-rule="evenodd"/>
<path d="m142.843,81.67955c0,0-2.18051-9.86377-2.18051-13.59944s.45636-9.66802.45636-9.66802" fill="#668000" fill-rule="evenodd"/>
<path d="m132.73484,7.32138c0,0 4.02304,3.16092 4.3104,8.04604s.28735,9.48285.28735,9.48285" fill="#668000" fill-rule="evenodd"/>
<path d="m146.24932,143.80831c0,0-3.4483-15.51738-13.79323-26.7244s-16.95419-16.37947-34.19574-17.52889-43.96593-6.3219-54.31086-10.34492-30.46006-9.48285-36.49461-11.20702-9.1955-1.72415-9.1955-1.72415 18.10364-3.16093 27.87384-6.3219 19.25307-14.0806 31.89686-16.09212 31.89684.57472 45.69009,16.09212 12.06909,25.86232 14.65529,29.02326 18.10365,12.06908 22.70137,22.12665 8.33342,19.82779 8.04607,24.13817-2.01152,3.16095-2.01152,3.16095l-.86207-4.59775z" fill="#668000" fill-rule="evenodd"/>
<path d="m111.37767,100.25244c0,0-8.95869-7.2475-19.87836-8.97165s-25.74738-1.44026-61.92999-8.18923" fill="#450" fill-rule="evenodd"/>
<path d="m626.79136,165.33559c0,0 26.8385-4.35641 36.30218-4.88339s29.6155.42944 38.55381-3.22292 14.24703-12.81153 15.57867-18.99723 1.35356-5.92342 2.24919-7.84704-8.61112,1.24806-17.00376,1.94964-19.95372,4.57319-29.26226,13.27444-9.46121,10.03453-12.45498,12.13353-34.22511,7.6149-33.96285,7.59297z" fill="#aad400" fill-rule="evenodd"/>
<path d="m677.46235,149.30274c0,0 26.25099-15.36847 24.87106-11.13155" fill="#8a0" fill-rule="evenodd"/>
<path d="m147.57055,112.61719c0,0-4.02303-14.65529-4.59775-21.83929s.8621-8.04605-1.4368-11.49437-12.6438-20.40249-12.6438-26.43704 4.3104-29.59797 4.02305-34.19572 .5747-9.48285-.28737-10.63227 5.17247.5747 10.34492,1.4368 19.54042,11.207 19.54042,27.58644-4.31038,43.39124-8.3334,51.14994-7.184,9.77022-7.47135,11.78172 3.73567,14.36794 3.44832,15.80474-2.58624-2.8736-2.58624-3.16095z" fill="url(#linearGradient3489)" fill-rule="evenodd"/>
<path d="m146.24932,143.80831c0,0-3.4483-15.51738-13.79323-26.7244s-16.95419-16.37947-34.19574-17.52889-43.96593-6.3219-54.31086-10.34492-30.46006-9.48285-36.49461-11.20702-9.1955-1.72415-9.1955-1.72415 18.10364-3.16093 27.87384-6.3219 19.25307-14.0806 31.89686-16.09212 31.89684.57472 45.69009,16.09212 12.06909,25.86232 14.65529,29.02326 18.10365,12.06908 22.70137,22.12665 8.33342,19.82779 8.04607,24.13817-2.01152,3.16095-2.01152,3.16095l-.86207-4.59775z" fill="url(#linearGradient3491)" fill-rule="evenodd"/>
<path d="m626.79136,165.33559c0,0 26.8385-4.35641 36.30218-4.88339s29.6155.42944 38.55381-3.22292 14.24703-12.81153 15.57867-18.99723 1.35356-5.92342 2.24919-7.84704-8.61112,1.24806-17.00376,1.94964-19.95372,4.57319-29.26226,13.27444-9.46121,10.03453-12.45498,12.13353-34.22511,7.6149-33.96285,7.59297z" fill="url(#linearGradient3493)" fill-rule="evenodd"/>
<path d="m71.90204,165.02991c0,0 24.53542,3.52068 35.51178,6.03546s21.95275,3.01772 27.76376.50294 48.42517-1.0059 59.40153,2.51478 32.28346,2.51478 41.32282,6.53842 16.14173,7.54434 6.45668,7.54434-21.30706,1.0059-21.30706,1.0059" fill="none" stroke="#28170b" stroke-width=".20095"/>
<path d="m184.89411,172.07127c0,0 56.17318,1.50886 85.87395,3.5207s167.22824,5.02954 178.20461,1.50886 85.87397,2.51478 99.433.50296 52.29918-4.5266 58.75586-5.53252 44.55118,4.5266 58.11022,4.5266 53.59053-3.01774 53.59053-3.01774" fill="none" stroke="#28170b" stroke-width=".20095"/>
<path d="m240.4216,182.63333c0,0 33.5748-.50296 61.33858-.50296s71.02356,6.53842 91.0393,3.52068 31.63777-6.03544 31.63777-6.03544l8.39369-1.00592" fill="none" stroke="#28170b" stroke-width=".20095"/>
<path d="m396.02782,187.15993c0,0 95.559,1.00592 111.70073-2.01182s51.65348,1.50886 70.37789.50294 33.57477-5.02954 42.61415-5.53248 40.03148-3.01774 40.03148-3.01774" fill="none" stroke="#28170b" stroke-width=".20095"/>
<path d="m605.22453,172.07127c0,0 15.49606-4.52658 18.7244-7.54432s3.22837-5.53252 3.22837-5.53252" fill="none" stroke="#28170b" stroke-width=".20095"/>
<path d="m103.53981,161.50921c0,0 14.8504,5.53252 21.95275,5.53252s48.6132-16.02247 62.17224-23.56681 16.17028-7.97845 16.17028-7.97845" fill="none" stroke="#28170b" stroke-width=".20095"/>
<path d="m134.53191,158.49149c0,0 40.03148-15.08865 51.65351-19.61525s17.81638-5.27998 17.81638-5.27998" fill="none" stroke="#28170b" stroke-width=".20095"/>
</g>
<g transform="matrix(.64358,0,0,.80884,107.44247,-498.68245)">
<path d="m308.04214,1024.6764a14.25,23.02381 0 0,1 -28.5,0 14.25,23.02381 0 1,1 28.5,0z" fill="url(#linearGradient4323-7)" stroke="#000" stroke-linecap="round" stroke-linejoin="round" stroke-width="6.26507"/>
<path d="m273.54214,1024.6764a14.25,23.02381 0 0,1 -28.5,0 14.25,23.02381 0 1,1 28.5,0z" fill="url(#linearGradient4325-5)" stroke="#000" stroke-linecap="round" stroke-linejoin="round" stroke-width="6.26507"/>
<path d="m290.54214,1024.6764a14.25,23.02381 0 0,1 -28.5,0 14.25,23.02381 0 1,1 28.5,0z" fill="url(#linearGradient4333-0)" stroke="#000" stroke-linecap="round" stroke-linejoin="round" stroke-width="6.26507"/>
<path d="m385.04213,1024.6764a14.25,23.02381 0 0,1 -28.5,0 14.25,23.02381 0 1,1 28.5,0z" fill="url(#linearGradient4333-0)" stroke="#000" stroke-linecap="round" stroke-linejoin="round" stroke-width="6.26507"/>
<path d="m350.54213,1024.6764a14.25,23.02381 0 0,1 -28.5,0 14.25,23.02381 0 1,1 28.5,0z" fill="url(#linearGradient4331-4)" stroke="#000" stroke-linecap="round" stroke-linejoin="round" stroke-width="6.26507"/>
<path d="m367.54213,1024.6764a14.25,23.02381 0 0,1 -28.5,0 14.25,23.02381 0 1,1 28.5,0z" fill="url(#linearGradient4333-0)" stroke="#000" stroke-linecap="round" stroke-linejoin="round" stroke-width="6.26507"/>
<path d="m259.29214,1001.6492c-5.8064,0-10.78031,5.6303-13,13.6875 18.97108,5.0743 39.81417,8.0342 61.71875,8.4375-.29837-12.2848-6.54288-22.125-14.21875-22.125-3.30091,0-6.3333,1.8275-8.75,4.875-2.4167-3.0475-5.44909-4.875-8.75-4.875-3.18578,0-6.12606,1.7048-8.5,4.5625-2.37394-2.8577-5.31422-4.5625-8.5-4.5625zm77,0c-7.65621,0-13.8907,9.7905-14.21875,22.0312 21.88058-.7043 42.61585-3.9835 61.4375-9.3437-2.3472-7.5156-7.15711-12.6875-12.71875-12.6875-3.30091,0-6.3333,1.8275-8.75,4.875-2.4167-3.0475-5.44909-4.875-8.75-4.875-3.18578,0-6.12606,1.7048-8.5,4.5625-2.37394-2.8577-5.31422-4.5625-8.5-4.5625z" fill-opacity=".3137"/>
<path d="m478.70051,848.58836a165.56416,165.56416 0 0,1 -331.12832,0 165.56416,165.56416 0 1,1 331.12832,0z" fill="#7a4e40" stroke="#000" stroke-linecap="round" stroke-width="6.26507"/>
<path d="m394.97413,931.3704c-26.5-4.92357-2.24739,21.63115-6.31076,31.23273-16.06336-7.89842-9.94271,18.25002-17.20659,25.51392-13.76389-.7361-15.91234,13.14325-25.51392,17.20655-11.60159-6.43659-20.1563,6.3108-31.23272,6.3108s-17.63116-12.24739-31.23273-6.3108c-9.60158-4.0633-11.75003-17.44266-25.51392-17.20655-7.26389-7.2639-6.14323-34.91235-17.20661-25.51392-4.06336-9.60158 14.68925-38.1563-6.31075-31.23273 0-11.07643 22.24739-31.63114 6.31075-31.23273 4.06338-9.60157 24.44272-16.75002 17.20661-25.51391 14.52778-14.52778 34.59379-23.51735 56.74665-23.51735s42.21886,8.98957 56.74664,23.51735c-10.73611,5.26389 13.14323,15.91234 17.20659,25.51391-17.93664-.89841 6.31076,20.1563 6.31076,31.23273z" fill="#fff" stroke="#000" stroke-linecap="round" stroke-linejoin="round" stroke-width="6.26507"/>
<path d="m459.41714,771.0242c1.98061,10.23246 3.03125,20.78543 3.03125,31.59375 0,3.72989-.13179,7.42509-.375,11.09375-3.67259-.18281-7.57831.019-11.75.625-35.21544,7.49865-20.17331,51.66406-29.34375,97.875-30.34233,34.32869-74.70943,55.96875-124.09375,55.96875-30.37329,0-58.83164-8.20726-83.3125-22.5-23.67921-55.44259 8.0762-115.66462-33.65625-126.0625-46.11047-8.32536-63.97048,34.45625-34.15625,98.5625 16.46098,35.39423 43.7229,52.77976 63.78125,59.53125 28.36337,22.8004 64.39183,36.4375 103.59375,36.4375 45.94954,0 87.55719-18.73944 117.5625-49 17.45353-8.71747 36.86154-24.59496 50.34375-51.15625 25.2124-49.6709 20.38473-87.07842-5.46875-97.4375-3.16986-16.13601-8.66598-31.44191-16.15625-45.53125z" fill-opacity=".3137" fill-rule="evenodd"/>
<path d="m179.7787,811.56919c48.11121,17.30003-14.16343,94.14271 37.81914,161.19179 9.60838,12.39326-57.86796,2.09077-81.72278-66.58505-23.1983-66.78576-1.13236-107.53908 43.90364-94.60674z" fill="#d66a17" fill-rule="evenodd" stroke="#000" stroke-width="6.26507"/>
<path d="m446.22129,811.56919c-48.1112,17.30003 14.16343,94.14271-37.81914,161.19179-9.60838,12.39326 57.86796,2.09077 81.72278-66.58505 23.19831-66.78576 1.13236-107.53908-43.90364-94.60674z" fill="#d66a17" fill-rule="evenodd" stroke="#000" stroke-width="6.26507"/>
<path d="m428.5461,802.52175c13.38868-4.60902 27.22104,7.58384 29.86518,14.17993-13.51228-3.45229-19.71964-4.4258-23.21838-1.38072 1.50673,3.37144 17.40823,6.74191 22.33732,28.87115-12.42877-8.61661-22.30354-18.57557-26.2724-14.48312 2.88158,5.03382 6.1995,14.49739 3.96357,23.88076-7.14149-9.42443-14.43874-19.37844-21.14152-19.64782" fill="#dfded5" fill-rule="evenodd" stroke="#000" stroke-linecap="round" stroke-linejoin="round" stroke-width="6.26507"/>
<path d="m197.18559,802.52175c-13.38867-4.60902-27.22103,7.58384-29.86518,14.17993 13.51228-3.45229 19.71963-4.4258 23.21838-1.38072-1.50674,3.37144-17.40824,6.74191-22.33733,28.87115 12.42877-8.61661 22.30354-18.57557 26.27241-14.48312-2.88158,5.03382-6.19951,14.49739-3.96357,23.88076 7.14149-9.42443 14.43873-19.37844 21.14152-19.64782" fill="#dfded5" fill-rule="evenodd" stroke="#000" stroke-linecap="round" stroke-linejoin="round" stroke-width="6.26507"/>
<path d="m461.97964,809.18045c-.41261-.0006-.83163.0205-1.25.0312 16.21208,13.06454 23.07333,43.29712 14.78125,85.34375-11.02308,55.89475-53.57658,80.00799-67.71875,81.28125 4.59211,6.52643 60.97088-8.12575 82.34375-69.65625 20.29853-58.43754 5.92075-96.95013-28.15625-97z" fill-opacity=".3137" fill-rule="evenodd"/>
<path d="m128.10464,841.36795c-3.45178,16.50581-1.29853,38.67265 7.78125,64.8125 23.85482,68.67582 91.32713,78.987 81.71875,66.59375-4.10892-5.29984-7.52039-10.67453-10.3125-16.0625-18.9515-4.54141-54.0478-24.37623-69.90625-70.03125-5.87955-16.92667-8.85389-32.18045-9.28125-45.3125zm71.28125,6.34375c-.88285,8.53607-1.85621,17.61189-2.28125,27.125 .99329-9.79063 2.07939-18.94113 2.28125-27.125z" fill-opacity=".3137" fill-rule="evenodd"/>
</g>
<g transform="matrix(.73693,-.28505,.27752,.75694,145.83681,33.83667)">
<path d="m147.34375,20.90625c-1e-005-1.1e-005 12.33757,10.08062 16.15625,11.9375 2.70948,1.31754 8.04733,3.0341 11.3125,4.5-15.24942-1.69577-30.23588-.39383-44.03125,3.625-17.95367,4.85885-39.68272,4.73441-52.84375,14.4375-.8774.64688-1.74652,1.29775-2.59375,1.96875 6.25431-3.43051 18.70691.51941 25.78125-2.21875-13.62196,9.64764-24.45362,22.77626-30.71875,38.875-.48469,1.24543-.88417,2.45978-1.28125,3.65625-1.99159,3.11643-3.85277,6.3709-5.59375,9.78125-21.83814,42.77817-10.29086,75.04916 18.375,86.9375 .42528.17652.85263.33259 1.28125.5 6.56113,8.21302 15.68099,15.10564 26.71875,19.46875 6.47598,2.55988 11.09315,3.02229 15.96875,2.875 2.80504-7.59543 8.87482-4.60985 9.3125-.75 1.11089-.18837 2.25958-.37943 3.46875-.59375 6.62074,8.78772 21.75648,18.43858 33.375,23.03125 11.394,4.50394 23.13226,5.60167 33.75,3.84375 27.00333,6.51639 53.87235-10.12633 65.78125-53.09375 2.86459-10.33554 4.21967-20.56182 4.125-30.25 3.76015-18.55675-1.20864-36.78141-3.34375-47.09375 3.19494,4.22538 2.48093,2.89859 5,6.34375 1.78454,2.44032 4.50684,4.8819 5.78125,7.40625-1.05044-3.35667-2.35409-6.71444-3.90625-10.03125-4.70545-10.05512-11.56253-19.87037-19.6875-29.125-6.39001-9.24621-14.36463-17.70949-23.71875-24.96875 4.27938.40176 9.95553,3.7747 14.8125,8.0625-6.32877-10.72619-20.66916-21.66726-39.96875-23.125 .36149-2.22955-5.76202-11.29178-6.90625-13.9375-.064,1.76703.94436,10.11245-1.125,10.3125-9.59519-9.66028-40.04239-21.8654-55.28125-22.375zm-27.625,89.375c1.8311-.0146 3.70621.30983 5.53125,1.03125 7.30017,2.88568 10.99699,10.89678 8.28125,17.875s-10.82483,10.29193-18.125,7.40625-11.02824-10.86553-8.3125-17.84375c2.03681-5.23367 7.1317-8.42488 12.625-8.46875zm84.46875,32.46875c1.8311-.0146 3.70621.30983 5.53125,1.03125 7.30017,2.88568 11.02824,10.89678 8.3125,17.875s-10.85608,10.29193-18.15625,7.40625-11.02824-10.89678-8.3125-17.875c2.0368-5.23367 7.1317-8.39363 12.625-8.4375z" fill-rule="evenodd"/>
<path d="m137.88574,55.44516c-28.8581-11.4073-61.72697,8.9828-79.9675,44.7135-21.83815,42.77818-10.27752,75.04167 18.38832,86.93 .42541.17658.85235.33895 1.28107.50639 6.56016,8.2055 15.69215,15.11917 26.72225,19.47926 11.62431,4.59496 17.94638,3.45262 28.73386,1.5406 6.6208,8.78775 21.77939,18.42675 33.39791,23.01943 11.37183,4.49517 23.0672,5.59998 33.66865,3.85669 27.02164,6.55208 53.93179-10.09962 65.84877-53.09602 10.72632-38.701.35464-76.18361-28.50354-87.59095s-54.02399,4.09433-69.3867,41.10037c-.57282,1.37994-1.11738,2.72971-1.63815,4.07854l-.16546.032c-1.63883-2.17653-3.48536-4.26681-5.46659-6.25357 .0789-.21449.16796-.41753.24649-.6334 13.69709-37.66445 5.69879-66.27553-23.15938-77.68287z" fill="none" stroke="#7a4e40" stroke-linecap="round" stroke-width="7.44077"/>
<path d="m109.59375,114.71875c-18.50512,1.49408-34.43309,11.50495-40.71875,27.65625-9.43897,24.25387 6.43995,53.22506 35.4375,64.6875 11.62431,4.59496 17.93126,3.47453 28.71875,1.5625 6.62071,8.78772 21.78773,18.40733 33.40625,23 28.99756,11.46243 60.18603,1.09762 69.625-23.15625 7.23045-18.57897-.41121-39.93473-17.40625-54.0625 .45803,2.37483.30074,4.87128-.625,7.25-2.71574,6.97822-10.85608,10.29193-18.15625,7.40625s-11.02824-10.89678-8.3125-17.875c1.48097-3.80543 4.58916-6.50669 8.28125-7.71875-11.3748-4.33725-23.05027-5.33442-33.59375-3.46875-6.62116-8.79348-16.1257-16.21753-27.75-20.8125-2.08186-.82294-4.18569-1.49306-6.28125-2.09375 2.26001,3.56345 2.90756,7.99516 1.3125,12.09375-2.71575,6.97822-10.82483,10.29193-18.125,7.40625s-11.02824-10.86553-8.3125-17.84375c.59407-1.52649 1.45162-2.87968 2.5-4.03125z" fill="#bdb281" fill-rule="evenodd"/>
<path d="m146.96875,20.75c1e-005,1e-006 9.33757,3.17437 13.15625,5.03125 2.70949,1.31754 5.79733,2.75285 9.0625,4.21875-15.24942-1.69576-30.23589-.36258-44.03125,3.65625-19.15056,5.18276-36.63177,12.7953-50.1875,23.53125 6.25431-3.4305 13.45691-6.60559 20.53125-9.34375-13.62198,9.64765-24.42237,22.80751-30.6875,38.90625-19.09395,49.06279 30.58515,59.49554 86.09375,81.4375s95.93731,47.12528 115.03125-1.9375c8.85491-22.75306 7.34661-47.30382-2.34375-69.28125 4.85845,6.42543 10.21549,14.43989 13.9375,21.8125-4.23485-13.53258-12.8199-26.81759-23.625-39.125-6.39001-9.2462-14.36463-17.70949-23.71875-24.96875 4.27938.40175 9.95553,3.74345 14.8125,8.03125-9.48694-10.761-26.06906-20.0591-39.96875-23.125 .3615-2.22957-.54328-5.04179-1.6875-7.6875-.064,1.76703-2.05563,4.3312-4.125,4.53125-9.59519-9.66027-37.01115-15.1779-52.25-15.6875zm-27.25,89.53125c1.8311-.0146 3.70621.30983 5.53125,1.03125 7.30017,2.88568 10.99699,10.89678 8.28125,17.875s-10.82483,10.29193-18.125,7.40625-11.02824-10.86553-8.3125-17.84375c2.03681-5.23367 7.1317-8.42488 12.625-8.46875zm84.46875,32.46875c1.8311-.0146 3.70621.30983 5.53125,1.03125 7.30017,2.88568 11.02824,10.89678 8.3125,17.875s-10.85608,10.29193-18.15625,7.40625-11.02824-10.89678-8.3125-17.875c2.0368-5.23367 7.1317-8.39363 12.625-8.4375z" fill="#7a4e40" fill-rule="evenodd"/>
<path d="m121.34375,52.28125c-24.14127-.05177-48.61711,18.84377-63.4375,47.875-21.83814,42.77817-10.25959,75.04916 18.40625,86.9375 28.16511,11.69049 63.80894,3.61473 84.75-53.96875 13.69715-37.66442 5.70192-66.28017-23.15625-77.6875-5.4109-2.13887-10.99144-3.1443-16.5625-3.15625zm-1.625,58c1.8311-.0146 3.70621.30983 5.53125,1.03125 7.30017,2.88568 10.99699,10.89678 8.28125,17.875s-10.82483,10.29193-18.125,7.40625-11.02824-10.86553-8.3125-17.84375c2.03681-5.23367 7.1317-8.42488 12.625-8.46875z" fill="#f1efe5" fill-rule="evenodd"/>
<path d="m219.09375,91.125c-21.05533.08242-39.02918,15.87025-51.03125,44.78125-23.4872,56.57699-2.79093,86.93144 25.75,97.65625 29.0416,10.9228 59.28294-4.82201 72.125-51.15625 10.72632-38.701.35817-76.18642-28.5-87.59375-6.31271-2.49535-12.44826-3.71058-18.34375-3.6875zm-14.90625,51.625c1.8311-.0146 3.70621.30983 5.53125,1.03125 7.30017,2.88568 11.02824,10.89678 8.3125,17.875s-10.85608,10.29193-18.15625,7.40625-11.02824-10.89678-8.3125-17.875c2.0368-5.23367 7.1317-8.39363 12.625-8.4375z" fill="#f1efe5" fill-rule="evenodd"/>
<path d="m136.12918,201.45453c-10.98971-17.47881-5.08696-35.25286 2.69078-45.58316 4.29557-5.70516 28.1195,1.52009 27.21424,10.75751-1.44189,14.71219-6.24828,29.6435-29.90502,34.82565z" fill="#ffb20a" fill-rule="evenodd"/>
<path d="m138.02656,154.30991c-5.17722,4.87005-7.70169,14.25013-8.65485,22.18879s-2.45381,23.26074 3.17983,32.22083l.43935.71748 .82245-.19008c12.04546-2.63861 21.58534-14.63726 25.98992-21.00518s7.95059-16.10551 6.6792-23.43717c-1.55554-8.96991-21.86536-16.69417-28.4559-10.49467zm1.49214,3.01679c6.58452-5.04695 22.79675,1.43897 24.20647,9.56857 1.24474,7.17803-1.88897,14.38994-5.82415,20.07938-4.02011,5.81227-10.2107,10.53712-21.22032,13.13479-4.92492-8.21751-5.93017-15.92773-5.04958-23.26143 .8628-7.18634 2.46202-15.36264 7.88758-19.52131z" fill="#7a4e40" fill-rule="evenodd"/>
<path d="m123.09375,82.5c-14.47622.17206-22.51179,17.14052-27.5,31.4375-5.91189,16.94461 2.25968,26.75675 14.8125,31.71875s24.74437,3.19459 30.65625-13.75 8.34567-40.66961-9.25-47.625c-3.14387-1.24274-6.03797-1.81311-8.71875-1.78125zm-3.46875,25.75c2.10171-.0168 4.24899.35946 6.34375,1.1875 8.37903,3.31215 12.64833,12.52173 9.53125,20.53125s-12.43346,11.81214-20.8125,8.5-12.67959-12.4905-9.5625-20.5c2.33783-6.00714 8.19486-9.6684 14.5-9.71875z" fill="#f76b00" fill-rule="evenodd" stroke="#c7740d" stroke-linecap="round" stroke-width="3.72038"/>
<path d="m210.75,117.15625c-13.88283.40662-24.95123,16.16004-30.9375,30.0625-7.09491,16.47698.66601,26.16304 13.21875,31.125s25.18634,3.35198 32.28125-13.125 13.55826-38.64023-6.5625-46.59375c-2.74932-1.08678-5.42911-1.54405-8-1.46875zm-6.65625,23.8125c2.06789-.0165 4.18896.37278 6.25,1.1875 8.24418,3.25884 12.47317,12.3069 9.40625,20.1875s-12.25582,11.60259-20.5,8.34375-12.47317-12.3069-9.40625-20.1875c2.30018-5.91046 8.04634-9.4817 14.25-9.53125z" fill="#f76b00" fill-rule="evenodd" stroke="#c7740d" stroke-linecap="round" stroke-width="3.72038"/>
<path d="m117.40625,105.625c-6.92376.0553-13.30781,4.05973-15.875,10.65625-3.42292,8.79536 1.2676,18.89414 10.46875,22.53125s19.42082-.5484 22.84375-9.34375-1.2676-18.89414-10.46875-22.53125c-2.30029-.90928-4.66083-1.33093-6.96875-1.3125zm2.3125,4.65625c1.8311-.0146 3.70621.30983 5.53125,1.03125 7.30017,2.88568 10.99699,10.89678 8.28125,17.875s-10.82483,10.29193-18.125,7.40625-11.02824-10.86553-8.3125-17.84375c2.03681-5.23367 7.1317-8.42488 12.625-8.46875z" fill-rule="evenodd" stroke="#fff" stroke-linecap="round" stroke-width="2.38756"/>
<path d="m201.65625,138.9375c-6.92377.0553-13.30781,4.05972-15.875,10.65625-3.42292,8.79536 1.26761,18.89413 10.46875,22.53125s19.45208-.54839 22.875-9.34375-1.26761-18.89414-10.46875-22.53125c-2.30029-.90928-4.69208-1.33093-7-1.3125zm2.53125,3.8125c1.8311-.0146 3.70621.30983 5.53125,1.03125 7.30017,2.88568 11.02824,10.89678 8.3125,17.875s-10.85608,10.29193-18.15625,7.40625-11.02824-10.89678-8.3125-17.875c2.0368-5.23367 7.1317-8.39363 12.625-8.4375z" fill-rule="evenodd" stroke="#fff" stroke-linecap="round" stroke-width="2.38756"/>
<path d="m146.96875,20.75c-1e-005-1e-006 9.33756,3.17436 13.15625,5.03125 2.70947,1.31754 5.79733,2.7841 9.0625,4.25-15.24942-1.69577-30.23589-.39384-44.03125,3.625-17.95368,4.85885-34.43272,11.85941-47.59375,21.5625-.8774.64688-1.74651,1.29775-2.59375,1.96875 6.25431-3.43051 13.45691-6.60558 20.53125-9.34375-13.62196,9.64764-24.42236,22.77626-30.6875,38.875-.48468,1.24543-.88418,2.45979-1.28125,3.65625-1.99159,3.11644-3.88402,6.3709-5.625,9.78125-21.83814,42.77818-10.29085,75.04916 18.375,86.9375 .42529.17652.88388.3326 1.3125.5 6.56113,8.21303 15.681,15.10564 26.71875,19.46875 11.62432,4.59495 17.93126,3.44327 28.71875,1.53125 6.62073,8.78772 21.78773,18.43858 33.40625,23.03125 11.394,4.50392 23.10101,5.63291 33.71875,3.875 27.00333,6.51639 53.87235-10.12632 65.78125-53.09375 2.86458-10.33552 4.21967-20.59307 4.125-30.28125 3.76012-18.55676 1.27846-37.6567-6.4375-55.15625 4.85845,6.42542 10.18424,14.43989 13.90625,21.8125-4.23486-13.53258-12.8199-26.84883-23.625-39.15625-6.39001-9.2462-14.36462-17.67825-23.71875-24.9375 4.27938.40176 9.95553,3.74345 14.8125,8.03125-9.48693-10.76102-26.06905-20.0591-39.96875-23.125 .36148-2.22956-.54327-5.07303-1.6875-7.71875-.064,1.76703-2.05563,4.33121-4.125,4.53125-9.59519-9.66027-37.01115-15.14664-52.25-15.65625zm-27.25,89.53125c1.8311-.0146 3.70621.30983 5.53125,1.03125 7.30017,2.88568 10.99699,10.89678 8.28125,17.875s-10.82483,10.29193-18.125,7.40625-11.02824-10.86553-8.3125-17.84375c2.03681-5.23367 7.1317-8.42488 12.625-8.46875zm84.46875,32.46875c1.8311-.0146 3.70621.30983 5.53125,1.03125 7.30017,2.88568 11.02824,10.89678 8.3125,17.875s-10.85608,10.29193-18.15625,7.40625-11.02824-10.89678-8.3125-17.875c2.0368-5.23367 7.1317-8.39363 12.625-8.4375z" fill="url(#linearGradient4303-6)" fill-rule="evenodd"/>
</g>
<g transform="matrix(.45392,0,0,.46638,13.22756,-186.41881)">
<path d="m734.5238,604.03975a16.38711,16.38711 0 1,1 -32.77421,0 16.38711,16.38711 0 1,1 32.77421,0z" stroke="#000" stroke-linecap="round" stroke-width="6.26507"/>
<path d="m722.47157,605.30086a4.25,4.25 0 0,1 -8.5,0 4.25,4.25 0 1,1 8.5,0z" fill="#fff"/>
</g>
<g transform="matrix(.45392,0,0,.46638,-56.85622,-187.22764)">
<path d="m734.5238,604.03975a16.38711,16.38711 0 1,1 -32.77421,0 16.38711,16.38711 0 1,1 32.77421,0z" stroke="#000" stroke-linecap="round" stroke-width="6.26507"/>
<path d="m722.47157,605.30086a4.25,4.25 0 0,1 -8.5,0 4.25,4.25 0 1,1 8.5,0z" fill="#fff"/>
</g>
</svg>
