<?xml version="1.0" encoding="UTF-8" standalone="no"?>
<svg viewBox="0 0 744.09448819 1052.3622047" xmlns="http://www.w3.org/2000/svg" xmlns:xlink="http://www.w3.org/1999/xlink">
<defs>
<linearGradient id="linearGradient3157">
<stop offset="0" stop-color="#f00"/>
<stop offset=".2793" stop-color="#ffc100"/>
<stop offset=".5005" stop-color="#ff0"/>
<stop offset=".696" stop-color="#7fff00"/>
<stop offset=".8589" stop-color="#1ae5ff"/>
<stop offset="1" stop-color="#de72ff"/>
<stop offset="1" stop-color="#f0f"/>
</linearGradient>
<linearGradient id="linearGradient3088">
<stop offset="0" stop-color="#008fff"/>
<stop offset="1" stop-color="#00c6ff"/>
</linearGradient>
<linearGradient gradientUnits="userSpaceOnUse" id="linearGradient3703" x1="594.79946" x2="474.79946" y1="113.29811" y2="157.58382">
<stop offset="0" stop-color="#f00"/>
<stop offset=".2793" stop-color="#ffc100"/>
<stop offset=".5005" stop-color="#ff0"/>
<stop offset=".696" stop-color="#7fff00"/>
<stop offset=".9375" stop-color="#1ae5ff"/>
<stop offset=".9375" stop-color="#de72ff"/>
<stop offset="1" stop-color="#f0f"/>
</linearGradient>
<linearGradient gradientUnits="userSpaceOnUse" id="linearGradient3723" x1="170.01374" x2="275.29946" y1="203.1372" y2="185.99435">
<stop offset="0" stop-color="#000080"/>
<stop offset="1" stop-color="#000080" stop-opacity="0"/>
</linearGradient>
<linearGradient gradientUnits="userSpaceOnUse" id="linearGradient3699" x1="419.53125" x2="346.09375" xlink:href="#linearGradient3088" y1="479.70593" y2="557.83093"/>
<linearGradient gradientTransform="matrix(1.29017,0,0,1.886,93.18098,-470.26995)" gradientUnits="userSpaceOnUse" id="linearGradient3701" x1="127.34375" x2="160.9375" xlink:href="#linearGradient3088" y1="560.56531" y2="530.87781"/>
<linearGradient gradientTransform="matrix(1.7251,0,0,1.10644,230.54826,-478.28655)" gradientUnits="userSpaceOnUse" id="linearGradient3705" x1="248.41313" x2="173.88318" xlink:href="#linearGradient3157" y1="610.85376" y2="670.24652"/>
<linearGradient gradientUnits="userSpaceOnUse" id="linearGradient3707" x1="609.08514" x2="513.37088" xlink:href="#linearGradient3157" y1="293.2981" y2="354.72669"/>
<linearGradient gradientUnits="userSpaceOnUse" id="linearGradient3709" x1="130" x2="135.71428" xlink:href="#linearGradient3088" y1="743.79077" y2="609.505"/>
<linearGradient gradientTransform="matrix(1,0,0,.61013,268.37087,98.98659)" gradientUnits="userSpaceOnUse" id="linearGradient3711" x1="120.3125" x2="339.0625" xlink:href="#linearGradient3088" y1="863.29968" y2="933.61218"/>
<linearGradient gradientUnits="userSpaceOnUse" id="linearGradient3713" x1="421.42857" x2="457.14285" xlink:href="#linearGradient3088"/>
<linearGradient gradientTransform="matrix(.66981,0,0,.60435,277.24413,150.23459)" gradientUnits="userSpaceOnUse" id="linearGradient3715" x1="181.13681" x2="236.5896" xlink:href="#linearGradient3088" y1="653.5708" y2="625.20496"/>
<linearGradient gradientTransform="matrix(.60856,0,0,-.55387,330.61593,1037.1512)" gradientUnits="userSpaceOnUse" id="linearGradient3717" x1="177.14285" x2="232.85715" xlink:href="#linearGradient3088" y1="585.21936" y2="710.93365"/>
<linearGradient gradientUnits="userSpaceOnUse" id="linearGradient3719" x1="420" x2="354.28571" xlink:href="#linearGradient3088" y1="693.79076" y2="538.07646"/>
<linearGradient gradientUnits="userSpaceOnUse" id="linearGradient3721" x1="206.22802" x2="486.22802" xlink:href="#linearGradient3088" y1="263.2981" y2="409.0124"/>
<linearGradient gradientUnits="userSpaceOnUse" id="linearGradient3725" x1="388.28741" x2="392.74003" xlink:href="#linearGradient3088" y1="773.71708" y2="666.75262"/>
<linearGradient gradientUnits="userSpaceOnUse" id="linearGradient3731" x1="687.43336" x2="591.7191" xlink:href="#linearGradient3157" y1="607.47008" y2="668.89867"/>
</defs>
<g transform="translate(-22.09709,48.61359)">
<g transform="translate(-33.46807,-35.89461)">
<path d="m403.125,546.69257c0,16.17405-125.2335,28.19637-134.95535,16.78571-12.64684-14.84375 83.98088-30.64747 91.60714-44.91071 7.8125-14.61156 16.05852-26.16072 31.04911-26.16072s12.2991,38.11166 12.2991,54.28572z" fill="url(#linearGradient3699)" stroke="#000"/>
<path d="m299.30643,567.06618c0,14.24077-21.11422,13.17189-28.72653,25.04845-29.27657,45.67662-27.71859-9.33424-27.71859-23.57502s16.58509-27.99536 27.71859-27.99536 28.72653,12.28115 28.72653,26.52193z" fill="url(#linearGradient3701)" stroke="#000" stroke-width="1.55989"/>
</g>
<path d="m599.61531,124.38349c0,35.97805-54.62398,126.33996-90.96797,126.33996s-65.80661-29.16598-65.80661-65.14405 29.46262-65.14404 65.80661-65.14404 90.96797-32.02995 90.96797,3.94813z" fill="url(#linearGradient3703)" stroke="#000" stroke-width="1.36828"/>
<path d="m666.75153,202.41413c0,28.80747-69.55179,101.15982-115.82799,101.15982s-83.79044-23.35306-83.79044-52.16053 37.51425-52.16054 83.79044-52.16054 115.82799-25.64622 115.82799,3.16125z" fill="url(#linearGradient3705)" stroke="#000" stroke-width="1.38156"/>
<path d="m611.9423,306.15528c0,26.03628-40.3176,91.42856-67.14286,91.42856s-48.57143-21.10657-48.57143-47.14285 21.74617-47.14286 48.57143-47.14286 67.14286-23.17913 67.14286,2.85715z" fill="url(#linearGradient3707)" stroke="#000"/>
<g transform="matrix(.77921,0,0,.79654,253.75308,138.2773)">
<path d="m210.00001,681.64789c0,41.42135-38.82375,47.85714-81.42857,47.85714s-72.85715-6.43579-72.85715-47.85714 35.96661-117.85714 78.57143-117.85714 75.71429,76.43578 75.71429,117.85714z" fill="url(#linearGradient3709)" stroke="#000"/>
<path d="m100.38463,705.91973c0-10.07955-7.13541-40.15146-15.93739-40.15146s-15.93738,30.07191-15.93738,40.15146 7.13541,18.25067 15.93738,18.25067 15.93739-8.17111 15.93739-18.25067z" fill="#deaa87" stroke="#fff" stroke-width=".48738"/>
<path d="m148.79453,713.31257c0-10.07955-7.13541-40.15146-15.93739-40.15146s-15.93738,30.07191-15.93738,40.15146 7.13541,18.25067 15.93738,18.25067 15.93739-8.17111 15.93739-18.25067z" fill="#deaa87" stroke="#fff" stroke-width=".48738"/>
<path d="m197.36595,703.31258c0-10.07955-7.13541-40.15146-15.93739-40.15146s-15.93738,30.07191-15.93738,40.15146 7.13541,18.25067 15.93738,18.25067 15.93739-8.17111 15.93739-18.25067z" fill="#deaa87" stroke="#fff" stroke-width=".48738"/>
</g>
<path d="m146.09375,616.81531c0,.43147-.0874.78125-.19531.78125s-.19532-.34978-.19532-.78125 .0874-.78125.19532-.78125 .19531.34978.19531.78125z" fill="none" stroke="#fff" transform="translate(183.40582,-83.96893)"/>
<path d="m646.49587,687.20435c0,20.7972-168.09404-7.15-203.90625-7.15s-64.84375-16.85945-64.84375-37.65666 29.03154-37.65665 64.84375-37.65665 203.90625,61.66612 203.90625,82.46331z" fill="url(#linearGradient3711)" stroke="#000" stroke-width=".78111"/>
<g transform="translate(31.9423,-81.92123)">
<path d="m475.89617,574.18454c0,15.73499-27.00514,55.25474-44.97298,55.25474s-32.53364-12.75573-32.53364-28.49073 14.56581-28.49073 32.53364-28.49073 44.97298-14.00828 44.97298,1.72672z" fill="url(#linearGradient3713)" stroke="#000" stroke-width=".63624"/>
<path d="m446.61045,522.04169c0,15.73499-27.00514,55.25474-44.97298,55.25474s-32.53364-12.75573-32.53364-28.49073 14.56581-28.49073 32.53364-28.49073 44.97298-14.00828 44.97298,1.72672z" fill="url(#linearGradient3715)" stroke="#000" stroke-width=".63624"/>
<path d="m491.63828,657.82983c0-14.42064-31.67865-12.06786-48.00352-12.06786s-29.55877,11.69024-29.55877,26.11089 13.23392,26.11089 29.55877,26.11089 48.00352-25.73327 48.00352-40.15392z" fill="url(#linearGradient3717)" stroke="#000" stroke-width=".58057"/>
<path d="m410.00001,718.07647c-41.12912,44.7115-125.57135,37.88908-147.14286-21.42858-20.26111-55.71428 60-114.96296 60-175.71428s49.47569,11.87621 88.57143,61.42857c63.11826,80 40,90.67725-1.42857,135.71429z" fill="url(#linearGradient3719)" stroke="#000"/>
</g>
<path d="m264.79941,140.44094 118.57154-24.28571c70.26996-14.39263 154.61764,38.88955 157.14285,78.57141l10,157.1428c3.40593,53.52176-156.79753,91.85989-194.2857,85.71429l-174.28583-28.57143c-103.38082-16.94766 43.42649-14.25411 10.00001-45.71429l-72.85714-68.57137c-71.06392-66.88363 105.69927-146.08986 145.71427-154.2857z" fill="url(#linearGradient3721)" stroke="#000"/>
<path d="m514.28572,276.64789c0,29.19219-23.02536,52.85714-51.42857,52.85714s-51.42857-23.66495-51.42857-52.85714 23.02535-52.85715 51.42857-52.85715 51.42857,23.66495 51.42857,52.85715z" fill="#f9f9f9" stroke="#fff" transform="matrix(1.26657,0,0,1.26757,-161.884,-94.5067)"/>
<path d="m397.14286,255.21933c0,22.09139-16.62943,40-37.14286,40s-37.14286-17.90861-37.14286-40 16.62943-40 37.14286-40 37.14286,17.90861 37.14286,40z" fill="#fff" stroke="#fff" transform="matrix(1.71555,0,0,1.4469,-187.76758,-122.16729)"/>
<path d="m205.71429,878.07648c0,18.93547-14.07105,34.28571-31.42857,34.28571s-31.42857-15.35024-31.42857-34.28571 14.07105-34.28572 31.42857-34.28572 31.42857,15.35024 31.42857,34.28572z" fill="#d42aff" stroke="#fff" transform="matrix(1.39797,0,0,1.26757,172.96224,-873.15745)"/>
<path d="m317.14287,738.07648c0,11.04569-8.31471,20-18.57143,20s-18.57143-8.95431-18.57143-20 8.31472-20 18.57143-20 18.57143,8.9543 18.57143,20z" stroke="#fff" transform="matrix(1.26657,0,0,1.26757,37.14818,-695.69751)"/>
<path d="m357.14285,336.64789c0,7.1008-5.75634,12.85714-12.85714,12.85714s-12.85715-5.75634-12.85715-12.85714 5.75634-12.85714 12.85715-12.85714 12.85714,5.75633 12.85714,12.85714z" fill="#fff" stroke="#fff" transform="matrix(.7222,0,0,.86362,173.9023,-68.97621)"/>
<path d="m267.61948,184.10203c0,17.68742-42.58416,41.63368-58.82948,41.63368s-38.23914,11.28224-38.23914-6.40519 13.16942-32.02591 29.41473-32.02591 67.65389-20.89 67.65389-3.20258z" fill="url(#linearGradient3723)" stroke="#fff" stroke-width="1.07424"/>
<path d="m450.62412,724.21757c0,32.99391-30.25181,38.12029-63.44986,38.12029s-56.77094-5.12638-56.77094-38.12029 28.0255-93.87834 61.22356-93.87834 58.99724,60.88442 58.99724,93.87834z" fill="url(#linearGradient3725)" stroke="#000" stroke-width=".78783"/>
<path d="m365.21085,743.55115c0-8.0288-5.55997-31.98239-12.41855-31.98239s-12.41855,23.95359-12.41855,31.98239 5.55998,14.53745 12.41855,14.53745 12.41855-6.50865 12.41855-14.53745z" fill="#deaa87" stroke="#fff" stroke-width=".38397"/>
<path d="m402.93227,749.43986c0-8.0288-5.55997-31.98238-12.41855-31.98238s-12.41855,23.95358-12.41855,31.98238 5.55998,14.53746 12.41855,14.53746 12.41855-6.50865 12.41855-14.53746z" fill="#deaa87" stroke="#fff" stroke-width=".38397"/>
<path d="m440.77955,741.47444c0-8.0288-5.55997-31.98239-12.41855-31.98239s-12.41855,23.95359-12.41855,31.98239 5.55997,14.53745 12.41855,14.53745 12.41855-6.50865 12.41855-14.53745z" fill="#deaa87" stroke="#fff" stroke-width=".38397"/>
<g transform="translate(-6.62913,30.93592)">
<path d="m403.125,546.69257c0,16.17405-125.2335,28.19637-134.95535,16.78571-12.64684-14.84375 83.98088-30.64747 91.60714-44.91071 7.8125-14.61156 16.05852-26.16072 31.04911-26.16072s12.2991,38.11166 12.2991,54.28572z" fill="url(#linearGradient3699)" stroke="#000"/>
<path d="m299.30643,567.06618c0,14.24077-21.11422,13.17189-28.72653,25.04845-29.27657,45.67662-27.71859-9.33424-27.71859-23.57502s16.58509-27.99536 27.71859-27.99536 28.72653,12.28115 28.72653,26.52193z" fill="url(#linearGradient3701)" stroke="#000" stroke-width="1.55989"/>
</g>
<path d="m690.29052,620.32726c0,26.03628-40.3176,91.42856-67.14286,91.42856s-48.57143-21.10657-48.57143-47.14285 21.74617-47.14286 48.57143-47.14286 67.14286-23.17913 67.14286,2.85715z" fill="url(#linearGradient3731)" stroke="#000"/>
</g>
</svg>
