<?xml version="1.0" encoding="UTF-8" standalone="no"?>
<svg height="548.20203" viewBox="0 0 513.106 548.202" width="513.10602" xml:space="preserve" xmlns="http://www.w3.org/2000/svg"><defs></defs>

	<path d="m52.18,83.322c-2.052-4.212-3.204-8.244-3.456-12.24-.396-4.104-.324-9 1.584-11.628 1.872-2.592 5.76-3.348 9.72-3.78 3.888-.576 8.352-.324 13.536.612-1.368-2.448-1.62-4.176-.612-5.328 .936-1.188 3.024-1.62 6.264-1.584 3.132-.036 9.324.396 12.888,1.584 3.456,1.116 6.084,2.664 8.172,5.328s3.312,5.976 4.104,10.368c8.208,2.16 16.092,4.68 24.192,7.56 8.1,2.916 17.532,7.128 23.58,9.432 5.76,2.16 8.424,3.132 11.304,3.456 2.772.18 4.572-1.008 5.976-2.196 1.404-1.332 2.196-2.988 2.52-5.364-1.62-.216-2.772-1.08-3.456-3.132-.72-2.124-1.548-5.976-.936-8.784 .54-2.88 2.412-6.192 4.068-7.56 1.548-1.368 3.132-1.62 5.04-.612l4.104-6.948c-2.52-3.24-3.42-5.832-2.844-8.172 .612-2.34 3.492-5.148 6.3-5.652 2.664-.648 6.408,1.656 9.72,2.196 3.24.576 6.444.756 9.756.936 .828-5.616 2.772-11.16 5.976-16.632 3.132-5.616 7.704-12.168 12.888-16.344 5.076-4.248 14.688-8.856 17.604-8.82 2.808-.036-.036,6.336-.612,8.82-.648,2.34-1.548,2.88-2.844,5.652-1.368,2.772-2.952,6.192-5.04,10.692 6.264-4.824 12.24-8.388 17.928-10.692 5.76-2.376 10.872-3.384 16.02-3.168-3.78,2.412-6.552,5.508-8.172,9.432-1.656,3.888-2.088,9.756-1.872,13.86 .108,3.96.899,7.308 2.52,10.044 8.172-4.932 15.66-8.46 22.608-11.016 6.983-2.52 13.14-3.924 18.864-4.068-6.265,4.32-10.513,8.82-12.889,13.5-2.448,4.644-3.24,10.764-1.26,14.472 1.944,3.564 6.192,5.976 12.888,7.236-4.067,4.212-7.164,8.46-9.72,12.888-2.556,4.248-5.544,8.748-5.364,13.5 .072,4.752 2.305,9.792 6.3,15.12-6.695,3.456-11.52,7.488-14.472,12.24-2.952,4.716-3.312,11.484-3.456,16.02-.359,4.5.216,7.92 1.584,10.692-3.744-.684-7.596-2.088-11.952-4.068-4.319-2.052-8.928-4.824-13.824-8.172-1.116,4.608-2.484,8.172-4.104,10.98-1.692,2.7-3.528,4.536-5.652,5.364 1.188,5.616 2.52,9.936 4.392,13.5 1.872,3.348 5.04,4.644 6.3,7.236 1.044,2.592 1.152,5.22.324,8.172-1.908-2.16-3.492-3.204-5.04-3.132-1.584-.072-2.988.936-4.068,3.456-1.152,2.484-2.088,7.38-2.232,11.916-.18,4.536 1.836,11.34 1.584,15.12-.252,3.564-1.296,5.76-3.132,6.588 .648-3.456.288-5.724-.936-7.236-1.296-1.512-4.608-2.628-6.624-1.548-2.052,1.044-4.86,4.5-5.652,7.848-.828,3.204.864,7.776.612,11.628-.36,3.744-1.296,7.416-2.808,11.016 0-3.996-.684-6.516-2.196-7.56-1.62-1.116-5.076-.144-6.912,1.26-1.944,1.404-3.456,4.032-4.104,6.912-.684,2.736.144,6.804 0,9.432-.324,2.52-.756,4.356-1.584,5.652-.36-2.772-1.368-4.392-3.456-4.716-2.088-.36-4.968.432-8.784,2.52 5.364,2.268 11.412,5.544 18.54,9.972 6.984,4.356 16.236,8.784 23.58,16.344 7.272,7.56 13.932,16.955 20.124,28.619-2.844-2.735-6.156-3.995-10.08-3.779-4.032.252-8.388,1.836-13.5,5.04l17.928,25.128c-3.744-2.772-7.416-4.5-11.016-5.328-3.708-.792-8.064-.504-10.692.324-2.628.647-4.356.792-5.04,3.744-.828,2.88-.72,7.344.324,13.535-1.764-1.872-3.204-3.132-4.716-3.779-1.548-.721-2.772-.828-4.068-.324 1.26,2.664 3.348,4.716 6.264,6.3 2.88,1.548 7.056,2.988 11.016,2.808 3.852-.396 7.848-2.376 12.276-4.68 4.356-2.412 9.936-6.804 13.824-9.144 3.708-2.305 5.292-3.42 8.784-4.716 3.492-1.404 7.344-2.557 11.952-3.456-3.24,3.348-5.185,6.084-5.977,8.495-.827,2.412-.684,4.572 1.261,5.652 1.764.9 4.932,2.196 10.044,0 5.184-2.376 15.443-10.116 20.771-13.5 5.04-3.348 7.2-5.328 10.368-6.912 3.168-1.764 5.4-3.096 8.784-3.456 3.276-.504 6.948-.252 11.016.612-5.544,1.944-9,4.248-10.368,6.912-1.403,2.7-.18,7.164 1.872,8.82 1.872,1.367 5.076,1.871 9.757,0 4.644-1.908 11.771-7.956 17.928-11.341 6.012-3.527 12.78-7.596 18.216-9.432 5.4-1.872 10.26-1.872 14.148-1.548 3.743.324 6.624,1.188 8.495,3.132-4.5,1.404-7.487,2.952-9.107,5.04-1.692,1.908-1.908,5.652-.648,6.912 1.296,1.152 4.248.792 8.172.324 3.889-.54 9.612-2.809 14.797-3.456 5.111-.792 11.304-.937 15.371-.973 3.853-.252 5.148-.288 8.173.324 3.023.576 6.228,1.729 9.756,3.456-3.889,1.296-6.66,2.736-8.172,4.716-1.62,1.8-2.593,3.996-1.261,6.588 1.332,2.557 5.94,6.013 9.108,8.82 3.024,2.664 6.336,4.68 8.82,7.56 2.304,2.845 5.147,6.12 5.328,9.396 .071,3.132-1.261,6.228-4.393,9.432-1.296-3.168-2.664-5.184-4.104-6.048-1.513-1.008-2.376-1.584-4.681.648-2.447,2.16-7.02,6.804-9.432,12.563-2.521,5.796-5.04,15.984-5.04,21.672 .036,5.473 2.088,9.252 5.04,11.341 2.771,1.979 5.868,2.699 11.916.611 6.048-2.304 13.824-6.768 23.904-13.823-1.836-1.98-2.412-4.645-1.872-7.849 .468-3.348 3.06-8.244 5.004-11.628 1.908-3.456 5.04-7.452 6.624-8.496 1.404-1.008 2.268.252 2.195,2.521-.144,2.195-2.987,7.271-2.844,10.368 .145,2.915 1.152,5.327 3.456,7.235l4.392-1.26h.001c.396-3.708 1.403-6.804 3.168-9.432 1.8-2.593 4.859-4.645 7.235-6.301 2.232-1.8 5.292-4.176 6.265-4.067 .899.107-.433,2.844-.937,4.716-.684,1.764-2.771,3.708-2.808,5.976-.072,2.269.756,4.681 2.483,7.524 4.068-.036 7.164.54 9.145,1.584 1.943,1.08 3.204,2.7 2.808,4.716-.396,1.836-1.476,4.86-5.328,6.588-4.14,1.62-13.284,1.62-18.54,3.456-5.184,1.692-6.588,2.484-12.275,7.236-5.725,4.788-12.96,15.696-21.996,21.06-9.252,5.256-24.084,9.54-32.688,10.368-8.64.54-15.659-1.404-18.575-6.264-2.881-4.968.827-15.336.972-22.645 .036-7.271 1.008-17.424-.972-20.735-2.124-3.492-3.456-4.645-11.629.288-8.315,4.932-26.676,19.26-37.728,28.943-11.124,9.648-19.44,19.836-28.26,28.188-8.964,8.244-18.108,15.336-24.517,20.447-6.479,4.788-9.792,6.553-13.536,8.784-3.743,2.196-6.624,3.816-8.783,4.716 .252,3.673-.324,6.66-1.584,9.108-1.404,2.376-3.349,4.212-6.265,5.364-.792,5.976-1.8,11.376-3.168,16.344-1.439,4.824-1.368,8.353-5.04,13.212-3.672,4.896-9.324,10.188-16.956,16.021 4.212-8.389 6.732-15.444 7.848-21.996 1.08-6.48.468-11.988-1.548-16.668-8.244-3.528-16.02-5.832-23.904-6.912-7.884-1.225-15.912-1.116-22.968.324-7.164,1.403-13.284,4.644-19.476,8.46-6.372,3.815-12.06,8.604-17.892,14.22-5.832,5.58-11.448,11.736-16.992,18.864-1.044-7.128-1.296-13.284-.612-18.864 .576-5.652 2.088-10.332 4.392-14.437-10.152,7.992-18.144,15.48-24.516,22.608-6.3,7.128-10.656,13.644-13.212,19.836 1.224-12.168 2.952-21.744 5.328-29.268 2.376-7.561 5.22-12.492 8.82-15.372-10.872,6.012-19.476,11.304-26.1,16.02-6.624,4.608-11.124,8.641-13.5,11.952 1.584-5.724 4.14-11.124 7.524-16.344 3.42-5.328 8.316-10.765 12.888-14.796 4.464-4.068 9.18-7.164 14.148-9.433-8.316-1.907-15.84-4.104-23.256-6.588-7.416-2.592-14.184-5.292-20.736-8.496-6.336,2.34-12.42,6.696-18.252,13.212-5.904,6.517-11.556,15.013-16.956,25.776 .108-7.812.864-14.472 1.872-20.124 1.008-5.76 2.484-10.224 4.428-13.824-7.524,3.349-14.4,7.597-21.06,12.889-6.696,5.292-12.744,11.376-18.576,18.54 2.592-10.261 6.012-18.973 10.404-26.713 4.356-7.703 9.54-14.004 15.696-19.188-11.736,2.664-20.628,5.256-27.36,8.172-6.696,2.88-10.836,5.688-12.564,8.82 4.68-7.992 9.828-14.256 15.732-19.188 5.76-4.896 11.952-7.271 19.152-10.044 7.2-2.88 15.12-5.184 23.904-6.912-5.256-8.1-9-17.712-11.628-29.268-2.7-11.628-4.752-24.408-3.78-39.888 1.008-15.732 4.212-37.225 9.756-52.956 5.472-15.769 15.156-29.017 22.932-40.572 7.704-11.556 15.228-20.844 22.968-28.296-1.044-2.232-1.152-4.32-.324-6.264 .828-2.088 2.736-4.824 5.328-5.688 2.52-.936 5.724-.828 9.756.324 1.008-1.116 2.844-2.736 5.652-4.716 2.844-2.052 6.336-4.608 11.016-7.524-1.152-2.592-1.26-5.004-.324-7.236 1.008-2.268 3.096-5.472 5.976-6.3 2.772-.936 6.084-.576 10.368.936 1.44-1.044 3.024-2.304 5.04-4.068 1.908-1.8 4.104-3.852 6.588-6.3-1.296-2.808-1.548-5.364-.612-7.668 .828-2.448 3.42-4.968 5.976-6.3 2.52-1.296 5.508-1.872 9.108-1.584 3.996-4.428 7.092-9.936 9.432-16.956 2.304-7.128 5.112-17.352 4.392-24.84-1.008-7.596-4.572-14.292-9.432-19.8-4.932-5.508-11.916-10.728-19.152-12.888-7.236-2.196-14.832-1.332-23.904-.324-9.252.792-21.42,2.952-30.816,5.364-9.576,2.304-18.432,6.804-25.452,8.784-7.02,2.016-11.844,3.06-16.02,2.844-4.32-.468-6.912-2.664-9.144-5.04-2.232-2.412-3.636-5.4-4.068-9.108-.468-3.78 0-8.46 1.26-13.212 1.152-4.896 2.988-10.008 5.652-15.732 .108,4.824.9,8.856 2.52,11.952 1.584,3.096 4.356,5.256 6.912,6.624 2.484,1.224 5.004,1.584 7.848.936-1.548-4.284-1.548-8.136 0-11.952 1.512-3.816 4.5-7.38 9.108-10.692-1.26,5.508-1.62,9.936-.936,13.824 .576,3.744 2.196,6.732 4.716,8.82l15.408-.936c-2.196-3.924-2.952-7.344-1.872-10.404 1.044-3.132 3.528-5.616 7.848-7.848-.9,3.24-.9,6.228 0,9.108 .792,2.808 2.52,5.436 5.04,7.884l15.408-1.908c-.9-1.8-1.116-3.636-.648-5.652 .36-2.052 1.404-4.248 3.132-6.588 .324,2.556 1.224,4.752 2.844,6.588 1.62,1.872 3.672,3.24 6.588,4.392l20.772-3.132c-5.4-3.024-11.016-5.688-16.992-7.848-6.048-2.196-12.204-4.032-18.864-5.364-1.8,1.908-3.096,4.068-3.744,6.624-.72,2.52-.828,5.292-.324,8.46-3.312-2.052-5.472-4.716-6.624-7.848-1.152-3.24-1.296-6.912-.288-11.304l-9.144-2.844c-4.14,2.124-7.236,4.644-9.432,7.56-2.196,2.952-3.492,6.012-3.744,9.72-1.872-2.628-2.556-5.616-2.196-9.108 .324-3.564 1.836-7.452 4.392-11.952l-11.012-1.541c-4.356,1.908-7.524,4.68-10.044,8.172-2.448,3.528-4.068,7.776-4.716,12.888-2.7-3.168-3.888-6.732-4.104-10.692-.144-4.032.864-8.388 3.168-13.212-3.06.864-5.832,1.728-8.172,3.132-2.34,1.296-4.392,2.772-6.012,4.572z" fill-rule="evenodd" stroke="#000" stroke-miterlimit="10" stroke-width=".036"></path>
	<path d="m130.804,90.162-42.156-12.924c0,0-16.524-4.356-25.452-3.78-8.928.54-10.296,5.976-10.296,5.976-.756-3.492-1.188-6.444-1.44-9.288s-1.044-5.616 0-7.488c.972-1.908 3.24-3.6 5.688-4.248 2.34-.792 5.328-.54 8.568-.36 3.276.072 6.66.468 10.692,1.044-2.196-2.448-2.484-4.176-.72-5.328 1.764-1.188 7.704-2.088 11.16-1.728 3.384.216 6.372.576 8.964,3.312 2.448,2.772 4.464,6.984 5.904,13.032 17.244,5.292 30.672,9.54 41.112,13.032 10.296,3.384 15.3,6.552 20.448,7.416 5.004.792 7.74-1.188 9.72-2.628 1.908-1.548 2.448-3.636 1.764-6.408 1.62.72 3.348-.54 5.724-3.924 2.268-3.492 4.824-8.82 7.812-16.416-2.664-2.988-4.608-5.832-5.688-8.532-1.188-2.88-2.196-6.264-.936-7.812 1.26-1.584 4.716-1.26 8.424-1.116 3.636.108 7.848.684 13.032,1.872l.504,5.976c5.184,4.284 9.72,5.904 14.04,5.004 4.212-1.044 7.92-4.464 11.268-10.692 2.232.216 4.392.792 6.768,2.124 2.304,1.296 4.68,2.952 7.128,5.364-4.428,2.196-7.704,4.212-9.972,6.048-2.412,1.728-5.868,5.4-3.564,4.644 2.412-.9 11.016-6.336 17.46-9.648 6.192-3.384 14.184-7.308 19.944-9.972 5.688-2.736 9.792-4.428 14.256-6.048 4.392-1.692 8.136-2.952 11.771-3.924-4.031,2.556-6.876,5.04-8.928,7.848-2.052,2.772-2.844,5.616-3.204,8.532-.468,2.7-.828,5.616.72,8.208 1.549,2.52 4.356,4.896 8.568,7.128-9,2.016-16.92,4.392-24.156,7.272-7.308,2.808-19.691,9.504-18.972,9.828 .792.18 15.768-6.012 23.544-8.316 7.596-2.304 14.904-4.212 22.068-5.58-3.276,3.42-5.796,6.84-7.849,10.692-2.088,3.672-4.212,7.452-4.283,11.772-.072,4.248 1.188,8.928 3.924,13.896-8.208-2.34-16.524-3.996-25.345-4.968-8.928-1.044-27.684-1.512-27.396-1.116 .324.288 20.52,1.62 29.196,3.168 8.604,1.404 15.804,3.456 22.14,5.76-4.716,3.744-8.028,7.416-10.332,11.412-2.268,3.96-2.916,7.992-3.204,12.096-.324,3.96-.072,7.884 1.044,11.772-5.436-.936-12.563-4.572-21.384-11.052-8.964-6.588-28.836-25.992-31.716-27.792-2.844-1.728 9.792,12.384 14.58,17.208 4.644,4.716 9,8.316 13.212,10.944-1.512,3.852-3.528,7.272-6.048,10.692-2.556,3.276-4.068,6.408-9.252,9.252-5.328,2.808-20.376,6.624-22.104,7.848-1.728,1.152 6.912.54 11.772-.72 4.788-1.332 10.224-3.708 16.74-7.128 .072,3.096.504,5.652 1.44,8.208 .9,2.376 2.52,4.788 3.888,6.408 1.26,1.404 2.448,1.656 3.564,2.844 .9,1.152 1.62,2.628 2.16,4.284-3.384-.936-5.904-.936-7.848,0-1.98.864-2.844,2.376-3.564,5.364-.864,3.06-1.224,8.46-1.08,12.456 .144,3.924.648,7.308 1.8,10.692-4.932-2.592-8.568-2.7-11.34-.72-2.808,2.052-4.32,8.748-5.076,12.852-.756,3.96-.684,7.38.36,10.692-5.868-2.736-10.044-2.628-12.672.468-2.7,3.06-3.564,8.82-2.988,17.712-3.096-1.476-5.796-1.8-8.244-.828-2.592,1.008-5.688,3.312-6.372,6.516-.648,3.024.18,6.948 2.484,11.772-2.556.324-4.284,1.152-5.328,2.484-1.08,1.332-1.44,3.06-1.08,5.328-4.86-.432-9.504.396-14.22,2.628-4.824,2.196-10.62,5.58-13.932,10.584-3.456,4.968-5.472,11.628-6.048,18.863-.648,7.021-.072,12.42 2.844,23.544 2.916,11.16 12.924,38.7 14.616,42.769 1.512,3.708-2.376-10.008-5.004-19.62-2.772-9.685-9.756-27.108-10.692-37.404-.936-10.26 2.196-18 5.364-23.903 3.132-5.977 7.992-9.288 13.176-11.736 5.184-2.592 11.16-4.356 17.1-3.204 5.724,1.224 10.584,4.536 17.1,10.332 6.408,5.652 15.3,16.452 21.384,23.508 6.084,6.948 10.764,12.708 14.616,17.82-5.4-2.305-9.612-3.204-13.176-2.845-3.6.396-6.444,2.377-7.848,4.969-1.512,2.447-1.62,5.616-.72,9.647-5.868-3.708-11.52-8.928-17.352-15.947-5.904-7.164-16.452-25.776-17.208-26.101-.684-.18 7.848,16.956 13.104,24.336 5.184,7.164 11.052,13.176 17.892,18.433-4.788-1.872-8.424-2.341-11.052-1.801-2.7.576-3.78,2.412-4.608,5.364-.792,2.88-1.008,6.66-.36,11.736-4.14-4.824-8.172-10.044-12.492-15.66-4.356-5.796-13.14-18.937-13.176-18.18 0,.828 8.352,16.775 12.816,23.147 4.32,6.3 8.676,11.124 13.212,14.616-5.904-.828-10.476-.18-13.572,1.8-3.24,1.836-4.968,5.112-5.328,9.972-.396,4.933.72,11.053 3.204,19.045-1.188-7.633-1.548-13.572-1.08-17.82 .468-4.356 1.584-6.084 3.924-7.813 2.34-1.836 6.156-2.771 9.648-2.52 3.384.144 6.696,1.584 10.332,3.924-1.872-3.348-3.132-6.552-3.924-9.612-.9-3.275-1.188-6.443-.72-8.928 .468-2.448 2.124-4.32 3.564-5.328 1.368-1.08 2.916-1.439 4.644-1.08 .36,3.601 1.368,6.408 3.564,8.568 2.124,2.16 5.364,3.492 8.892,4.284 3.312.72 6.66,1.368 11.412,0 4.788-1.584 11.988-6.229 16.74-8.928 4.572-2.845 6.912-5.221 10.332-7.129 3.24-1.979 6.336-3.312 9.288-4.283-3.24,6.372-3.815,10.512-1.584,12.708 2.16,2.088 9.396,1.907 14.76.144 5.364-1.979 12.313-7.884 17.101-11.052 4.607-3.097 6.731-5.4 10.691-7.488 3.816-2.124 8.028-3.96 12.492-5.364-3.275,4.248-4.68,7.633-4.212,10.729 .432,2.916 2.592,7.2 6.912,7.164 4.355-.145 12.384-4.32 18.684-7.524 6.12-3.312 12.42-9.18 17.784-11.771 5.22-2.736 9.468-3.349 13.572-3.925 4.032-.611 7.596-.539 10.691.36-4.932,2.7-7.812,5.148-8.928,7.488-1.08,2.34.072,5.22 2.484,6.408 2.268,1.044 6.12.575 11.412,0 5.22-.792 14.147-3.349 19.979-3.925 5.688-.539 10.765.396 14.256.721 3.349.288 5.364.396 6.049.72-3.492,2.232-5.58,4.392-6.408,6.768-.864,2.305-.864,4.177 1.403,7.128 2.16,2.916 8.353,7.021 11.772,9.973 3.24,2.736 6.479,4.859 8.208,6.768 1.656,1.836 1.764,2.916 2.124,4.645 .252,1.656.18,3.384-.36,5.328-1.584-3.097-3.312-4.465-5.328-4.645-2.052-.18-4.212,1.26-6.768,3.924-2.771,2.664-6.444,6.732-8.928,11.772-2.557,5.004-4.933,11.916-5.328,17.819-.396,5.761.54,13.141 3.204,16.74 2.628,3.349 7.848,4.5 12.456,4.284 4.536-.288 9.504-2.664 14.615-5.328 5.04-2.771 9.973-6.191 15.336-10.691 3.276.432 5.94-.036 7.992-1.261 1.98-1.224 3.349-3.348 4.104-6.228l3.924-.72c.684,2.951 1.836,4.535 3.456,5.147 1.584.433 3.924-.899 5.904-2.052 1.908-1.224 3.527-2.808 5.256-4.896 3.6-.18 6.228.396 7.488,1.44 1.296,1.008 2.34,3.6.359,5.004-2.195,1.26-8.027,2.052-12.492,3.204-4.607,1.116-9.611,1.152-13.896,3.564-4.248,2.34-6.336,5.688-11.412,10.331-5.256,4.608-12.528,12.673-19.584,17.101-7.128,4.284-15.264,7.271-22.464,8.568-7.344,1.224-16.776,1.115-20.664-1.44-3.888-2.772-2.448-9.54-2.484-14.616-.252-5.147 1.908-10.332 1.765-15.695-.252-5.545-1.08-12.996-2.484-16.381-1.476-3.42-3.096-3.636-5.688-3.563-2.628-.072-3.852.396-9.647,3.924-5.868,3.6-14.004,9.288-24.948,17.46 2.88-5.544 4.068-9.936 3.564-13.176-.612-3.276-2.736-6.012-6.769-6.408-4.176-.504-9.071-.54-17.46,3.924-8.496,4.5-19.224,11.916-32.76,22.788-.36-4.5-2.34-8.604-6.084-12.456-3.816-3.96-9.145-7.38-16.38-10.691 1.548-3.42 1.62-7.345.359-11.772-1.476-4.572-5.004-10.584-8.208-14.976-3.275-4.393-6.659-8.028-10.691-11.053 3.456,5.94 5.904,11.593 7.488,17.101 1.512,5.472 2.159,10.655 1.8,15.695-6.336-3.527-14.292-6.516-24.264-9.252-10.188-2.771-25.02-7.163-35.172-6.911-10.152.216-19.548,3.779-24.696,8.315-5.112,4.464-5.76,10.8-5.688,18.18 0,7.345 1.44,15.444 5.688,25.128 4.248,9.576 10.44,20.124 19.26,32.076-9.576,4.429-19.26,7.164-29.592,8.208-10.512.937-21.996-.288-32.076-2.16-10.08-1.979-19.152-4.932-27.792-9.252 3.456.648 6.516.576 9.576.181 2.988-.504 5.688-1.513 8.244-3.024-5.328.36-11.304-1.404-18.216-5.147-6.984-3.853-14.508-9.648-23.112-17.677 .36-3.023 2.124-5.724 5.724-8.64 3.528-2.88 8.496-5.652 15.3-8.46-5.328-1.944-10.548-2.772-16.056-2.484-5.508.252-11.088,1.513-16.74,3.925-2.412-2.341-4.104-4.465-5.22-6.517-1.188-2.052-1.656-3.924-1.548-5.616 3.672-1.907 9.504-3.744 18.18-5.363 8.64-1.729 24.12-2.017 33.12-4.608 8.856-2.736 16.632-5.724 19.98-11.052 3.132-5.4 2.7-12.313-.72-21.024-3.6-8.855-12.06-21.996-19.944-31.355-7.92-9.396-19.728-21.061-27.108-24.588-7.56-3.601-14.004-.864-17.1,3.203-3.132,4.068-3.024,12.996-1.08,20.664 1.944,7.524 7.272,16.992 12.492,24.229 5.112,7.2 11.124,13.248 18.18,18.54-8.748,1.512-16.416,3.275-23.544,5.688-7.128,2.269-13.284,5.004-18.864,8.208-1.26-7.884-1.764-15.12-1.8-22.104 .036-7.092 2.16-13.896 1.8-19.584-.504-5.796-1.548-11.196-4.644-14.256-3.276-2.988-7.848-4.429-14.256-3.925 2.592-5.939 6.228-12.42 11.052-19.979 4.824-7.704 12.708-18.432 17.82-24.948 5.004-6.479 9-10.944 12.132-13.536 1.008,3.924 4.572,7.2 10.692,10.512 6.156,3.096 14.724,6.084 25.992,8.568-8.46-5.651-14.544-10.224-18.54-14.256-4.068-4.14-4.5-6.696-5.328-9.612-.828-2.88-.9-5.508.36-7.488 1.152-2.016 3.456-2.592 6.768-4.644 3.276-2.232 7.452-5.076 12.816-8.532 2.808,4.896 7.632,8.388 14.616,10.332 7.02,1.944 15.876,2.412 27.108,1.404-11.016-3.312-19.008-6.3-24.264-9.252-5.22-3.024-6.768-5.94-7.128-8.208-.54-2.34 2.232-3.42 4.284-5.328 1.872-1.944 5.148-4.356 7.452-6.12 2.268-1.8 4.248-3.276 6.084-4.572 2.664,3.564 5.148,6.336 7.848,8.172 2.664,1.8 3.852,2.664 7.848,2.88 3.852.18 8.964-.468 15.336-1.8-7.128-1.548-12.6-3.528-16.416-6.229-3.96-2.736-6.408-6.876-6.768-9.792-.432-2.952 2.592-4.968 4.644-7.848 1.98-3.024 4.608-1.512 7.488-9.612 2.808-8.244 10.08-28.404 9.468-38.952-.684-10.548-7.488-18.108-13.32-23.796-6.048-5.76-13.32-9.288-21.96-10.728-8.604-1.512-17.64-.504-29.448,1.476-12.096,1.872-31.644,6.876-41.688,9.612-10.08,2.592-13.248,5.4-17.82,6.084-4.572.54-6.876-.252-9.252-2.52-2.448-2.34-4.716-6.3-5.004-11.052-.36-4.824.54-10.512 2.844-17.46 .648,4.284 2.556,7.56 5.724,9.972 3.132,2.376 6.048,4.032 13.176,4.284 7.128,0 18.396-1.944 29.232-3.204 10.692-1.26 23.76-2.52 34.92-3.924 11.124-1.44 21.384-2.772 31.356-4.284l-37.543-14.726z" fill="#585406" fill-rule="evenodd"></path>
	<path d="m80.008,59.346c-.648,2.412 2.448,5.364 6.912,6.552 4.464,1.152 8.604.144 9.252-2.304 .648-2.412-2.448-5.364-6.912-6.516-4.464-1.188-8.604-.18-9.252,2.268z" fill-rule="evenodd" stroke="#000" stroke-miterlimit="10" stroke-width=".036"></path>
	<path d="m83.212,60.462c-.468,1.764 1.764,3.888 4.968,4.716 3.24.864 6.228.108 6.66-1.62 .468-1.764-1.764-3.888-4.968-4.716-3.204-.864-6.192-.144-6.66,1.62z" fill="#77605b" fill-rule="evenodd" stroke="#000" stroke-miterlimit="10" stroke-width=".036"></path>
	<path d="m69.46,76.302c-1.584,1.26-2.628,2.916-3.42,5.112-.828,2.196-1.26,5.4-1.152,7.812 .072,2.196.648,4.14 1.728,5.688 .54-4.14 1.692-7.524 3.6-10.44 1.872-2.952 4.356-5.184 7.596-6.84-2.772-.432-5.544-.864-8.352-1.332z" fill="#fff" fill-rule="evenodd" stroke="#000" stroke-miterlimit="10" stroke-width=".036"></path>
	<path d="m95.092,81.594c-1.764,1.512-3.024,3.528-3.78,5.904-.828,2.376-1.152,5.112-.972,8.352 .612-2.88 1.836-5.22 3.816-7.416 1.944-2.196 4.608-4.032 7.992-5.508-2.34-.432-4.68-.864-7.056-1.332z" fill="#fff" fill-rule="evenodd" stroke="#000" stroke-miterlimit="10" stroke-width=".036"></path>
	<path d="m115.612,87.678c-1.152,1.8-1.476,3.708-1.116,6.264 .288,2.412 1.404,5.256 3.204,8.388 .144-3.096.72-5.58 1.332-7.596 .72-2.088 1.476-3.564 2.664-4.572-2.016-.828-4.032-1.656-6.084-2.484z" fill="#fff" fill-rule="evenodd" stroke="#000" stroke-miterlimit="10" stroke-width=".036"></path>
	<path d="m130.624,107.838c-1.008-.828-1.476-1.8-1.692-3.06-.216-1.368-.036-2.736.54-4.536 .612,1.692 1.368,3.096 2.664,4.356 1.224,1.188 2.7,2.088 4.572,2.844-2.016.108-4.032.252-6.084.396z" fill="#fff" fill-rule="evenodd" stroke="#000" stroke-miterlimit="10" stroke-width=".036"></path>
	<path d="m111.256,110.466c-2.664-2.052-4.5-4.212-5.508-6.624-1.08-2.448-1.332-5.004-.756-7.812-2.448,1.116-3.708,2.844-4.176,5.328-.36,2.448.072,5.616 1.692,9.504 2.916-.108 5.832-.252 8.748-.396z" fill="#fff" fill-rule="evenodd" stroke="#000" stroke-miterlimit="10" stroke-width=".036"></path>
	<path d="m81.988,112.77c-1.728-2.664-2.844-5.688-3.204-8.928-.432-3.348-.18-6.804.756-10.656-3.06,2.88-4.968,5.796-5.724,9.144-.828,3.312-.504,6.66.972,10.44h7.2z" fill="#fff" fill-rule="evenodd" stroke="#000" stroke-miterlimit="10" stroke-width=".036"></path>
	<path d="m197.476,73.062c2.088,1.476 4.608,2.484 7.416,3.024 2.88.468 5.868.468 9.504,0-.864,7.128-2.592,12.312-5.328,15.984-2.844,3.492-7.632,6.3-11.016,5.508-3.384-.9-7.992-5.58-9.108-10.44-1.224-5.04.72-14.688 2.088-18.828 1.224-4.14 2.016-4.932 5.868-5.688 3.816-.828 12.132.648 17.316.936 5.184.18 9.648.36 13.68.396-1.404,2.988-2.232,5.76-2.484,8.172-.324,2.412-.072,4.608.756,6.444-4.608-3.204-9.468-5.796-14.436-7.776-5.04-2.052-10.188-3.348-15.588-4.176-1.98,2.988-3.24,6.012-3.78,9.468-.54,3.42-.324,7.668.36,10.656 .504,2.808 1.656,4.788 3.06,6.084 1.368,1.224 3.024,1.404 5.112.936-1.224-1.44-1.836-3.42-1.692-6.084 .144-2.7.864-5.94 2.448-9.864-2.592-1.08-3.996-2.124-4.752-2.844-.684-.864-.54-1.404.576-1.908z" fill-rule="evenodd" stroke="#000" stroke-miterlimit="10" stroke-width=".036"></path>
	<path d="m223.9,66.042c-.792,1.332-1.188,2.448-1.332,3.78-.18,1.188-.108,2.448.36,3.636-6.012-2.88-11.088-4.932-15.372-6.3-4.32-1.404-7.74-1.98-10.26-1.872 1.98-.468 5.256-.792 9.684-.576 4.5.036 10.008.612 16.92,1.332z" fill="#585406" fill-rule="evenodd" stroke="#000" stroke-miterlimit="10" stroke-width=".036"></path>
	<path d="m202.984,78.174c-1.008,2.052-1.62,4.284-1.692,6.84s.252,5.256 1.116,8.388l3.996-2.664c-1.44-1.44-2.304-2.772-2.448-4.392-.216-1.62 0-3.924 1.332-5.112 1.332-1.26 3.348-2.016 6.444-2.268-2.628.072-4.608.072-6.084,0-1.44-.18-2.376-.396-2.664-.792z" fill="#fff" fill-rule="evenodd" stroke="#000" stroke-miterlimit="10" stroke-width=".036"></path>
	<path d="m174.112,60.894c-2.16,2.016-3.456,4.104-4.176,6.264-.792,2.196-.468,4.968 0,6.66 .324,1.512 1.8,2.592 2.484,2.844 .612.252 1.08-.288 1.404-1.476-.72-.9-1.044-1.944-.828-3.276 .18-1.44 1.044-3.672 2.016-4.752 .9-1.152 2.088-1.692 3.564-1.764 .072-.18-.324-.468-1.044-1.26s-1.908-1.872-3.42-3.24z" fill="#fff" fill-rule="evenodd" stroke="#000" stroke-miterlimit="10" stroke-width=".036"></path>
	<path d="m181.348,54.27-3.816,6.084 5.148,5.688 3.204-5.328c-1.296-1.116-2.304-2.196-3.024-3.24-.792-1.152-1.296-2.088-1.512-3.204z" fill="#585406" fill-rule="evenodd" stroke="#000" stroke-miterlimit="10" stroke-width=".036"></path>
	<path d="m206.224,49.23c-1.188-2.592-1.116-6.156.36-10.836 1.44-4.824 5.076-12.348 8.388-17.28 3.168-5.004 7.164-9.108 11.016-12.168 3.816-3.132 10.44-7.02 11.952-6.264 1.368.792-1.656,6.66-3.24,10.656-1.728,3.816-5.076,7.344-6.444,12.528-1.332,5.076-1.944,10.98-1.692,17.856-1.188,2.772-2.952,4.86-5.148,6.264-2.268,1.368-5.688,2.196-8.172,2.088-2.628-.144-4.824-1.044-7.02-2.844z" fill="#77605b" fill-rule="evenodd" stroke="#000" stroke-miterlimit="10" stroke-width=".036"></path>
	<path d="m228.652,41.814c-.288-3.96-.324-7.128.18-9.504 .468-2.484 1.188-3.996 2.448-4.932 3.204-2.808 7.02-5.184 11.592-7.416 4.536-2.232 9.684-4.14 15.588-5.868-2.484,4.14-4.104,7.884-5.148,11.376-1.08,3.456-1.296,5.868-.936,9.324 .324,3.42 1.224,6.732 2.844,10.62l-10.26,4.752c-3.744-3.384-6.732-5.58-9.504-7.02-2.736-1.44-5.004-1.836-6.804-1.332z" fill="#585406" fill-rule="evenodd" stroke="#000" stroke-miterlimit="10" stroke-width=".036"></path>
	<path d="m230.74,176.274c-.72-1.08-8.856-.612-13.32-1.512-4.644-1.08-10.332-4.32-13.86-4.176-3.564.18-7.308,3.096-7.2,5.148 .036,2.016 3.312,5.652 7.596,6.624 4.284.756 13.032-.54 17.64-1.512 4.428-1.116 9.792-3.564 9.144-4.572z" fill-rule="evenodd" stroke="#000" stroke-miterlimit="10" stroke-width=".036"></path>
	<path d="m228.256,177.246c1.368-.612-6.912-.576-10.26-1.152s-9.504-3.204-12.708-3.78-5.076,1.008-6.3,1.872c-1.152.9-.828,3.204.972,4.392 1.8,1.152 5.508,2.736 10.044,2.448 0,0 3.78.108 7.992-.936 4.248-1.044 8.82-2.232 10.26-2.844z" fill="#77605b" fill-rule="evenodd" stroke="#000" stroke-miterlimit="10" stroke-width=".036"></path>
	<path d="m215.908,198.522c-.792-1.08-8.784-.612-13.284-1.512-4.644-1.08-10.332-4.32-13.86-4.176-3.636.216-7.344,3.024-7.236,5.112 .036,1.98 3.312,5.724 7.596,6.66 4.32.756 12.996-.504 17.676-1.548 4.464-1.152 9.72-3.492 9.108-4.536z" fill-rule="evenodd" stroke="#000" stroke-miterlimit="10" stroke-width=".036"></path>
	<path d="m213.424,199.458c1.368-.612-6.876-.576-10.224-1.116-3.384-.612-9.54-3.24-12.744-3.816s-5.076,1.044-6.264,1.908-.828,3.168.936,4.356c1.8,1.188 5.544,2.736 10.08,2.484 0,0 3.744.072 7.992-.972 4.212-1.044 8.784-2.232 10.224-2.844z" fill="#77605b" fill-rule="evenodd" stroke="#000" stroke-miterlimit="10" stroke-width=".036"></path>
	<path d="m299.536,350.01c-.252,1.62 5.976,10.225 8.676,16.236 2.628,5.832 4.32,14.904 7.164,18.9 2.771,3.815 7.632,5.867 9.144,4.355 1.368-1.764 1.729-8.063-.72-13.607-2.628-5.58-10.08-14.58-14.184-18.937-4.177-4.319-9.757-8.531-10.08-6.947z" fill-rule="evenodd" stroke="#000" stroke-miterlimit="10" stroke-width=".036"></path>
	<path d="m302.056,352.098c-1.476-1.079 4.68,8.28 6.732,12.528s4.644,13.212 6.588,17.28 4.5,5.004 6.048,5.688c1.512.685 2.952-1.403 2.52-4.319-.468-2.952-2.052-8.353-5.615-13.284 0,0-2.7-4.356-6.588-8.353-3.889-4.032-8.174-8.352-9.685-9.54z" fill="#77605b" fill-rule="evenodd" stroke="#000" stroke-miterlimit="10" stroke-width=".036"></path>
	<path d="m159.748,261.774c-.54-1.26-8.244-2.88-12.42-5.004-4.212-2.268-8.856-6.876-12.276-7.704-3.492-.792-7.884,1.008-8.316,3.024-.432,1.908 1.656,6.336 5.58,8.424 3.888,1.908 12.744,2.988 17.424,3.24 4.608.144 10.26-.792 10.008-1.98z" fill-rule="evenodd" stroke="#000" stroke-miterlimit="10" stroke-width=".036"></path>
	<path d="m157.12,262.026c1.476-.216-6.516-2.376-9.612-3.816-3.06-1.44-8.316-5.616-11.232-7.02-2.952-1.404-5.184-.36-6.552.144-1.368.54-1.656,2.844-.252,4.464 1.44,1.62 4.608,4.14 9.036,5.076 0,0 3.6,1.08 7.956,1.188s9.072.18 10.656-.036z" fill="#77605b" fill-rule="evenodd" stroke="#000" stroke-miterlimit="10" stroke-width=".036"></path>
	<path d="m145.456,221.814c-1.512-1.116-3.168-1.62-4.968-1.512-1.944-.072-4.608.612-6.048,1.908-1.512,1.404-2.772,3.816-2.664,6.264 .036,2.34.828,5.004 3.204,7.596 2.34,2.484 5.868,5.4 11.016,7.236 5.112,1.692 11.448,2.7 19.404,3.024-6.876-2.052-12.276-4.14-16.344-6.264-4.14-2.196-6.768-4.464-8.172-6.66-1.44-2.34-.792-4.896 0-6.84 .756-2.052 2.232-3.456 4.572-4.752z" fill="#77605b" fill-rule="evenodd" stroke="#000" stroke-miterlimit="10" stroke-width=".036"></path>
	<path d="m172.24,195.426c-1.98,1.692-3.492,3.528-4.392,5.508-1.044,1.908-1.44,3.888-1.332,6.084 .144,2.088.468,4.932 2.088,7.02 1.512,2.088 4.464,3.816 7.056,5.328 2.448,1.512 5.04,2.52 7.776,3.42-2.988.54-5.94.468-8.568-.216-2.772-.864-5.256-1.98-7.596-4.176-2.448-2.232-5.292-5.832-6.444-8.712-1.116-2.952-1.764-6.66-.576-8.748 1.08-2.268 4.752-3.24 6.84-4.176 2.016-.936 3.636-1.332 5.148-1.332z" fill="#77605b" fill-rule="evenodd" stroke="#000" stroke-miterlimit="10" stroke-width=".036"></path>
	<path d="m110.284,246.33c-.972,1.98-1.332,4.32-.936,7.02 .288,2.7 1.296,5.868 3.024,8.928 1.62,2.88 4.536,6.192 7.236,8.568 2.736,2.413 5.616,4.068 8.928,5.508-5.652-1.98-10.224-3.744-14.256-5.725-4.068-1.908-7.38-3.672-9.504-5.868-2.124-2.34-2.736-5.22-3.204-7.812-.684-2.592-.936-5.904-.216-7.596 .684-1.836 3.24-2.52 4.752-3.024 1.548-.503 2.808-.503 4.176.001z" fill="#77605b" fill-rule="evenodd" stroke="#000" stroke-miterlimit="10" stroke-width=".036"></path>
	<path d="m192.544,250.326c.468,2.124 1.152,4.284 1.908,6.624 .72,2.268 1.656,4.572 2.664,7.056-2.34-1.548-4.032-1.944-5.508-1.332-1.476.54-2.448,2.232-3.06,4.932 4.752.864 9.252,2.556 13.5,4.932 4.248,2.268 7.128,4.536 11.952,9.324 4.716,4.859 10.224,11.124 16.524,19.368 3.924-2.952 7.344-4.788 10.656-5.509 3.204-.72 6.12-.54 8.748.937-6.012-8.532-11.376-15.444-16.524-20.88-5.184-5.508-7.236-7.38-14.076-11.592-6.912-4.356-15.66-8.784-26.784-13.86z" fill="#585406" fill-rule="evenodd" stroke="#000" stroke-miterlimit="10" stroke-width=".036"></path>
	<path d="m325.852,342.811c-.359,1.439 4.032,9.72 5.832,15.407 1.584,5.58 2.232,13.717 4.176,17.604 1.944,3.744 6.156,6.084 7.633,4.932 1.439-1.332 2.447-7.056.936-12.168-1.692-5.328-7.236-14.076-10.404-18.468-3.277-4.391-7.67-8.676-8.173-7.307z" fill-rule="evenodd" stroke="#000" stroke-miterlimit="10" stroke-width=".036"></path>
	<path d="m327.832,344.935c-1.152-1.116 3.204,7.884 4.536,11.88 1.367,4.031 2.628,12.312 3.888,16.164 1.26,3.815 3.42,4.932 4.68,5.724 1.296.792 2.809-.9 2.772-3.564-.072-2.628-.864-7.632-3.456-12.42 0,0-1.908-4.176-4.896-8.208-2.988-3.997-6.3-8.317-7.524-9.576z" fill="#77605b" fill-rule="evenodd" stroke="#000" stroke-miterlimit="10" stroke-width=".036"></path>
	<path d="m354.472,339.498c-.576,1.188 2.088,8.748 2.736,13.788 .647,4.896-.216,11.88 1.008,15.408 1.116,3.456 4.212,5.939 5.688,5.22 1.368-.9 3.097-5.616 2.557-10.116-.685-4.644-4.176-12.852-6.156-16.991-2.089-4.141-5.329-8.389-5.833-7.309z" fill-rule="evenodd" stroke="#000" stroke-miterlimit="10" stroke-width=".036"></path>
	<path d="m355.876,341.586c-.828-1.116 1.548,7.092 2.124,10.62 .54,3.601.432,10.729.936,14.112 .504,3.42 2.196,4.68 3.132,5.508 .973.864 2.484-.36 2.845-2.592 .323-2.232.359-6.553-1.152-10.944 0,0-1.008-3.78-2.952-7.596-1.945-3.816-4.105-7.883-4.933-9.108z" fill="#77605b" fill-rule="evenodd" stroke="#000" stroke-miterlimit="10" stroke-width=".036"></path>
	<path d="m381.508,338.418c-.648.9.504,7.92.396,12.313-.252,4.248-1.8,10.296-1.296,13.428 .505,3.023 2.772,5.76 4.177,5.292 1.26-.54 3.491-4.392 3.636-8.353 .072-4.176-1.872-11.663-2.916-15.516-1.261-3.816-3.385-8.1-3.997-7.164z" fill-rule="evenodd" stroke="#000" stroke-miterlimit="10" stroke-width=".036"></path>
	<path d="m382.408,340.435c-.54-1.08.359,6.336.323,9.468-.035,3.168-1.115,9.288-1.151,12.312s1.224,4.32 1.908,5.221c.72.827 2.231,0 2.808-1.872 .612-1.872 1.26-5.616.576-9.612 0,0-.324-3.384-1.477-6.948-1.151-3.566-2.412-7.418-2.987-8.569z" fill="#77605b" fill-rule="evenodd" stroke="#000" stroke-miterlimit="10" stroke-width=".036"></path>
	<path d="m405.376,342.738c-.648.504-.9,6.228-1.729,9.54-.899,3.312-3.096,7.523-3.239,10.116-.145,2.483 1.151,4.859 2.34,4.787 1.116-.287 3.348-2.735 4.176-5.831 .72-3.133.504-9.36.324-12.456-.36-3.204-1.26-6.732-1.872-6.156z" fill-rule="evenodd" stroke="#000" stroke-miterlimit="10" stroke-width=".036"></path>
	<path d="m405.7,344.43c-.217-.936-.757,4.933-1.297,7.345-.539,2.447-2.411,6.983-2.915,9.288-.54,2.304.216,3.527.611,4.319s1.692.396 2.484-.972c.756-1.332 1.872-4.104 2.016-7.308 0,0 .288-2.664 0-5.58-.287-2.952-.647-6.12-.899-7.092z" fill="#77605b" fill-rule="evenodd" stroke="#000" stroke-miterlimit="10" stroke-width=".036"></path>
	<path d="m480.328,390.618c-.504,1.62-1.584,2.736-3.24,3.636-1.656.756-3.924,1.296-6.66,1.332-1.26-2.16-1.656-4.536-1.332-7.416 .36-3.023 1.872-6.804 3.42-9.684 1.44-2.844 4.176-6.444 5.148-7.057 .792-.72.54,1.656.359,3.24-.18,1.512-1.224,4.428-1.332,6.265-.216,1.764-.071,2.915.576,4.571 .613,1.621 1.585,3.277 3.061,5.113z" fill="#77605b" fill-rule="evenodd" stroke="#000" stroke-miterlimit="10" stroke-width=".036"></path>
	<path d="m488.104,387.414c.468,2.304 1.152,3.888 1.908,4.752 .72.864 1.008.972 2.664.18 1.548-1.008 3.816-2.664 6.804-5.508-1.115-2.556-1.872-4.752-2.268-6.443-.468-1.801-.72-2.629-.18-3.996 .504-1.549 3.06-3.816 3.239-4.572 0-.9-1.62-1.044-3.06,0-1.656,1.152-4.068,4.32-5.688,6.444-1.655,1.872-2.844,3.636-3.42,5.147-.611,1.584-.611,2.736.001,3.996z" fill="#77605b" fill-rule="evenodd" stroke="#000" stroke-miterlimit="10" stroke-width=".036"></path>
	<path d="m281.607,386.154c.612-3.204.433-7.021-.54-11.448-1.044-4.5-2.771-9.54-5.327-15.264 3.456,4.14 6.228,7.92 8.315,11.34s3.384,6.012 4.032,9.144c.504,3.097.468,6.12-.504,9.36-1.979-1.044-3.959-2.088-5.976-3.132z" fill="#77605b" fill-rule="evenodd" stroke="#000" stroke-miterlimit="10" stroke-width=".036"></path>
	<path d="m57.904,322.47c3.348-.72 6.228-.863 8.64-.288 2.448.54 4.32,1.513 5.76,3.456 1.26,1.765 1.656,4.068 2.016,7.488 .144,3.456-.144,8.388-.288,12.708-.18,4.176-.324,8.208-.288,12.096-.072,3.744.072,6.732.288,10.368 .216,3.601.648,7.128 1.152,10.98-3.708,1.656-6.444,3.672-8.352,6.336-1.944,2.52-2.952,4.392-2.88,9.216 .036,4.86.396,11.448 3.456,19.62s10.224,21.348 14.4,28.836c3.888,7.2 5.868,10.296 9.828,14.688 4.032,4.428 8.64,8.136 14.112,11.52-2.88-4.176-5.04-8.208-6.624-12.096-1.584-4.032-2.592-7.74-2.88-11.521 3.96,6.912 8.28,12.24 13.248,16.128 4.932,3.889 10.224,6.048 16.164,6.912-7.02-6.948-11.988-12.852-15.3-17.855-3.312-5.04-4.752-9.036-4.32-12.133 3.168,2.881 6.192,5.292 9.216,7.236 2.988,1.908 5.832,3.348 8.676,4.32 3.888,3.6 8.928,6.336 15.264,8.64 6.3,2.16 14.724,3.744 22.5,4.608 7.704.72 14.472,1.368 23.616,0 9.18-1.44 19.188-4.32 30.852-8.641 3.024,2.484 5.76,4.788 8.352,7.2 2.556,2.34 4.824,4.645 6.948,6.912-9.612-1.692-18.9-2.7-28.26-2.88-9.504-.252-19.512.18-27.684,1.44-8.172,1.188-13.248,2.088-21.06,5.76-7.848,3.563-16.488,8.712-25.92,15.588-13.536-2.844-24.696-6.588-34.02-11.232-9.288-4.752-15.3-9.684-21.636-16.739-6.48-7.272-12.744-16.057-16.992-25.668-4.32-9.757-7.164-20.7-8.676-31.429-1.656-10.764-1.296-22.716-.864-32.256 .36-9.576 1.512-16.596 3.456-24.804 1.908-8.314 4.608-16.306 8.1-24.514z" fill="#77605b" fill-rule="evenodd" stroke="#000" stroke-miterlimit="10" stroke-width=".036"></path>
	<path d="m115.828,407.25c-4.104-1.116-8.568-1.116-13.248,0-4.824,1.008-9.648,3.168-15.012,6.336-1.26,3.061-.972,5.652.864,7.776 1.728,2.088 5.004,3.672 9.828,4.896-.108-3.204 1.332-6.372 4.32-9.504 2.88-3.204 7.344-6.372 13.248-9.504z" fill="#77605b" fill-rule="evenodd" stroke="#000" stroke-miterlimit="10" stroke-width=".036"></path>
	<path d="m251.62,493.578c2.232,3.132 3.816,7.02 4.608,11.52 .828,4.536.973,10.656.288,15.589-.72,4.859-2.484,9.323-4.896,13.535 4.5-4.68 8.1-9.575 10.944-14.976 2.845-5.472 4.645-12.168 5.796-17.316 .973-5.184 1.297-9.647.576-13.535-2.664-2.448-5.22-3.744-7.812-4.032-2.664-.324-6.228.72-7.776,2.304-1.62,1.511-2.196,3.815-1.728,6.911z" fill="#77605b" fill-rule="evenodd" stroke="#000" stroke-miterlimit="10" stroke-width=".036"></path>
	<path d="m59.344,449.19c2.196,3.744 5.22,7.632 8.928,11.808 3.744,4.176 8.064,8.352 13.248,12.96-6.588,2.521-12.312,6.229-17.568,11.556-5.256,5.292-9.648,11.772-13.572,19.872 .864-6.983 2.052-12.743 3.168-17.279 1.116-4.645 2.376-7.885 3.78-10.116-3.42-.756-8.136.647-14.436,4.644-6.3,3.889-13.932,10.08-23.04,18.721 3.06-8.316 6.804-15.336 11.52-21.601 4.644-6.228 10.116-11.376 16.416-15.588-4.5-.936-9.972-.36-16.704,1.44-6.84,1.8-14.544,4.968-23.652,9.504 4.932-5.004 9.756-9.036 15.012-12.384 5.112-3.421 9.612-5.221 15.84-7.488 6.192-2.377 13.032-4.213 21.06-6.049z" fill="#585406" fill-rule="evenodd" stroke="#000" stroke-miterlimit="10" stroke-width=".036"></path>
	<path d="m98.26,522.126c.648-4.355 4.392-9.504 11.232-15.588 6.912-6.264 20.196-15.264 29.7-21.024 9.288-5.796 14.796-10.26 25.956-12.995 11.232-2.7 28.944-3.204 40.356-3.169 11.196-.035 19.944,1.297 26.532,2.881 6.552,1.512 11.376,5.976 12.384,5.76 .792-.504-2.628-3.888-6.912-8.064-4.32-4.248-12.888-9.863-18.756-16.704-6.048-6.947-11.988-15.479-16.416-24.228-4.536-8.964-8.964-20.196-9.828-28.26-.9-8.064.468-14.868 4.932-19.584 4.536-4.752 12.996-8.244 21.888-8.676 8.82-.505 21.42,3.563 30.564,5.796 9,2.124 16.092,4.248 23.364,7.199 7.164,2.952 14.112,7.057 19.584,10.368 5.364,3.061 9.792,5.292 12.708,8.928 2.808,3.744 3.924,8.496 4.32,13.284 .288,4.681-.072,9.433-2.593,14.4-2.735,4.896-8.604,11.52-13.283,14.724-4.86,3.024-10.261,3.528-14.688,3.456-4.355-.18-8.063-1.62-11.268-4.319-5.004-7.452-8.748-13.177-11.232-17.316-2.556-4.176-2.88-5.328-3.744-7.488-.756-2.268-1.188-5.76-1.44-5.76-.504-.036-1.764,2.988-1.152,5.472 .648,2.305 2.232,4.356 4.896,8.929 2.592,4.607 7.992,12.708 10.944,18.468 2.844,5.616 4.968,10.152 6.66,15.264 1.656,5.148 2.808,10.656 3.456,14.977 .576,4.104 1.044,7.235.288,9.827-.828,2.521-2.556,4.393-5.185,5.473v-7.2c-3.203-2.952-6.191-4.68-9.252-5.184-3.096-.576-6.624.144-8.928,2.016-2.34,1.872-3.924,4.896-4.896,9.216 1.62,2.124 2.772,3.853 3.456,5.185 .612,1.26.9,2.124.576,2.592-9.144-3.672-17.748-5.977-26.244-6.912-8.604-.972-17.316-.54-24.48,1.152-7.164,1.548-11.556,4.104-18.18,8.64-6.84,4.536-16.74,13.14-21.924,18.18-5.22,4.968-8.064,8.532-8.928,11.232-.36-6.552.36-12.564 2.016-18.468s4.356-11.376 8.1-16.704c-6.732,2.556-13.464,7.02-20.484,13.536-7.02,6.552-14.04,14.832-21.348,25.38 1.404-9.252 3.672-17.101 7.236-23.94 3.456-6.84 7.92-12.276 13.536-16.704-7.02,2.844-14.04,6.265-21.348,10.656s-14.651,9.357-22.175,15.296z" fill="#585406" fill-rule="evenodd" stroke="#000" stroke-miterlimit="10" stroke-width=".036"></path>
	<path d="m87.568,410.059c-2.052-3.313-3.492-5.977-4.32-8.389-.9-2.412-1.188-4.284-.864-5.76 0-2.088 3.024-3.636 8.928-5.184 6.012-1.549 18.144-2.196 26.532-3.744 8.172-1.548 16.596-3.276 22.5-5.761 5.832-2.592 10.332-5.075 12.384-9.792 1.8-4.859 1.512-12.455-.864-19.044-2.448-6.768-8.352-14.615-13.248-20.771-5.076-6.12-10.512-10.8-16.164-15.84-5.688-5.292-12.096-12.744-16.992-14.977-4.968-2.195-9.504,0-12.096,1.729-2.592,1.476-3.708,3.42-3.492,7.775 .036,4.284.972,11.305 4.068,18.145 3.06,6.804 7.488,14.904 14.112,22.212 6.588,7.164 21.384,17.46 24.804,20.771 3.168,3.061-2.952-.756-5.184-1.439-2.304-.684-3.06-2.844-8.1-2.304-5.184.504-15.264,3.023-22.464,5.472-7.38,2.376-15.876,5.4-20.772,8.64-4.896,2.916-6.984,5.904-8.352,9.792-1.476,3.853-1.332,7.92 0,13.86 1.332,5.976 4.392,14.616 7.776,21.888 3.24,7.128 7.452,14.796 11.52,20.772 3.96,5.868 7.956,10.62 12.132,14.399-2.808-5.04-4.68-9.323-5.472-13.248-.792-3.995-.648-7.235.576-10.115 2.088,4.464 4.968,8.748 8.928,12.996 3.924,4.176 8.676,8.207 14.4,12.096-4.68-3.744-8.136-7.92-10.368-12.672-2.304-4.788-3.312-10.08-3.168-15.876 3.096,3.888 7.128,6.876 12.096,8.964 4.932,2.052 10.8,3.204 17.604,3.456-7.164-2.7-13.464-5.868-19.044-9.504-5.616-3.672-10.368-7.813-14.4-12.42-.036,1.548-.756,2.268-2.304,2.304-1.692-.036-4.608-.756-6.948-2.304-2.376-1.729-6.3-4.5-6.912-7.2-.648-2.664.36-5.688 3.168-8.927z" fill="#585406" fill-rule="evenodd" stroke="#000" stroke-miterlimit="10" stroke-width=".036"></path>
	<path d="m312.172,416.25c7.092-5.508 13.14-10.08 18.432-13.86 5.221-3.815 8.389-6.659 12.996-8.928 4.464-2.448 10.368-5.004 14.112-5.184 3.636-.252 7.2.396 8.063,4.032 .757,3.563-.252,9.432-3.168,17.604-12.168,11.521-22.752,21.564-32.579,30.528-9.757,8.855-17.244,16.128-25.669,22.788-8.531,6.624-16.739,12.06-25.056,16.739-.54-6.479-1.548-11.88-2.88-16.739-1.368-4.933-3.06-8.784-5.22-12.097 3.744,1.836 7.739,2.557 12.132,2.017 4.355-.504 9.288-2.088 13.824-5.185 4.392-3.348 9.828-8.855 12.42-14.147 2.448-5.328 3.313-11.088 2.593-17.568z" fill="#77605b" fill-rule="evenodd" stroke="#000" stroke-miterlimit="10" stroke-width=".036"></path>

</svg>
