<?xml version="1.0" encoding="UTF-8" standalone="no"?>
<svg width="215.9" xmlns="http://www.w3.org/2000/svg" height="279.4">
 <defs>.fil4 {fill:#71625B}     .fil7 {fill:#84C225}     .fil0 {fill:black}     .fil3 {fill:white}     .fil1 {fill:#82750F}     .fil6 {fill:#AD9B0C}     .fil2 {fill:#C6AD0F}     .fil5 {fill:#FCE016}</defs>
 <g id="Capa_x0020_1">
  <path id="svg_1" d="m86.605 207.19c-0.2952-0.6644-2.8936-0.8268-3.3956-1.8455-0.9744-0.48721-2.9379-4.2224-3.1003-5.3149-0.3248 0-1.1664-4.0599-1.5502-4.1781-0.059097-0.39859-1.1811-1.4763-1.2697-1.7421-0.871-0.4281-5.5216-0.17709-5.743-0.8562-0.75301-0.044296-2.6427-0.70869-3.0708 0.3838-2.2146 0.1624-1.4764 1.8159-2.7903 2.2441-0.2953 1.2106-6.0088 3.3218-6.8356 3.056 0-1.0925-2.0669 0.9449-0.6053 1.2992 0.059097 0.75299 1.314 1.5797-0.2214 1.5797 0-0.3838-2.0669-0.6053-2.2441-1.1663-1.8159-0.1919-2.6279-3.0265-3.1446-4.3405-0.029602 0-0.1624-2.6722-0.9744-2.9379-0.073803-0.6792-0.7382-1.2254-0.812-1.9193-1.1959-0.5905-0.4429-8.6957 1.4025-9.301 0.3986-1.004-0.3838-3.6614 1.0925-4.1486 0-0.2657 1.5059-0.81201 1.8012-1.0334 0.31-0.93021 3.558-1.9784 2.3031-2.8199-0.1181-1.8159-1.1516-3.3661-1.314-5.3444-0.6939-0.2215-1.4025-7.0275-1.4173-8.0904-0.4134-0.2805-0.2214-6.9832 0-7.5442 0.014797-0.9301 0.6053-8.43 1.2106-8.7253 0.7087-1.8011 1.6831-6.5107 3.5285-7.2489 0.4577-0.9153 3.1151-4.2371 4.1043-4.7243 0.3248-0.6644 3.3366-3.3218 4.06-3.6762 0.3986-0.7972 4.1338-3.6908 4.931-3.8828 0.8711-1.7568 4.8572-2.4064 5.433-4.4586 0.561-0.17709 0.561-1.7568 0.1919-1.3877-0.044304 0.6348-0.73811 1.6092-0.6643 0.1476 1.7273-0.5758-1.8455-6.245-2.0669-7.4999-0.7087-0.3543-2.3917-5.5068-2.436-6.3631-0.8415-0.3248 0.0886-7.4851 0.75291-7.7066 0.059097-1.122 2.7165-7.4851 3.6762-7.7951 0.1033-0.8416 3.4251-6.0826 4.178-6.0826 0 1.1663-1.0482 4.7981-1.6387 5.7873 0 3.6614-1.2844 7.2784 0.6643 10.526 0.2953 0 3.3514 6.1121 4.4143 6.4665 0.0886 0.4133 3.5728 5.8611 3.6909 5.8906 0.5315 1.063 3.4252 6.806 2.5246 7.4851-0.044304 0.6644-0.9153 3.1594-1.6092 3.3809-0.0886 0.8711-2.7608 3.7795-3.5137 4.1486-0.5168 1.0334-3.44 5.1082-4.311 5.5363 0 0.3248-4.4881 6.1564-4.8867 6.2893-0.1624 1.4763-3.6024 3.6023-0.2658 4.931 0.059105 0.3396 3.5876 4.1781 4.0748 4.3405 0.059006 0.1772 2.244 3.0413 2.2883 3.0561 0.014801 0.1919 0.4429 1.2696 0.57581 1.1367 0-0.871-0.7677-2.0226 0.1919-1.7125 0.073807 0.3838 0.5463 1.4911 0.75301 1.7716 0.5314-0.2657 0.2952-6.3483-0.9006-6.7469-0.0886-1.3288-0.753-1.1368 0.812-0.7973 0.44289 1.3435 2.0669 1.1663 2.3178 2.8641 1.7717 0.8859-0.014694 4.9016 3.2037 3.8386 0-0.3691 2.9528-0.3248 3.2776-0.6496 0-1.6092 0.1919-2.8346 0.4281-4.3848 1.063-0.53151 0.871-4.4881 1.1663-4.5767 0.1181-1.5945 1.7126-2.8051 2.5246-4.0305 1.5206-0.4133 0.8858-4.3257 1.8454-4.7981 1.314-2.6279 1.6978-3.2923 4.2815-4.1486 0-0.2067 0.2362-0.1328 0.2952-0.31 0.7382-0.26579 0.9006-4.9458 0.7825-4.9753 0-1.7274 1.0482-3.8386 1.2401-5.684 0.3396 0 0.251-2.1555 0.5463-2.2441 0-0.058998-0.0886-5.3887-0.7382-5.5954-0.1624-2.7607-1.3582-5.241-1.5059-8.179-0.029503 0-0.2067-2.436-2.0226-2.5098 0-0.9006 1.0925-3.2037 1.0482-3.2184-0.2805-0.8563-2.1554 0.3838-2.6722 0.3838 0-1.8454 0.9449-6.9241 3.2185-7.2046 0.10329-0.10329 0.0886-4.7686-0.3543-4.9163-0.1034-1.2549-3.2775-2.0816-3.9567-3.4546-0.9448-0.4725-0.3248-3.5433 0.66441-3.9419 0-0.4872 1.5945-0.1772 1.5945-1.373-0.2363 0-0.5611-2.1703-0.9892-0.8858-0.7382 0.044296-3.4547 1.3435-3.6909 2.0816-0.2362 0-0.1329-3.6761-0.059006-3.6909 0.2952-0.7381 0.1033-2.1407 1.0482-2.4507 0.2214-1.624 4.8424-3.2037 4.5767-4.0009-0.2658-0.044296-1.6535-0.9597-2.0522-1.1221 0-2.0816 2.5837-0.10329 2.1998-1.8306-0.2067 0-0.2657-1.2992-0.9596-1.4616-0.3691-1.1368-3.8681-1.5945-4.9163-1.5945-0.1919-0.812 1.4468-1.373 0.1772-1.4616 0-0.6348 1.5649-0.3839 1.9045-1.4321 0.6053-0.044296 3.056-1.5058 3.3956-0.4576 1.1515 0.4576 5.0787 1.5797 5.6101 2.6574 0.7825 0.251-0.2066-2.5984-1.0482-2.5984-0.251-1.0482 4.6801 2.0817 5.3001 0.2067 2.1998-0.4281 4.3405-8.1495 3.1004-9.0796 0-1.4911 2.687 2.0669 2.8789 2.8789 0.8563 0.2805 1.4173 5.684 0.4724 5.994-0.1624 1.3287-3.4842 4.1486-1.122 4.931 0.3838 1.1516 1.8897 0.1329 2.3179 1.2107 1.4025 0 2.8198 3.868 4.2371 4.3404 0.2067 0.6349 2.3031 2.4656 0.4134 2.8789 0 0.059105-1.4173 0.93011-0.6201 1.1959 0 1.7273 3.9714-0.059097 4.7982 1.6092 0.51671 0.1624-0.6348 3.6171 0.7234 3.0708 0.1181-0.2509 1.4616 0.073906 1.4911 0.192 1.6092 0.088501 4.0157 1.9488 5.4478 1.4763 0.059006-0.2805 0.4576-0.5315 0.67909-0.6939 0.2953-0.9005 4.6062-1.5206 5.182-0.3691 2.4212 0.7973-1.4911 5.5511-0.059006 6.0236 0 4.1633-0.2215 5.1082-1.8307 7.7951 0 0.9301-4.6948 5.3297-5.7283 5.5511-0.2214 0.44289-4.1633 1.9045-3.7352 2.0079 0 0.029503-1.5944 0.3395-2.0078 1.0482 0 1.7421-1.5797 2.0078-1.6535 4.0452-0.2953 0.14761-0.4134 4.3405-0.6644 5.1082-0.2805 0.059105-0.2953 1.2106 0 1.2844 0 0.1034-1.3435 4.001-1.7864 4.5915 0 0.7234-0.5462 1.4173-0.6496 2.1407-0.9596 0.3101-0.4281 7.4409 0.1919 7.6475 0.044304 1.2549 0.59061 3.2776 2.0522 3.4842 0.029503 0.5611 2.6722 4.4439 1.4616 4.4439 0-0.088593-0.014801-0.3396-0.0886-0.3691-0.53149 0.2657 1.2254 2.4655 1.3287 2.7903 1.3435 0.1033-0.1624 1.1959 0.7825 1.5059 0.073792 0.53151 1.3582 2.6279 1.122 2.7017-0.088593 0.2215 1.4173 3.0265 1.5502 3.0708 0.059006 1.0778 1.1515 4.4586 0.4577 4.6801-0.192 0.502 1.4025 3.3661 2.2145 3.5432 0.2953 0.9154 2.2736 1.5355 2.7017 2.3917 1.6831 0.5611-0.84151 4.3405 2.0226 4.9754 0.10341 0.22139 0.5168 0.17709 0.6201 0.50189 0.7382 0.1772-0.1772 3.5138-0.3839 3.8533 0 0.9301 4.621 1.5354 5.374 2.7903 1.5354 0.502 5.1525 3.0413 5.5068 4.4734 0.1919 0.05899 0.502 1.0334 0.6496 1.2254 1.0039 0.3248 0.1624 8.179 0.1329 9.2715-0.7382 0.3691 0.1476 1.1368 0.4429 0.23619 0.029495 0 2.0669-2.3179 2.4212-2.5541 0.3248-0.64961 3.2184-2.7755 3.8828-3.1003 0.25099-0.502 0.9301-1.7569 1.4321-2.0079 0.4872-1.4616 3.8385-4.6062 5.3591-4.931 0.2363-0.4872 3.0709-0.7234 3.2923-1.1663 0.6349 0 6.1417-0.5463 5.123 0.4724 0 0.4872 2.185 2.9084 2.6574 3.056 0.10341 1.816 2.377 0.88591 2.746 2.5984 1.0187 0.502-1.2549 4.2519 0.3101 4.7687 0.1033 1.4025 1.2401 2.4655 1.2401 4.2519-0.7972 0.3986 0.41339 2.2883 1.0187 2.4802 0.088608 0.75301 1.8897 3.4104 0.41341 3.7057 0 0.57581-2.6279 2.1998-3.2037 2.4803-0.1476 0.4429-0.75299 0-1.0482 0.2214-0.044296 0.6053-0.78249 1.3878-0.044296 1.624 1.2254 3.6762-0.56099 4.3553-1.2402 7.0718-0.50189 0.25099-2.1407 3.8828-2.4655 1.7125-0.78239-0.3838-0.044296-3.1151-1.8454-2.4064 0 0.50191-2.8346 0.073807-2.8494 0-0.7972-0.044296-2.9232-1.2402-3.1299-2.0964-0.2214 0-0.6496-1.2402-0.7381-1.2697-0.2215-0.6053-3.0561-0.8858-3.3514 0-2.3326 0-4.9458-1.1811-6.3188 1.1073 0 0.69379-2.2145 0.9301-2.4655 2.185-0.7677 0.2509-3.4399 2.8936-3.6909 3.6761-0.78241 0.088593-1.373 1.1663-2.0521 1.5059-0.7825 1.5649-6.5993 4.0747-7.8395 2.4212-0.871-0.059097-1.9045-1.0039-2.0669-1.875-0.66429 0-0.50189-4.2519 0.192-4.4733 0.20671-0.53151 0.3986-1.9931 0.53151-1.7126 1.1367 0 0.5757-3.5728-0.2363-2.2145-0.97441 0-3.2037-1.373-3.2922-2.3474-0.3101-0.14769-0.87109-0.9892-1.2402 0.1328-0.17709 0.014801-4.7243 3.189-4.7243 3.2185-2.185 0.35429-4.2372 1.8602-6.5107 2.1259-0.4282 0.87109-8.6515 1.4173-8.8287 1.9784-2.7312 0-8.991 0-11.146-1.6093-0.4282-0.044296-3.1447-1.3877-3.2185-1.6092-0.1919-0.044296-3.4547 1.0925-3.5433 1.3582-0.5019 0.059097-2.185 1.4026-2.4064 1.7717 0 1.3435-0.7973 2.436-0.8858 3.617-0.2215 0.073898-0.78249 0.29529-0.3544 0.45769 0 0.10341-2.4212 1.7126-3.2332 1.8012-0.17709 0.3691-1.7864 0.2067-2.2293 0.2067z" class="fil0"/>
  <path id="svg_2" d="m91.758 206.15c-0.3838-0.1919 0.2805-0.7382 0.2805-0.23621-0.2067 0.059113-0.1033 0.1772-0.2805 0.23621z" class="fil0"/>
  <g fill="#f00">
   <path id="svg_3" d="m141.54 206.15c-0.78241-0.4724-2.2883-0.23621-2.7607-1.1958-0.98921-0.4872-1.2107-3.4547-0.1624-3.9714 0.1919-1.5502 0.85619 1.0039 1.0186 1.0039 0.059113-0.561 0.36911-0.3839 0.4725 0.014801 0.9301 0-1.4911-1.8603-0.2805-2.4656 0-0.2952-0.31009-0.78239 0.1181-1.2106 1.1368 0 0.2805-0.26569 0.812-0.9744 0.31001 0 1.6978-1.8307 1.7421-2.2145-0.3248-0.088608-1.9341 1.0482-2.0669 1.3287-0.6201 0.20671-0.56099-0.7972-0.6053-1.5502-0.9301 0-2.8051 0.20671-3.3366-0.85619-0.5905 0-1.3287-2.3475-0.1624-2.9232 0.029495-0.3101 3.0265-5.6988 3.1003-5.7431 0.073898-0.6053 1.0187-3.8385 1.4321-4.1042 0.02951-1.565 0.6053-7.1308 0.059097-7.308-0.25099-0.6348 0.29521-4.4291-0.62009-4.7243-0.20671-0.53149-1.2106-4.0748-1.4321-4.1486-0.014694-0.25101-0.17709-0.9301-0.39859-1.0334 0-0.59061 6.2893 1.4468 6.5403 2.2293 0.4429 0.1476-1.0482 2.9674 0.1476 3.558 0.41341 1.2549 2.5836 0.7234 2.938-0.3691 0.2509-0.073807 0.98909-1.2992 1.4468 0.1033 2.2441 0.73819 1.8011 13.007 0.19191 13.804-0.1033 1.4911-0.81201-0.1624-0.9006 1.6682-0.4281 0-0.1919 1.7126-0.3691 0.9744-0.9301 0-0.47241 1.3731 0.47249 0.42821 1.7421-0.23621 3.1151-4.7834 4.6357-5.8021 0.1772-0.3691 1.2402-1.4468 1.2402-0.871-1.2844 0.4281-2.2588 3.868-3.0265 4.0599-0.1329 0.812-0.85631 0.8858-0.85631 1.9636 0.7972 0 2.9084-4.7686 4.0747-5.3444 0.4429-0.9006 2.1555-3.2923 3.0708-3.4695 0.502-1.0039 1.875-1.7421 3.0708-1.8159 0-0.1033-1.4173-0.7086 0.014801-1.063 0.2067-3.5727 11.752-9.6996 12.815-4.9015 0.6053 0.192 0.6201 1.0778 1.1368 1.3288 0 0.4133-1.9783 0.84149-2.2588 1.5649-0.5168 0.1624-2.4213 2.8198-2.4656 3.6171-0.3248 0.2214 0.073898 1.6535 0.57581 1.7125 0.51669 0.7825 2.5246-0.29521 2.746 0.3839 1.4912 0.1772-1.8897 3.3513-2.6722 3.5433 0 0.9005-7.0127 1.7421-7.5884 2.0226 0 0.6496-0.25099 6.614-0.9449 6.9536-0.4577-0.2215 0.7972-5.4773 0.69391-6.3188-0.059113 0-0.073807-1.9045-0.3396-1.1073-0.6053 0.1181 0.073792 4.6506-0.64961 5.1968-0.029495 1.0187-0.85629 5.1377 0.3396 5.5363 0 1.2992-4.4881 0.53151-5.1377-0.4429-1.3288-0.66429-0.70869 0.25101-0.70869 1.1811-2.495 0.3691-4.4586 5.0196-6.7765 5.1968-0.1328 1.9635-1.2253-0.561-1.8602 1.373-1.0039 0.19191-0.6496 1.5207-0.6496 1.5059-1.3582-0.1181 0.31009-1.4616-1.0039-0.812-0.088593 0.1329-1.7568 1.2697-0.6348 1.1368 0.1329-0.87109 1.5059 0.4724 0.073792 0.7086-0.059097 0.2067 0.9449 0.3987 0.16242 0.59061-0.16242 0.4576-0.044312-0.1329-0.059113-0.19191-0.9005 0-0.22139 0.7086-1.3434 1.2696 0 0.2953-2.8346 0.91539-3.0709 0.9744z" class="fil1"/>
   <path id="svg_4" d="m102.42 193.45c-0.7848 0.8627-1.9749 2.0081-2.1902 2.3688-1.2213 2.0466-5.0632 2.1438-6.3048 3.3948-0.1975 0.1991-0.6938-0.5462 0.1772-0.6496 0.4872-1.2106 1.9783-1.4763 2.0817-2.8198 0.561-0.28049-0.1329-1.0925-0.2362-0.3248-2.0522 1.5354-1.2402 0.1476-1.2402-1.9931-1.2401 0-2.6574 7.3227-2.687 8.6072-0.4133 0.1329-1.2106 2.6131-1.5649 2.7312-0.4577 1.3731-2.6427 0.5168-3.6318 1.1811-0.6791-1.122-2.4655-1.2844-3.0266-2.7017-1.5944 0-1.3877-4.0305-2.3917-4.5324 0-0.98921-1.9487-3.8385-1.0629-4.2815 0.1919-0.66429-3.8238-1.432-4.2815-1.8897-0.088501-1.0187-4.1928-0.6053-4.8719-0.561-0.2953-0.3986 1.934-2.6279 0.3986-2.6279 0 0.84151-3.4547 4.2519-4.3257 3.3808-0.029602-1.3877-1.1664-3.4251 0.1624-4.3109 0.561-1.1221 2.185-2.4803 2.3326-3.7647 1.1073-0.36911-1.4025 2.746-0.4724 2.5688 0.2657-1.9488 2.244-4.0157 2.5541-6.1121 0.62-0.31 1.1663-1.9783 1.7421-2.2588 0.044296-0.4429 2.495-4.562 1.0925-3.8681-0.059097 0.57581-2.3474 4.2815-2.8642 4.5324 0 0.47249-2.5393 2.5837-3.0117 2.8199-0.1329-0.059097-1.875-1.4026-1.9784-1.6092-1.2549-0.3101 0.2215 1.2844-0.1771 1.4763-0.1476 1.624-1.9193-3.6171-1.7864-0.69389 1.0777 0.35438 0.75291 2.436 0.1329 0.87109-0.6792-0.2215-0.4577-1.4321-1.1368-1.6535-0.2067 0.2066 0.2362 1.3139-0.059097 1.1663 0-0.9449-2.3917-2.6575-0.0443-3.3218 0.1034-1.624 2.3179-1.314 2.9527-2.377 0.70869 0.088608-0.4133 1.7569-0.6791 1.8898 0 1.1958 1.5354-0.51669 1.6683-1.0482 1.0777-0.53149 1.4911-4.2372 0-4.7244-0.2215-2.0816-5.433-1.4173-6.3926-1.8897 0-3.7647 6.865-4.1338 9.2567-3.1889 0 0.4133 3.2923 0.7381 3.4695 1.9783 1.7568 0 2.3769 4.1338 3.056 4.06 0.1477-2.4213 3.2037 1.4173 3.3514 2.1111 1.934 0.6349 4.5176 9.183 4.68 11.028 0.91531 0.4577 0.6053 6.4222 1.7864 6.5698 0-0.1476-0.059097-2.9822 0.2805-1.624 0.3543 0 0.1329 1.373 0.9449 1.4764 0.2067 1.4763 1.122 0.088593 0.2805-0.4725-0.029602-0.3248-1.7126-4.6357-1.8012-4.6652-0.3691-0.91539-0.7972-5.0049-1.5059-5.4183-0.14761-1.7716-1.4616-4.3847-2.4802-5.743-0.059105-1.1516-2.8199-3.8976-1.3288-4.6358 0.192 0.088608 0.5168 0.66441 0.9006 0.85631 0.2658 0.812 2.5541-0.014694 2.746-0.871 1.4469-0.7234 1.3878-5.8759-0.044296-6.5846 0.2363-0.95961 2.4803-1.0039 3.248-1.1958 0.3248-1.4911 2.997-0.2953 2.436-1.4321-2.7312 0-7.677 0.1624-8.5776 2.8789-0.6053 0.19191-1.3435 4.0748-1.5945 4.1338 0 1.7126-1.6092-0.561-1.6978 1.1368-0.23621 0.23621-0.2214-1.0777-0.5462-0.9449-0.1181 1.4764-0.6644-0.31-0.6644 0.1181-1.4764 0-1.2106-1.8159-2.6427-2.0226-0.1771-0.561-2.7165-1.3877-3.2332-1.4173-0.3691-0.7381-3.9862-0.2952-4.2224-0.78239-0.8563 0-4.7538 0.26569-5.0491 1.1515-1.6978 0.20671-2.4508 4.5767-2.4803 5.9497-0.3396 0.1624-0.251 0.59059-0.4724 0.812-0.4429 0-1.1221-3.0117-1.1516-3.6318-0.31-0.088593-1.6535-6.1712-1.7273-7.1456-0.1919-0.088501-0.1772-0.7381-0.059101-0.8562 1.0039 0.8119 2.3622 1.2253 3.2775 0 1.5502-0.5168 2.4213-6.7175 1.5945-6.9832-0.2805-0.69389-0.1181-3.1299-0.8415-3.558 0-0.7973-1.4026-1.9341-2.2146-1.9783-0.2805-0.87109-3.2332 2.6131-2.244 0.62001 0.4281-0.20671 0.4281-6.3778 1.3582-6.9979 0.192-2.3327 2.8346-6.8208 4.9311-8.2085 0.7234-1.4616 3.307-2.7608 3.7204-4.001 0.31-0.1033 5.5068-4.4586 5.5216-4.5029 0.3838-0.044296 4.7981-3.2775 4.9457-3.4989 0.53149-0.1772 6.3336-4.3553 6.4074-4.562 0.1181 0-3.3218 1.0925-3.3218 1.816-0.4133 0.058998 1.1221-3.75 0.9744-3.2776-0.7824 0.251-1.3435 2.5984-1.432 0.4725-0.4282-0.2067 0.2066-0.51669 0.2066-0.8268-1.7421-0.1329-1.3877-4.4733-2.8493-5.1968 0-1.3582-1.4321-3.0117-1.6831-4.6505-0.31 0 0-0.5758-0.2952-0.6643-0.2953-0.7382-0.3544-6.8356-0.0886-6.9684 0.0886-1.1073 1.1368-5.7431 1.9488-6.3484 0.6496 0.3248-0.7677 4.2962 0.3248 4.5029 0.014702-1.9045 0.23621-7.4556 2.0078-8.6367 0.029495-0.3395 1.2402-2.2588 1.2402-1.4468-0.3839 0.251-1.2107 3.2332-1.2402 3.8681-0.3395 0.3395 0.073799-1.0926-0.3543-0.9302-0.029503 1.0187 0.3248 3.4547-0.6053 3.4547-0.8711-0.871 0.5167 2.6427 0.561 2.6575 0.073807 1.5206 3.5433 9.1977 4.9163 9.6553 0.2362 1.6978 2.6574 3.1594 3.1298 5.0639 0.2363 0.1181 2.4065 3.8681 2.436 4.1486 0.6053 0.1919 1.6093 3.9123 1.6093 4.5029-0.4282 0 0.088501 1.0334-0.3691 1.2549-0.073799 1.6535-3.6171 6.5845-5.3149 7.4261-0.0886 0.3838-4.872 5.9201-4.931 5.9349 0 0.812-2.5984 2.5984-2.7165 3.6761-0.6792 0-2.0226 3.9567-2.436 2.2736-0.2805 0-2.2146-2.9822-1.6388-3.1151 0.5463-1.0925 3.1004-3.1003 4.2519-3.2923 0.2067-0.62001 0.7234-0.5905-0.31-0.33951 0 0.2214-3.8385 2.185-4.1633 3.1889-0.6496 0.1624-0.6349-1.6535-1.624-1.5502 0 0.42821 1.3435 3.5876 1.5944 3.6614 0.4282 1.314 1.816 2.185 1.9341 3.8533 0 0-2.4213-1.122-2.7165-2.0226-1.0778-0.11809-1.5207-1.7274-2.6427-1.8455 0 0.4429 0.9449 0.72339 1.0187 1.4173 0.871 0.044296 6.1269 4.7834 6.6141 5.7578 0.2066 0.059097 1.1515 1.0187 1.2401 1.2106 0.6496 0 4.6653 5.8316 4.6653 6.7027-0.4872 0.1033-4.4586 0.8858-4.5029 1.0777-0.1034 0-1.2106 0.1772-1.2401 0.1477 0-1.1959-0.35439-2.8346 0.2214-3.9862 0.9744-0.3248-0.31-4.9163-1.2697-5.3887-0.1181-0.51669-1.1663-0.5905-0.6053 0.1476-0.3691 0.75301-1.7568 4.5177-2.9379 2.1408-1.0778 0-0.3691-1.4321-0.1181-1.8012 0.4872-0.16242 0.2805-3.6761-0.059105-2.1112-0.251 0-0.17709 0.3986-0.1919 0.59059-0.4429 0.1181-1.5059 1.0629-1.624 0.2805-1.2549-0.31009-0.4281-4.621-0.4281-4.5915-1.063 0.35429-0.9301 4.3552-0.014801 4.9606 0.1033 1.0039 1.0777 1.993 1.5059 2.8493 0.8415 0.1772 1.1515 1.2845 1.8011 1.4911 0.2658 1.9488 2.6722 3.1004 2.938 4.8868 0.6053 0-0.1772 0.91531-0.3543 1.0482-1.0335 0.059006-8.6515 3.0118-8.7548 3.7056-0.3248 0.10341-2.9232 1.6831-2.0374 1.5797 0-0.561 3.9566-1.4763 4.1338-2.0078 0.5462-0.059006 5.6397-2.0078 5.8021-2.2736 0.5167-0.044296 4.2962-1.1368 4.3405-1.2401 1.3877 0.044296-3.0413 2.0373-3.1742 2.436-0.502 0.1181-2.5393 1.5649-1.6683 1.6682 0.3396-0.6938 6.0088-3.2775 6.9684-3.4842 0.251-0.78239 5.4921-2.1407 6.4665-2.6279 1.4911-0.088501 6.0235-2.2883 6.5107-0.059006 0.014702 0 1.3878 1.3139 1.3878 1.9931-1.1811 0.5905-1.1516 2.3769-2.6427 2.5836-0.029495 0.33949-0.059097 4.1043-0.4282 2.244-1.4468-0.47241-2.0521 3.9714 0.2363 4.5325 0 0.6496 2.4212-0.7677 2.8346-0.3544 0 1.5059-1.3878 3.6171-2.6427 4.2372-0.044296 0.3248 0.1476 1.5059 0.812 1.3435 0.5019-1.5355 3.4842-1.6831 4.3552-3.4252 1.2254-0.088608-0.17709-2.7017 1.1368-1.8307 0.044304 0.85629 0.9449 3.5285-0.1181 3.8828-0.029495 1.5355 0.812-0.369 1.0187 1.004 0.53149 0.35429 2.0078 5.7282 2.0669 6.5255 0.6201 0.20671 1.5797 7.6327 1.5797 8.4595-0.502 0-0.1059 3.1744-0.6053 3.7056-0.3236 0.34441-0.8368 5.0154-1.1309 5.3386z" class="fil1"/>
   <path id="svg_5" d="m102.81 194.04c0.5365-0.90071 0.7299-5.1903 1.9666-4.6682 0.3399 0.14349 4.119 0.9892 4.1781 1.1664 0.5757 0.014694 4.3995 0.6496 4.4586 0.82669 1.9045 0.029602 13.45 1.3435 14.011 0.22151 2.4655 0 4.6357-1.0335 7.0717-1.2549 0-0.4577 1.8012-0.2805 0.6644 0.28049-0.14769 1.2254-2.687 2.8641-3.7057 3.0856-0.2214 0.66431-2.997 2.1112-3.6761 2.1997-0.42809 0.85629-4.3848 1.1073-5.3149 1.2402-0.1329 0.26569-0.3543 0.2067-0.6348 0.22139-0.2362 0.4872 3.0265-0.50189 3.0265-0.073792-0.6643 0.4872-5.1968 1.2844-5.3149 1.6535-0.561 0.029602-4.2666 0.9006-4.3109 1.0482-0.8268 0.029602-4.562 0.60541-4.7391 0.25101-0.7087 0-5.3592-0.33951-5.5364-1.0482-0.6939-0.073807-5.3887-1.9635-5.1377-2.1259 0-0.502 2.185-2.7904 2.746-2.5689 0 0.60529 3.7352 0.9744 4.1043 1.5945 0.561 0.014694 4.1929 0.50189 4.2962 0.812 1.4616 0.029495 9.1977 1.3434 8.7696 0.2509-0.9154 0-5.4183 0.26579-5.7578-0.4133-1.3583 0-8.9376-1.2637-9.6406-2.0817-0.1734-0.20181-2.2766-0.44-1.5237-0.6172z" class="fil2"/>
  </g>
  <path id="svg_6" d="m141.51 204.94c-0.059006-0.2953 0.3839-0.2953 0.3839 0h-0.3839z" class="fil0"/>
  <path id="svg_7" d="m142.16 204.94c-0.059006-0.3248 0.3839-0.25101 0.31 0h-0.31z" class="fil0"/>
  <path id="svg_8" d="m142.94 204.94c-0.10341-0.502 1.624-0.9892 1.624-0.4577-0.7677 0.014801-0.70869 0.41341-1.624 0.4577z" class="fil0"/>
  <path id="svg_9" d="m140.73 204.48c-0.05899-0.1919-0.51669-0.35429-0.044189-0.4429 0-0.17709 1.2106 0.4429 0.044189 0.4429z" class="fil0"/>
  <path id="svg_10" d="m140.11 203.89c-0.014801-0.2067-0.7973-1.4468-0.029602-1.1959 0 0.6496 0.6201 1.1221 0.029602 1.1959z" class="fil0"/>
  <path id="svg_11" d="m144.18 203.05c-0.029495-0.192-0.029495-0.20671 0.1477-0.20671 0.044189 0.17711 0 0.20671-0.1477 0.20671z" class="fil0"/>
  <path id="svg_12" d="m144.68 203.05c-0.4872-0.4872 0.69391-0.4429 0.1181-0.1624 0 0.1181-0.014801 0.1328-0.1181 0.1624z" class="fil0"/>
  <path id="svg_13" d="m147.12 203.05c-0.073898-0.1181-0.1329-0.3544 0.029495-0.38391 0.1033 0.10341 0.073807 0.2805-0.029495 0.38391z" class="fil3"/>
  <path id="svg_14" d="m146.47 202.27c-0.10341-0.1033-0.088608-0.2657 0.088593-0.20671 0 0.1624 0.044205 0.1181-0.088593 0.20671z" class="fil3"/>
  <path id="svg_15" d="m148.17 201.84c-0.014801-0.029602-0.029495-0.073898-0.059097-0.1182 0.35429-0.4724 0.3839-0.2066 0.059097 0.1182z" class="fil3"/>
  <path id="svg_16" d="m145.69 201.03c-1.3878 0 0.9006-1.063 0.9006-0.2363-0.75301 0.029602-0.5463 0.1181-0.9006 0.2363z" class="fil0"/>
  <path id="svg_17" d="m143.8 200.79c-0.1181-0.4872-0.70869-0.31 0.31-0.1919 0 0.25099-0.073792 0.1919-0.31 0.1919z" class="fil0"/>
  <path id="svg_18" d="m148.76 200.6c-0.1476-0.31 0.3396-0.23619 0.23619-0.029495-0.073792 0-0.1476 0.014801-0.23619 0.029495z" class="fil3"/>
  <path id="svg_19" d="m142.78 200.22c-0.4872-0.6201-1.5797 0.029495-1.2992-0.8268 0.1476 0 1.9783-0.36911 0.8858-0.014801-0.3396 0.5611 0.7529 0.502 0.41339 0.8416z" class="fil0"/>
  <g fill="#fff">
   <path id="svg_20" d="m56.65 200.03c-0.9744-0.4872-2.3032-1.7273-2.5541-2.8789-0.812 0-0.3248-3.9271-0.1182-3.307 0.9744 0.073792 3.6466 1.7569 3.2185 2.6279-0.5905 0.1919-0.1624 3.3071-0.5462 3.558z" class="fil4"/>
   <path id="svg_21" d="m174.98 200.03c-0.9449-0.561-1.1515-3.3661-2.2441-3.7204-0.1476-0.5905 4.3848-6.806 4.3848-1.0039-0.3838 0-0.7086 3.5875-1.5649 3.6909-0.029495 0.35429-0.2215 0.9449-0.57581 1.0334z" class="fil4"/>
  </g>
  <path id="svg_22" d="m145.69 199.83c-0.4724-0.4724 0.1181-1.0482 0.1181-0.044296-0.029495 0.014801-0.073792 0.029495-0.1181 0.044296z" class="fil0"/>
  <g fill="#f00">
   <path id="svg_23" d="m58.54 197.93c-1.5797 0 0.8858-2.8198-0.8858-2.8198-0.1181-1.2845-2.6427-2.2884-3.7204-2.3327-0.1477-0.47241-0.4429 0.25099-0.6349-0.14761-0.3986-0.073792 0.3691-2.687 0.6349-2.5984 0 0.029495 0.8267-1.1663 1.2549-0.088608 0.1476 0.044296 3.1151 1.9931 3.1298 2.0374 1.7274 0 5.625-1.063 6.1122-3.0413 2.1702-0.7234 0.369-2.687 1.7568-3.1446 0.1477-1.7864 2.5689-2.2146 2.5246-2.1998-0.059097 0.9153-1.8307 3.2923-2.687 3.7204-0.3248 1.2992 2.2736-2.185 2.4508-2.3031 0.088501-0.4872 1.5944-2.687 1.8159-2.3622 0 1.9488-2.687 4.1191-3.248 5.8021-0.41341 0.13289-1.2254 1.7716-1.6388 1.4616 0-2.6132-0.3543 2.9379 0.2658 0.4577 0.7677-0.25101 0.561-1.1073 0.561 0.1476 0.561 0.1772-0.9892 3.7795-1.2401 4.5619-0.7087 0.2363-0.9744 1.4912-1.7864 1.6831 0 0.6201-4.1486 1.1663-4.6653 1.1663z" class="fil1"/>
   <path id="svg_24" d="m169.49 197.93c-1.8898 0-4.1338-4.1338-3.3366-5.7283 0.4429-0.1476 0.1624-3.7499 1.0039-2.0521 0.2953 0.029495 2.3917 0.8268 2.4655 0.9892 1.3878 0.088593 5.182 1.122 5.9645-0.1772 0.42819 0 0.3691-0.502 0.9449-0.6201 0.3838-1.1663 0.4281 1.624-0.3839 1.624-0.29521-0.9005-2.244 1.2697-2.6574 1.4764-0.1476 0.4429-3.3661 3.5285-1.5207 3.6909 0.85629 1.2844-1.6092 0.78239-2.4802 0.7972z" class="fil1"/>
  </g>
  <path id="svg_25" d="m62.969 196.11c-0.0443-0.1772 1.4173-1.4321 1.1515-0.6201-0.3543 0-0.8267 0.561-1.1515 0.6201z" class="fil0"/>
  <path id="svg_26" d="m124.1 195.69c-0.029602-0.1033-3.8533-1.0334-2.1555-1.0334 0 0.4724 4.7243 0.9596 4.7096 1.0334h-2.5541z" class="fil0"/>
  <path id="svg_27" d="m64.046 194.9c-0.1033 0-0.073803-0.1477-0.073803-0.2215 0.2362-0.059006 0.2657 0.1624 0.073803 0.2215z" class="fil0"/>
  <path id="svg_28" d="m64.622 194.9c0-0.1477 0-0.2953-0.014801-0.4429 0.31 0 0.2658 0.3838 0.014801 0.4429z" class="fil0"/>
  <path id="svg_29" d="m164.36 194.25c-1.2992-0.7825-2.2588-2.6575-1.4616-4.2667 0.57581-0.2805 0.9449-5.7135 0.9449-6.3778 0.1033-0.10339 3.0708 0.2214 2.0374 0.84151-0.044296 0.66429-1.565 3.4694-0.42821 3.8385 0.02951 0.3691 0.2953 0.7529 0.64961 0.88579 0.1476 0.3101-0.97441 4.37-1.063 5.0049-0.059006 0.044296-0.059006 0.044296-0.67911 0.073792z" fill="#f00" class="fil1"/>
  <path id="svg_30" d="m87.875 194.06c-0.1181-0.1182-0.1476-0.44299 0.1181-0.3544 0 0.1772 0.044304 0.3101-0.1181 0.3544z" class="fil0"/>
  <path id="svg_31" d="m124.3 193.66c0-1.0777 5.6987 0.3248 6.1416-1.0186 0.6201 0 1.2254-0.85631 0.9597-0.044312-0.26579 0-2.4213 0.97441-2.436 1.0334-1.5502 0-3.1004 0.014801-4.6653 0.02951z" class="fil0"/>
  <path id="svg_32" d="m139.68 193.4c0-0.7234 0.25099-2.3917 1.004-2.687 0-0.39859 0.66431-0.3248 0.5462 0.059113-0.5905 0 2.0374 1.624 0.059097 1.624 0 0-1.565 1.0039-1.6093 1.0039z" class="fil0"/>
  <path id="svg_33" d="m73.495 192.82c-0.2362-0.13289-0.9301-0.1919-0.9744-0.38379-0.4134-0.20671 3.2332-0.3396 2.8936 0.35429-0.7824 0-0.9301 0-1.9192 0.029495z" class="fil5"/>
  <path id="svg_34" d="m65.095 191.8c-0.014793 0-0.044296-0.014709-0.073799-0.02951 0-0.812 0.6201-0.1476 0.073799 0.02951z" class="fil0"/>
  <path id="svg_35" d="m163.72 191.58c-0.23619-0.1181 0.57581-3.3956 0.59061-4.2815 0.6053-0.19191-0.1772-3.4694 0.56099-3.2332 0.014709 0.87109-0.26579 7.2194-1.1516 7.5147z" fill="#f00" class="fil0"/>
  <path id="svg_36" d="m51.719 191.39c-0.5905-1.1959-1.0187-7.3671 0.561-7.8838 0.4872-3.4251 3.8681 1.4321 3.8681 2.9527-1.4321 0.4725-3.6909 2.7608-3.8828 4.311-0.3839 0 0.1033 0.561-0.5463 0.6201z" fill="#fff" class="fil4"/>
  <path id="svg_37" d="m58.732 190.96c-0.6201-0.3691-2.687-1.3878-2.997-2.0078-0.6939-0.1624 0.9301-3.6023 1.1073-0.9006 1.0187 0-0.073799-5.2706-1.4616-5.7283-0.2953-0.9006-2.8937-1.1811-2.2441-2.1702 0.4872-0.1181 3.3514-3.3366 3.7204-3.9567 1.4616 0 2.1555-1.6092 2.1555 0.7825-0.4724 0.31 0.9154 3.9419 1.1073 4.7096 0.3396 0.1033 0.1033 1.4025-0.1919 1.4911 0 2.8494 1.8749-2.7017 2.0669-2.0964 0 0 1.2106 2.2293 1.934 2.4655 0.073799 0.3986 3.1446 0.54631 1.4763 1.5502-0.1033 1.373-2.1702 4.4881-3.4399 5.1229 0 0.3396-2.8641 0.73819-3.2332 0.73819z" fill="#f00" class="fil1"/>
  <path id="svg_38" d="m129.45 190.96c-0.014801-0.029495-0.029495-0.073792-0.059097-0.1181 0.1181-0.1624 0.3101 0.044312 0.059097 0.1181z" class="fil3"/>
  <path id="svg_39" d="m172.31 190.77c-0.6496-0.38391-3.499-0.25101-3.809-1.0482-2.4212 0-2.0078-5.2706-1.122-6.1564 0.5905-0.044296 3.4546-0.7382 3.7204-1.1959 0.31-0.044312 2.0964-1.1368 2.185-1.4025 0.69391-0.2215 1.8159-3.5138 2.5246-2.0964 0.44289 0.029495 0.5905 0.17709 0.9596 0.2657 0.2215 0.6644 1.1516-2.0521 1.4764-0.91531 0.63481 0.31001 1.6239 3.3956 1.2253 3.5284-0.36911 0.75299-2.997-0.19191-2.1407 0.6644 0 0.9892-5.8021 3.6023-2.0374 4.8572 0.13289 0.54631 1.6388 1.4321 0.6792 1.9045-0.6201 1.2549-2.2589 1.565-3.6614 1.5945z" fill="#f00" class="fil1"/>
  <path id="svg_40" d="m147.48 190.37c0-0.2805 0.088608-0.9744 0.3248-1.0925 0.23621-0.4872 0.2657 1.0186-0.3248 1.0925z" class="fil0"/>
  <path id="svg_41" d="m178.48 189.72c-0.1772-0.088608-1.0925-1.3288-0.7973-1.624 0.6349 0-1.2696-0.812-1.5797-1.4321-1.5649-0.51669-0.4281-1.7716-0.3248-1.4468 0.95969 0 3.5581-3.8681 4.311-0.85631 1.1073 0.36911 1.8012 3.2627 0.79721 3.7647-0.1624 0.502-1.8602 1.5649-2.4064 1.5945z" fill="#fff" class="fil4"/>
  <path id="svg_42" d="m148.36 189.13c-0.1181 0-0.073807-0.2657-0.073807-0.33949 0.2805-0.073898 0.25101 0.2805 0.073807 0.33949z" class="fil0"/>
  <path id="svg_43" d="m131.66 188.29c-0.044296-0.2067-0.014694-0.2067 0.1624-0.2067 0 0.1919 0.029495 0.2067-0.1624 0.2067z" class="fil0"/>
  <path id="svg_44" d="m178.44 188.29c-0.073792-0.35431 0.4724-0.2805 0.3838 0h-0.3838z" class="fil0"/>
  <path id="svg_45" d="m68.771 188.08c-0.1181 0 0.2067-1.4173 0.3101-0.41341-0.3544 0.088608-0.029602 0.3248-0.3101 0.41341z" class="fil0"/>
  <path id="svg_46" d="m149.1 188.08c-0.044296-0.19191-0.014801-0.19191 0.1624-0.19191 0 0.14761-0.014801 0.16242-0.1624 0.19191z" class="fil0"/>
  <path id="svg_47" d="m125.96 187.89c-0.073799-0.3396 0.5905-0.2805 0.50191 0h-0.50191z" class="fil0"/>
  <path id="svg_48" d="m132.14 187.89c-0.044205-0.25099 0.9154-0.53149 0.9154-0.7972-0.50201-0.1624 0.3691-0.059097 0.54619-0.192 0.20671 0.044296-1.2106 0.9892-1.4616 0.9892z" class="fil0"/>
  <path id="svg_49" d="m126.75 187.7c-0.058998-0.29529 0.3839-0.29529 0.3839 0h-0.3839z" class="fil0"/>
  <path id="svg_50" d="m135.99 187.7c0-0.29529 1.0483-1.0483 1.2107-1.004 0 0.3544-0.88591 0.8416-1.2107 1.004z" class="fil0"/>
  <path id="svg_51" d="m150 187.7c-0.1477 0-0.088593-0.2805-0.088593-0.3839 0.29529-0.073807 0.25099 0.3396 0.088593 0.3839z" class="fil0"/>
  <path id="svg_52" d="m127.4 187.51c0-0.059006 0-0.1328-0.014702-0.20671 0.4577 0 0.4429 0.16242 0.014702 0.20671z" class="fil0"/>
  <path id="svg_53" d="m150.34 187.08c-0.25101-1.1368 0.6496-2.3917 0.35429-0.4577-0.2657 0.1329-0.059006 0.3839-0.35429 0.4577z" class="fil0"/>
  <path id="svg_54" d="m77.732 186.89c0-0.059097-0.014702-0.1329-0.029503-0.20671 0.2953 0 0.2953 0.16242 0.029503 0.20671z" class="fil0"/>
  <path id="svg_55" d="m128.87 186.89c-0.4429 0 2.1998-1.3583 2.2293-1.4173 0.4872 0 4.119-2.6132 4.2667-3.2923 0.871-0.11809 3.3808-2.8346 3.6761-3.7204 0.29529 0 0.6496-1.3583 1.0187-1.1221-0.75299 0.75301-1.3583 2.8789-2.4655 3.4252 0 0.53151-2.0374 1.4321-2.2884 2.185-1.8454 0.6053-3.2184 2.8789-5.0787 3.1003 0 0.029602-1.3139 0.8268-1.3582 0.8416z" class="fil0"/>
  <path id="svg_56" d="m134 186.89c-0.2215 0 2.4802-1.8602 2.5836-2.2884 1.4468-0.35429 2.436-3.3218 3.2775-3.4842 0 1.5649-4.6505 5.3739-5.8611 5.7726z" class="fil0"/>
  <path id="svg_57" d="m100.97 186.65c-0.4282 0 0.3395-1.181 0.3395-1.1958-0.8267 0 0.6792-3.8238 0.561-1.6535-0.2509 0-0.6053 2.0078-0.3543 1.5059 0.3986-0.10341-0.251 1.2549-0.5462 1.3434z" class="fil0"/>
  <path id="svg_58" d="m67.339 182.97c-0.6496-0.3838 0.3248-0.871 0.5315-0.4429 0.5757 0.23621-0.3691 0.4429-0.5315 0.4429z" class="fil5"/>
  <path id="svg_59" d="m53.121 182.78c-0.0443-0.20671 0-0.19191 0.1919-0.19191 0 0.20671 0.014797 0.19191-0.1919 0.19191z" class="fil0"/>
  <path id="svg_60" d="m133.6 181.54c-0.1476-0.2953 0.4725-0.5611 0.69391-0.6349 0.029587-0.1624 3.5876-4.7096 3.6319-4.7243 0.073792-0.6349 1.5058-2.5246 0.9153-1.5354 0 2.3179-3.7204 5.6249-5.2411 6.8946z" class="fil0"/>
  <path id="svg_61" d="m153.87 181.54c-0.1033-0.10339-0.1476-0.4872 0.088608-0.3691 0 0.17709 0.014801 0.2657-0.088608 0.3691z" class="fil3"/>
  <path id="svg_62" d="m151.43 181.35c-0.1624-0.1624-0.029495-0.1919 0.10341-0.23619 0 0.11809-0.029602 0.1624-0.10341 0.23619z" class="fil3"/>
  <path id="svg_63" d="m60.562 180.14c-1.0777-1.0777-0.812-8.4743 1.7569-8.681 0.4576-0.9301 4.9458 0.69389 5.1524 2.0079 0.32481 0.1033-0.088493 1.9931-0.2805 2.1112-1.4173 0.059006-4.7391 1.0925-5.241 2.6279-0.8563 0.20671-0.8416 1.5649-1.3878 1.934z" fill="#fff" class="fil4"/>
  <path id="svg_64" d="m133.41 179.3c-0.073792-0.1476 0.35431-0.6201 0.4872-0.67911 0.59061-0.8858-0.11809 0.36911-0.4872 0.67911z" class="fil0"/>
  <path id="svg_65" d="m116.16 178.9c-0.1034 0-0.073799-0.1477-0.073799-0.2215 0.2362-0.059006 0.26569 0.1624 0.073799 0.2215z" class="fil0"/>
  <path id="svg_66" d="m116.71 178.9c0-0.4429 0.9744-0.3986 0.9744-0.02951-0.32481 0-0.6496 0.014709-0.9744 0.02951z" class="fil0"/>
  <path id="svg_67" d="m176.46 178.44c-1.5502-0.9301-3.0413-1.3878-5.1673-1.4321-1.0777-1.0777 2.0817-4.2666 2.9084-4.68 2.4656 0 2.6132 0.1624 4.1634 1.1958 0 0.41341-0.6201 3.7943-1.004 3.9419-0.059006 0.6496-0.17709 0.9301-0.9005 0.9744z" fill="#fff" class="fil4"/>
  <path id="svg_68" d="m134.62 178.06c-0.073792-0.1624 1.624-2.436 1.9193-2.436 0 0.53151-1.624 2.1407-1.9193 2.436z" class="fil0"/>
  <path id="svg_69" d="m132.14 177.66c0-0.1328 2.0079-2.495 1.5059-1.4911-0.23621 0-0.8858 1.4026-1.5059 1.4911z" class="fil0"/>
  <path id="svg_70" d="m129.42 176.63c-0.029602-0.1919-0.029602-0.2067 0.1476-0.2067 0.044296 0.1772 0 0.2067-0.1476 0.2067z" class="fil0"/>
  <path id="svg_71" d="m130.07 176.42c0-0.4577 1.7125-0.7677 2.1997-0.7972 0 0.31-1.9045 0.78239-2.1997 0.7972z" class="fil0"/>
  <path id="svg_72" d="m172.12 176.42c-0.10339 0-0.073792-0.13289-0.073792-0.1919 0.22139-0.059097 0.2657 0.1328 0.073792 0.1919z" class="fil0"/>
  <path id="svg_73" d="m84.538 176.01c-0.1181-0.35429-1.6092-1.1072-0.251-1.9192 0.2363-1.9193 3.0856 1.683 0.251 1.9192z" class="fil0"/>
  <path id="svg_74" d="m173.33 176.01c-0.073807-0.33949 0.57579-0.3248 0.57579 0h-0.57579z" class="fil0"/>
  <path id="svg_75" d="m84.582 175.61c-0.5758 0-0.251-2.0964 0.4724-1.373 0 0.7086 0.3248 1.3287-0.4724 1.373z" fill="#ff0" class="fil5"/>
  <path id="svg_76" d="m148.72 175.22c0-0.5168 0.014801-0.6349 0.54631-0.6349 0 0.6201 0.073792 0.59061-0.54631 0.6349z" class="fil0"/>
  <path id="svg_77" d="m135.56 173.53c0-0.62 0.5905-0.561 0.22139-0.3838-0.029495 0.23621 0.014801 0.3248-0.22139 0.3838z" class="fil0"/>
  <path id="svg_78" d="m147.28 173.32c-0.1477-0.4725-1.1959-1.2845 0.1328-1.4764 0.3396-0.67911 2.2884 1.3435-0.1328 1.4764z" class="fil0"/>
  <path id="svg_79" d="m147.52 172.94c-0.20671 0-0.53151-1.1811 0.54619-0.5463 0 0.3544-0.23619 0.502-0.54619 0.5463z" class="fil5"/>
  <path id="svg_80" d="m82.678 172.51c-2.1407 0 0.1772-6.2155 1.2254-6.7322 2.5984 0 2.0669 6.5845-1.2254 6.7322z" fill="#ff0" class="fil5"/>
  <path id="svg_81" d="m134.75 171.89c-0.044296-0.3839 1.0925-1.7864 1.2401-2.4212 0.029602 0 1.3878-3.6909 1.3878-2.2884-0.1624 0-0.9744 2.7313-1.373 2.8641-0.059097 0.2953-0.9006 1.8455-1.2549 1.8455z" class="fil0"/>
  <path id="svg_82" d="m134.34 170.31c0-0.073792 0-0.1624-0.014694-0.25099 0.2657 0 0.23619 0.2067 0.014694 0.25099z" class="fil0"/>
  <path id="svg_83" d="m145.88 170.03c-1.4616 0-0.56099-4.3848 0.3544-2.8494 1.9192 0.23619 2.1407 2.7608-0.3544 2.8494z" fill="#ff0" class="fil5"/>
  <path id="svg_84" d="m134.62 169.84c-0.014694-0.029495 1.2845-2.554 1.373-3.2332 0.25101 0 0.4725-1.4763 0.9892-1.4763 0 1.0334-1.7421 4.2224-2.3622 4.7095z" class="fil0"/>
  <path id="svg_85" d="m134.62 167.4c-0.088593-0.192 0.3101-0.6644 0.3101-0.2215-0.192 0-0.2215 0.073792-0.3101 0.2215z" class="fil0"/>
  <path id="svg_86" d="m135.03 166.78c-0.25099-0.25099 0.84151-2.0964 0.31-0.4724-0.369 0.088501-0.029495 0.3838-0.31 0.4724z" class="fil0"/>
  <path id="svg_87" d="m137.48 166.59c-0.014801-0.014801-0.044296-0.029602-0.073898-0.044296 0-0.3544 0.3839-0.059097 0.073898 0.044296z" class="fil0"/>
  <path id="svg_88" d="m66.674 165.38c0-0.14769 0-0.2953-0.014801-0.44299 0.9449 0 0.443 0.3396 0.014801 0.44299z" class="fil0"/>
  <path id="svg_89" d="m85.778 165.38c-0.10339 0-0.073898-0.14769-0.073898-0.2215 0.2363-0.059097 0.2658 0.1624 0.073898 0.2215z" class="fil0"/>
  <path id="svg_90" d="m134.62 164.54c-0.029495-0.073807 0.4429-2.4802 0.53151-2.4507 0.14769 0.6348-0.02951 1.9488-0.53151 2.4507z" class="fil0"/>
  <path id="svg_91" d="m90.857 163.3c0-0.59059 1.1368-0.2953 0.2067-0.1919-0.029495 0.1624-0.014694 0.1919-0.2067 0.1919z" class="fil0"/>
  <path id="svg_92" d="m134.34 162.68c0-0.3248 0.1181-2.0669 0.3839-1.9783 0 0.3691 0.1033 1.8602-0.3839 1.9783z" class="fil0"/>
  <path id="svg_93" d="m139.1 162.68c-0.10341-0.2067-0.5168-3.4104 0.1624-2.0521 0.50189 0.3248 0.8562 1.9931-0.1624 2.0521z" fill="#f00" class="fil6"/>
  <path id="svg_94" d="m57.89 162.48c-1.063-0.53149-1.6388-1.1368-1.7569-2.4803-0.5019 0 0.3248-2.0521-0.2952-2.2588-0.4725-1.2106-0.2953-7.6032 2.1111-7.8099 0.5463-0.97441 2.2736 1.8306 2.3622 2.2293 1.4026 0.4576 1.0335 8.7843-1.2549 9.9211-0.1624 0.4872-0.6939 0.3838-1.1663 0.3986z" fill="#ff0" class="fil5"/>
  <path id="svg_95" d="m137.67 161.86c-0.3691-0.22139-0.57579-2.0816-0.10339-1.6092 0.029602 0.3839 0.3987 1.314 0.10339 1.6092z" fill="#f00" class="fil6"/>
  <path id="svg_96" d="m140.77 161.66c-0.014709 0 0.11809-0.7972 0.11809-0.029495-0.029495 0-0.073792 0.014801-0.11809 0.029495z" class="fil0"/>
  <path id="svg_97" d="m94.238 161.43c-0.502-1.0187-0.9006-1.5797-0.5463-2.6427 0.32481-0.073792 2.8494-3.499 3.3366-2.5098 0.9892 0.4872 0.5905 2.2736 0.5905 3.2627-1.2401 0.26581-1.8454 1.0187-2.8789 1.5355 0 0.029495-0.4281 0.33949-0.5019 0.35429z" fill="#ff0" class="fil5"/>
  <path id="svg_98" d="m132.76 160.84c-0.029495 0-0.39859-2.7903 0.10341-2.6279 0 0.57579 0.4576 2.4508-0.10341 2.6279z" class="fil0"/>
  <path id="svg_99" d="m133.6 160.84c-0.1476 0-0.073792-1.0482-0.073792-1.1958 0.39859-0.10341 0.2067 1.1515 0.073792 1.1958z" class="fil0"/>
  <path id="svg_100" d="m141.51 160.65c-0.029495-0.1329-0.029495-0.1329 0-0.19191 0.2215 0 0.2215 0.19191 0 0.19191z" class="fil0"/>
  <g fill="#f00">
   <path id="svg_101" d="m139.96 160.19c-0.1624-0.073807-0.3248-0.35429-0.4872-0.4576-0.044296-1.0039 1.063-0.1181 0.4872 0.4576z" class="fil6"/>
   <path id="svg_102" d="m136.86 159.41c-0.8268-0.8268-2.2736-5.6988-3.1004-5.9645-0.1624-0.4281-0.1181-2.0817 0.5463-2.0078 0 0.8119 2.5984 1.7125 2.746 2.1702 0.35431 0.1772 0.22151 5.5216-0.1919 5.8021z" class="fil6"/>
  </g>
  <path id="svg_103" d="m63.471 158.36c-1.0334 0-1.0777-2.3032 0.2805-1.4026 0 0.42821 0.1329 1.2697-0.2805 1.4026z" class="fil0"/>
  <path id="svg_104" d="m63.279 157.55c-0.1034-0.10341-0.1476-0.4725 0.073799-0.3691 0 0.1476 0.014797 0.28049-0.073799 0.3691z" class="fil3"/>
  <path id="svg_105" d="m62.57 155.54c-0.1771-0.56099-1.373-1.8307-0.6496-2.3769 0.2363-3.7795 4.252 2.185 0.6496 2.3769z" class="fil0"/>
  <g fill="#ff0">
   <path id="svg_106" d="m62.806 155.07c-0.4577 0-0.5758-1.8897-0.2953-2.0669 0.2067-1.7569 1.9931 1.8897 0.2953 2.0669z" class="fil5"/>
   <path id="svg_107" d="m85.586 153.06c-0.014702-0.014709-0.48721-5.3887-0.5462-5.9644-0.5758 0-0.1919-1.4469 0.5167-0.029602 0.3986 0 2.4065 5.4035 1.2254 5.5807 0 0.1181-0.9892 0.39859-1.1959 0.4133z" class="fil5"/>
  </g>
  <path id="svg_108" d="m97.25 152.44c-0.1329-0.1329-0.073906-0.192 0.10329-0.23621 0 0.1328 0.044304 0.19191-0.10329 0.23621z" class="fil0"/>
  <path id="svg_109" d="m133.14 152.02c-0.2067-0.2067-0.014801-0.3838 0.1624-0.4872 0.1476-0.8858 0.7972 0.3544-0.1624 0.4872z" fill="#f00" class="fil6"/>
  <g fill="#ff0">
   <path id="svg_110" d="m75.754 151.59c-0.029495-0.014801-1.7421-2.4803-1.7273-2.6132 0.1624-0.1033 0.5905-0.4429 0.6496-0.62001 0.4429-0.14769 1.1368-2.7165 1.4173-1.7126 0.4724 0.1476 0.7529 4.7982-0.3396 4.9458z" class="fil5"/>
   <path id="svg_111" d="m98.962 151.01c-0.1919-0.3838-0.029495-4.5324-0.9006-4.5324-0.029503-0.4429 1.8898-4.621 2.377-4.7834 0-0.2657 1.7568-2.2441 2.0964-1.9045 0.029495 1.6978 1.2401 4.4586-0.4281 5.2854-0.5611 1.683-2.0817 2.8346-2.2884 4.8867-0.44289 0-0.029495 0.9744-0.8563 1.0482z" class="fil3"/>
  </g>
  <g fill="#f00">
   <path id="svg_112" d="m132.95 151.01c-0.05899-0.1181-0.23619-0.9596 0.088608-0.7972 0.044296 0.44289 0.57579 0.70859-0.088608 0.7972z" class="fil3"/>
   <path id="svg_113" d="m132.36 149.96c-0.9153-0.5463 0.088593-2.0226 0.088593-0.073792-0.029495 0.014694-0.059097 0.044296-0.088593 0.073792z" class="fil1"/>
  </g>
  <path id="svg_114" d="m97.412 149.37c-0.251-0.75301-0.9744-2.0227 0.029495-0.6792 0.2952 0.073792 0.2805 0.6201-0.029495 0.6792z" class="fil0"/>
  <path id="svg_115" d="m111.2 149.37c-0.53149-1.7717 2.687 0.23621 3.0413-0.8268 1.2549-0.073807 8.2528-2.2441 8.8434-1.063 0.6348 0.044296 2.3179 0.502 0.6053 0.69389 0 0.54631-2.5246-0.90059-2.938-0.073792-0.4133 0-2.4212 0.088593-2.8198 0.4872 0 0.2214 2.5098-0.2215 3.0413-0.25101 0 0.23621-3.7795 1.373-3.9271 0.57581-2.0521 0.014694-3.6909 0.4281-5.8464 0.4577z" class="fil0"/>
  <path id="svg_116" d="m117.08 148.92c0-0.36911 0.9744-0.25101 0.753-0.02951-0.251 0-0.502 0.014709-0.753 0.02951z" class="fil3"/>
  <path id="svg_117" d="m131.93 148.53c-0.014801-0.029495-0.029602-0.073792-0.059097-0.1181 0.1181-0.1624 0.31 0.044312 0.059097 0.1181z" class="fil3"/>
  <path id="svg_118" d="m96.201 147.1c0-0.1329 0-0.26579-0.014702-0.41341 0.6348 0 0.31 0.33951 0.014702 0.41341z" class="fil0"/>
  <path id="svg_119" d="m71.222 146.48c-0.4577-0.9153-0.1329-0.85631 0.6348-1.2401 0.7677 0.029495-0.1181 1.181-0.6348 1.2401z" fill="#ff0" class="fil5"/>
  <path id="svg_120" d="m131.12 146.48c-0.1329-0.26581-0.2363-1.4173 0.17709-1.624 0.5463 0 0.1624 1.5206-0.17709 1.624z" fill="#f00" class="fil1"/>
  <path id="svg_121" d="m110.77 144.46c-0.1329-0.502-0.9597-0.073807-0.812-0.4577 3.0708-0.014694 5.3887-0.4429 8.1052-0.5905 0 0.4429-0.4577-0.014801-0.5758 0.35429-2.185 0.073807-4.5767 0.57581-6.7174 0.69391z" class="fil0"/>
  <path id="svg_122" d="m114.89 142.17c-0.014801-0.044296-4.7096-1.0039-3.3808-1.0039 0.1181 0.47241 4.931 0.53151 5.3296 0.53151 0-0.014801 3.9123-1.122 3.9123-0.561-0.871 0.059006-1.5501 0.51671-2.3917 0.6348-0.1181 0.25101-2.997 0.3986-3.4694 0.3986z" class="fil0"/>
  <path id="svg_123" d="m123.91 141.55c-0.088501-0.26581-1.5501-0.2805-1.432-0.57581 0.8858 0 5.8021 0.1919 5.743 0.1919-0.4134 0.63481-3.7647 0.38391-4.311 0.38391z" class="fil0"/>
  <path id="svg_124" d="m70.985 139.54c-0.1772-0.9301 0.5019-1.7716 0.31-0.02951-0.1033 0-0.2067 0.014801-0.31 0.02951z" class="fil0"/>
  <path id="svg_125" d="m68.933 138.68c-0.1476-0.4429-0.2362-0.4724 0.3396-0.1919 0 0.26579-0.059097 0.1624-0.3396 0.1919z" class="fil0"/>
  <path id="svg_126" d="m122.02 138.3c-0.1181-0.4725 5.0491-1.063 5.2115-0.6496 2.0522 0-4.1485 0.38379-4.2371 0.62009-0.3248 0-0.6496 0.014709-0.9744 0.02951z" class="fil0"/>
  <path id="svg_127" d="m68.343 138.06c-0.059097-0.3248 0.3838-0.25099 0.31 0h-0.31z" class="fil0"/>
  <path id="svg_128" d="m117.09 137.06c0-0.66429 3.9861-0.35429 4.1338-0.7972 0.073799 0 5.9792-0.1476 6.1416 0.5463 1.0335 0-0.8415-0.014801-1.2254-0.014801 0-0.4429-6.2892-0.014801-8.2233 0.02951-0.073799 0.3396-0.4872 0.2215-0.8267 0.23619z" class="fil0"/>
  <path id="svg_129" d="m101.59 136.82c-0.17709-0.17709 0.044304-0.9153 0.2658-0.98909 0.0886-0.4725 1.9192-0.26581 0.7086 0.4576 0 0.029602-0.8267 0.4872-0.9744 0.53149z" class="fil0"/>
  <path id="svg_130" d="m117.56 133.96c0-0.7234 0.3691-2.7608 1.1516-2.8346 0.1033 0.3691-0.502 2.746-1.1516 2.8346z" class="fil0"/>
  <path id="svg_131" d="m77.703 133.15c0-0.2657 2.185-1.9636 1.8307-2.8641-0.8563-0.42819 1.0482-5.2706 1.2696-6.1564 0.029602 0 1.5797-1.624 1.1811-0.3987-0.9596 0.3101-0.5167 4.621 0.059097 2.8789 0.029503 0 1.3139-2.1259 1.7716-2.3474 0.1181-0.3838 1.373-1.6535 1.6388-1.7864 0.4281-2.746 0-4.4438-0.62009-6.9536-0.5167-0.251-0.8711-1.4468-1.5502-1.6683-0.1624-2.1555-3.0413-3.4251-3.558-5.5068-0.871 0-2.3326-7.1456-2.5984-7.2341 0-0.1624-0.3691-2.0669-0.014702-1.9488 0 0.9006 1.5058 7.3375 2.244 7.5737 0.059097 0.8563 2.0374 4.1338 3.0265 4.4586 0.073898 0.3838 0.7382 0.69389 0.8859 1.1663 0.2509 0-0.1772-1.9783-0.1772-2.4065 1.0334 0 1.2844 2.9675 1.7716 3.1299 0.1772 2.0522 0-3.0708 0.8858-1.2844 1.8602 0.9301-0.5757 5.2263 0.5463 5.5954 0 0.1476-0.9006 1.1958-0.1919 1.432 0.058998 1.816 0.3986 4.2519-1.3878 5.1378-0.4134 0.8415-1.7421 1.2549-1.8602 2.5983-0.6791 0-0.3986 1.4764-0.9744 1.6683-0.059097 0.25101-0.2215 0.2215-0.2658 0.57581-1.9045 0.4724-1.7568 4.1338-3.9123 4.3405z" class="fil0"/>
  <path id="svg_132" d="m100.78 131.51c-0.2509-0.51671 2.185-2.2588 2.5246-1.7568 0 0.7086-1.9488 1.683-2.5246 1.7568z" class="fil5"/>
  <path id="svg_133" d="m107.91 131.12c0-1.3435-0.26569-2.1112 0.9744-1.875 0.3691 1.1368 0.9006 1.8159-0.9744 1.875z" class="fil0"/>
  <path id="svg_134" d="m108.34 130.48c-0.1624-0.3248 0.0886-0.59059 0.0886-0.073792-0.029594 0.014694-0.059097 0.044296-0.0886 0.073792z" class="fil3"/>
  <path id="svg_135" d="m80.05 129.69c-0.31-0.31 0.3691-4.0157 0.62009-4.1338 0.871 0.4282 0.32481 3.4104-0.502 3.8976 0 0.10341-0.058998 0.1772-0.1181 0.23621z" fill="#ff0" class="fil5"/>
  <path id="svg_136" d="m104.26 129.43c-0.2509-0.502 0.4872-1.5945 0.4872-0.4577-0.2952 0.1919-0.088501 0.3986-0.4872 0.4577z" class="fil3"/>
  <path id="svg_137" d="m106.52 128.84c-1.4616 0-0.059105-4.4438-0.1329-5.0934-0.561 0 0-1.8011 0.4577-0.8858 1.1958 0.3986 1.6092 4.7539 0.6643 4.9901-0.044304 1.0334 0.0886 0.9596-0.9891 0.9891z" fill="#ff0" class="fil5"/>
  <path id="svg_138" d="m116.71 120.05c-0.058998-0.1919-2.6574-0.6643-1.0925-0.6643 0.1919 0.7972 4.311-0.4725 4.311 0.4281-1.2402 0.029495-2.0079 0.2067-3.2185 0.2362z" class="fil0"/>
  <path id="svg_139" d="m118.61 118.81c-0.1033-0.51669 5.1082-0.3396 2.9823-0.1919-0.0886 0.3986-2.4951 0.1919-2.9823 0.1919z" class="fil0"/>
  <path id="svg_140" d="m117.09 118.6c0-0.3543 0.5905-0.32481 0.5905-0.029503-0.1919 0-0.3838 0.014702-0.5905 0.029503z" class="fil0"/>
  <path id="svg_141" d="m83.091 118.19c-0.014801-0.2362 0.4134-0.7825 0.3396-0.029503-0.1034 0-0.2215 0.014702-0.3396 0.029503z" class="fil0"/>
  <path id="svg_142" d="m114.92 117.98c-0.10329 0-0.073799-0.1329-0.073799-0.1919 0.2215-0.059097 0.2658 0.1329 0.073799 0.1919z" class="fil0"/>
  <path id="svg_143" d="m85.394 115.71c-0.1476-0.31 0.4429-2.8346 0.4724-2.8198 0 0.3838 0.073906 2.7608-0.4724 2.8198z" class="fil5"/>
  <path id="svg_144" d="m81.438 114.66c-0.044296-0.1919-0.014793-0.1919 0.16241-0.1919 0 0.1772 0.029495 0.1919-0.16241 0.1919z" class="fil0"/>
  <path id="svg_145" d="m84.154 113.88c-0.044304-0.044197-0.25101-1.5501 0.1328-1.1663 0.029602 0.4577 0.4577 1.0187-0.1328 1.1663z" class="fil5"/>
  <path id="svg_146" d="m126.01 113.26c-0.1329 0-0.073799-0.4725-0.073799-0.5758 0.3248-0.0886 0.25089 0.51669 0.073799 0.5758z" class="fil0"/>
  <path id="svg_147" d="m115.9 108.54c-0.1181-0.3838-4.1928-1.6535-4.8129-2.2736-1.1811-0.1623-0.3986-1.0482-0.1476-0.26569 0.9744 0.10339 2.3769 1.2401 3.4546 1.5059 0.073898 0.2362 3.1152 1.0334 1.5059 1.0334z" class="fil0"/>
  <path id="svg_148" d="m106.86 108.34c-0.1624-0.4872-1.1515-1.6092 0.1329-1.6092 0.14761 0.4724 1.0777 1.4616-0.1329 1.6092z" class="fil0"/>
  <path id="svg_149" d="m106.65 107.72c0-0.1033 0-0.3248 0.1477-0.1771 0 0.1033-0.044296 0.1329-0.1477 0.1771z" class="fil3"/>
  <path id="svg_150" d="m122.52 107.72c-0.9744-0.9744-5.6102-0.2362-6.0826-1.4468-1.624-0.0886-5.5954-2.2145-6.747-3.3661 0-0.251 0.2067-9.9211-0.6348-10.763-0.1181 0-0.6348-3.1004-0.9596-3.1004-0.044296-0.5462-1.7569-4.1485-1.0778-3.8828 0 0.502 0.8711-0.3691 0.014801-0.6496-0.1772-0.5315-0.7972-1.7273-0.4282-0.2214-1.1958 0.5905-2.3769-1.9341-3.366-1.1959-1.3731-0.812-0.1772-1.2106-1.6683-1.2106-0.6496-0.6496 1.0482-1.9488-0.4577-1.1958 0 0.5314-0.7529-1.2107 0.14761-1.5059 0-0.014801-1.8749 0.2067-0.59051-0.4282 0.1772-1.4911 3.0708-1.7864 4.1043-1.5354 0 0.5463 1.373 0.1181 1.432-0.4724-2.1112-0.1181-0.8563-2.687-0.7972-4.2372 0.3839-0.2509 0.029495-1.5501 0.5758-1.7273 0.0886-0.7825 1.8159-6.4664 2.4803-3.4842 0.812 0.1919 0.9005 5.6249 1.0039 1.6978-0.044296 0-1.5207-3.3661-1.373-3.7499 0.3248-0.1034 1.7568-1.9783 1.8307-2.1998 1.9635-0.2805 3.4989-1.683 4.119 1.1516 1.1663 0.3838 0.1181 7.6032 0.9449 7.8689 0.14761 1.1221-0.0886-3.1151 0.4429-3.3808 0.369-0.753 1.8897-4.6948 3.7056-3.9714 0.66441 1.3287 2.0226 1.3582 2.0226 3.4104-0.1181 0-0.57581 1.3582-1.1811 1.4911 0 0.1771-1.624-0.2953-2.0816-0.2953-0.192-0.5905-0.9301 0.41341-0.029602 0.8563 0 0.9892-1.9487 3.307-0.3986 4.3405 0.073799 1.3435 1.1221 1.4025-0.9448 1.4025-0.1624-0.2214-0.4577-2.2588-0.8711-2.2588 0 0.8711 0.9006 2.3917-0.17709 2.5098 0 0.5463-0.192 0.6939 0.85619 0.1772 0.7825 0 3.0413 0.2952 0.5463 0.3838-0.1624 0.5463-2.2293 0.23621-1.9931 0.8268 1.2254 0 2.2145 0.014694 3.8238-0.014801 0.10329-0.3248 3.5285-0.31 3.4694-0.1919-0.7529 0.073799-2.1555 0.6053-2.2145 1.4025 0.044296 0.014793 4.0452-0.91531 4.1633-0.9744 0.812-0.014702 3.2627-0.4724 3.7942 0.059097-0.1771 0.3543-3.8385-0.1181-4.0452 0.7086-0.6201 0.073898-4.4143 0.8711-4.5472 1.4321-0.369 0-0.31-0.0886-0.5314-0.1624-0.2215-1.8307-5.6988-1.2697-6.2303 0.3543-1.6535 0.5463-1.6387 2.2736-1.373 3.9124 0.029495 0 1.7716 1.624 1.7864 1.683 0.9301 0-0.5758-1.4616-0.8415-1.7273 0.014694-3.1889 1.2992-3.2628 3.5728-4.3996 0.871-0.029503 1.3877-0.2805 2.185 0.029602 0.1919 0.3986 1.5944 2.0964 1.0777 2.2588 0 0.2362-0.4577 3.6909 0.014801 1.8012 0.7234-0.3544-0.1919-2.2441 0.7234-2.7018 0.9301-1.875 7.5294-2.3769 8.7253-0.3838 0.22139 0.073807 0.9744 0.7824 1.1368 0.75291 0-0.9006-1.9045-1.4468-2.2736-2.185-1.9045-0.1476 2.244-0.502 2.3178-0.251 0.8268 0 5.433-0.3543 5.7578 0.6349 2.126 0.1181 3.5581-1.3878 6.0088-1.3878 2.0669 2.0669-1.9931 4.1633-1.9045 5.492 2.2145 0.1772 0.6496 7.5442-0.84149 8.2824 0 0.871-4.6801 4.621-5.5659 4.7096-0.3691 1.1368-7.1898 3.2627-8.3857 3.4251 0 0.2067-0.1624 0.1919-0.2362 0.3396 0.5905 0.5905 3.2332-0.5315 3.2627-0.50201 0 3.4547-3.7647 1.5207-5.4477 0.9596-0.3396-1.0482-4.8277-1.1368-5.4625-2.4064-2.1703-0.3101-5.5954-5.6102-5.6692-7.5737-1.0925-0.5463-0.1477-3.1742-0.8268-3.1004 0 0.8415-1.0482 0.3396-0.8563 0.3986 0.044304 1.1221 1.2106 6.2007 2.2441 6.5403 0.3986 2.8198 4.7538 4.6653 7.0274 5.8021 0.2805 0.8563 2.7313 0.7824 3.0856 2.1997 1.2254 0-0.0886-0.1624 0.2215-0.5905 1.4616 0-0.6496-0.7086 0.7972-0.3543 0 0.5905 3.0413 1.0039 3.2628 1.2254 0 0.5167-0.1329 5.5363-1.4026 4.5914-0.073799-0.2214-1.8897 0.073799-2.1702 0.073799z" fill="#f00" class="fil1"/>
  <path id="svg_151" d="m106.09 105.01c-0.2657 0-0.2214-1.5501-0.2067-1.5797 0.8268 0 0.7382 1.4321 0.2067 1.5797z" fill="#ff0" class="fil5"/>
  <path id="svg_152" d="m121.67 101.79c-0.3101 0-0.2953-0.753 0.1181-0.6201 0 0.251 0.4577 0.4577-0.1181 0.6201z" class="fil5"/>
  <path id="svg_153" d="m105.09 101.33c-0.69389-0.6939-0.2953-5.7725-0.014793-5.8759 0.19199 0 0.3101-0.014702 0.35439 0.1477 0.91531 0.2952 1.2401 5.5068-0.3396 5.7282z" fill="#ff0" class="fil5"/>
  <path id="svg_154" d="m103.42 99.117c-0.073799-0.073799-0.251-1.1516 0.0886-0.9892 0 0.2658 0.0886 0.812-0.0886 0.9892z" class="fil3"/>
  <path id="svg_155" d="m101.16 95.825c-0.6939-0.6939 1.7864-4.8129 2.2441-5.5659 0.31 0 0.9005 5.5364-0.6496 5.5364-0.0886-0.2805-1.3288 0.029503-1.5945 0.029503z" fill="#ff0" class="fil5"/>
  <path id="svg_156" d="m132.14 95.633c-0.073807-0.3839 1.255-0.3101 1.1516 0h-1.1516z" class="fil0"/>
  <path id="svg_157" d="m133.95 94.777c-0.10339-0.502 1.5059-1.0187 1.5797-0.9153-0.42819 0.4281-0.94488 0.8415-1.5797 0.9153z" class="fil0"/>
  <path id="svg_158" d="m113.25 93.965c-0.1329 0-0.073898-0.44289-0.073898-0.5463 0.3248-0.088501 0.251 0.4872 0.073898 0.5463z" class="fil0"/>
  <path id="svg_159" d="m134.57 93.581c-0.088501-0.4429 2.9675-3.1298 3.6466-3.8089 0.26579-1.6388 1.4173-0.6054 0.4577-0.2953-0.1476 1.2254-2.7608 4.0009-4.1043 4.1042z" class="fil0"/>
  <path id="svg_160" d="m112.68 92.725c-0.3101 0 0.029495-2.1703 0.1181-2.628 0.41341-0.1181 0.1329 2.5541-0.1181 2.628z" class="fil0"/>
  <path id="svg_161" d="m136.2 90.717c0-0.6939 1.4616-1.3878 1.565-2.2293-0.1624-0.1624-0.6349 0.8858-0.53149-0.044304 0.72339-0.2362 1.4025-2.6279 1.9635-2.6279 0 0.7825-0.073792 2.4508-0.9301 2.8789-0.2067 0.6348-1.2992 1.9636-2.0669 2.0226z" class="fil0"/>
  <path id="svg_162" d="m112.18 90.053c-0.3395-1.0483 0.6939-3.3957 0.5906-2.0374-0.5463 0.1329-0.0886 1.9488-0.5906 2.0374z" class="fil0"/>
  <path id="svg_163" d="m111.44 89.049c-0.044296-0.044296 0.1034-2.0816-0.10329-1.4616-1.0482 0 1.0482-2.6279 1.0482-1.6387-0.9596 0.3838 0.5905-0.073807 0.57581-0.029503-0.41341 0.1328-1.2402 3.0413-1.5207 3.1298z" class="fil0"/>
  <path id="svg_164" d="m137.05 87.617c-0.073807-0.3396 1.0778-3.0413 1.2402-2.7018 0.28049 0.1329-0.57581 2.628-1.2402 2.7018z" class="fil0"/>
  <path id="svg_165" d="m111.57 87.425c0-0.2214 0.4282-1.0186 0.5463-1.0482 0 0.2215-0.3691 0.9301-0.5463 1.0482z" class="fil3"/>
  <path id="svg_166" d="m116.32 86.376c-0.0886-0.2657-1.5945-1.4911-0.5168-1.8454 0-1.2106-1.1663-0.6939-1.1663-1.624 1.5354 0 2.5394 0.4577 3.3071 1.6092 0.4429 0.2215 0.4133 1.4764-0.029594 1.6978-0.088501 0.2658-1.2844 0.16241-1.5944 0.16241z" class="fil0"/>
  <path id="svg_167" d="m131.09 85.594c0-0.2067-0.014694-0.4134-0.029495-0.6349 0.812 0 0.502 0.5758 0.029495 0.6349z" class="fil0"/>
  <path id="svg_168" d="m106.09 85.136c-0.251-0.1476-1.2992-0.9596-1.2549-1.0039 0.3543 0 2.3622 0.8267 1.2549 1.0039z" class="fil5"/>
  <path id="svg_169" d="m131.09 84.354c0-1.0777 0.3101-1.1072 0.3101-0.029495-0.10341 0-0.2067 0.014801-0.3101 0.029495z" class="fil0"/>
  <path id="svg_170" d="m107.04 83.734c0-0.48721 0.6053-0.48721 0.6053-0.029602-0.1919 0-0.3986 0.014801-0.6053 0.029602z" class="fil0"/>
  <path id="svg_171" d="m130.66 83.512c-0.073807-0.3248-0.85631-0.9892-0.073807-0.9892 0.044296 0.2658 0.53151 0.8859 0.073807 0.9892z" class="fil0"/>
  <path id="svg_172" d="m138.03 83.306c-0.1033-0.31-1.2106-1.1073-0.2953-1.4025 0.059097-0.8416 2.5098-2.7608 2.5098-1.2549-1.0629 0.1328 0.10341 2.5393-2.2145 2.6574z" class="fil0"/>
  <path id="svg_173" d="m107.91 81.445c-0.029495-0.1181 2.8789-0.9006 3.0413-1.4025 0.3691-0.029602 1.875-1.1221 1.5502-1.4469-0.4429 0-3.558 0.3839-3.7942-0.3543-3.2923-0.3543-2.2736-5.3739 0.1624-6.1859 0.2952-1.5059 4.2666-2.4212 5.5068-2.4655 0.2067 0.7234-2.436-0.029602-0.93011 1.993 1.1072 0.2658 1.8454 5.3149 0.7972 5.8316-0.4429 1.3583-2.3622 2.126-3.2923 3.0561-0.2214 0.8858-2.3178 0.9744-3.0413 0.9744z" class="fil0"/>
  <path id="svg_174" d="m109.58 78.197c-1.0039-1.0039-3.307-1.3139-1.8749-3.4694 0.5462-0.1772 2.0521-2.8937 3.0117-3.3661 0.8268-1.6683 2.1555 0.7234 2.9084 1.1663 0.192 1.1516 1.6093 1.8602-0.62 2.0226-0.029594 0.0886-2.0965 1.6535-1.1073 1.9783 0.044304 0.7234 0.1181 0.5463 0.48721 0.9154 0 0.69389-2.2736 0.7382-2.8051 0.7529z" fill="#fff" class="fil7"/>
  <g fill="#f00">
   <path id="svg_175" d="m124.34 77.002c-0.8268-1.004-4.6653-0.2658-2.5836-1.2992 0.029503-0.2067 1.4616-0.9597 1.8011-1.4173 0.7973 0 4.3405-0.5315 4.3405 0.812 0 0-0.251 1.2401-0.7234 1.4763 0 0.2215-2.5098 0.4282-2.8346 0.4282z" class="fil1"/>
   <path id="svg_176" d="m103.88 76.721c-1.6388 0-1.314-1.5207-1.314-1.4912 0.3691 0.1034-0.059006-0.7086-0.4281-0.7086-0.3839-2.3474 1.8307-0.6201 1.8307-2.687-1.2549-0.4134 0.48721-0.7086 0.7824-0.8563 0.1624-1.3434 0.251 1.9931-0.1624 2.0965 0 0.5167 0.014801 3.4399-0.7086 3.6466z" class="fil1"/>
  </g>
  <path id="svg_177" d="m119.62 76.529c-0.014694-0.029495-0.044197-0.073799-0.073799-0.1181 0.1624-0.16241 0.2658 0.059097 0.073799 0.1181z" class="fil3"/>
  <path id="svg_178" d="m113.44 76.337c-0.1181-0.1181-0.1477-1.0334-0.014801-1.2254 0.8711 0 0.7972 1.1516 0.014801 1.2254z" class="fil3"/>
  <path id="svg_179" d="m120.24 75.481c-0.1624-0.16241-0.014702-0.31-0.2362-0.3838-0.2362-1.6093-2.2588-0.9006-2.3326-1.1959-1.1221 0 0.7677-4.7981 1.5206-2.5098 0.23621 0.029495 1.3583 0.4724 1.4173 0.6348 2.0817 0.1772 1.1073 2.9971 0.812 3.0856 0 0.2805-0.9744 0.3691-1.1811 0.3691z" fill="#fff" class="fil7"/>
  <path id="svg_180" d="m97.722 75.289c-0.6939-0.6939 0.8858-3.809 1.5206-4.119 0.3248-0.6644 2.8199-2.6427 2.8199-1.5797-0.4725 0.1476-1.063 4.5324-1.2402 4.9015-1.0334 0.058998-2.1997 0.5019-3.1003 0.7972z" fill="#ff0" class="fil1"/>
  <path id="svg_181" d="m118.83 75.097c-0.3396-0.3396 0.4724-0.6939 0.4724-0.073799-0.044296 0.044197-0.044296 0.044197-0.4724 0.073799z" class="fil3"/>
  <path id="svg_182" d="m122.52 74.713c-0.192-0.3986-0.059105-1.3435-0.059105-1.8011 0.2215-0.1034 1.3583 1.624 0.059105 1.8011z" class="fil1"/>
  <path id="svg_183" d="m102.64 74.521c-0.014801-0.014801-0.044304-0.029503-0.073898-0.044304 0-0.3986 0.3691-0.044296 0.073898 0.044304z" class="fil0"/>
  <path id="svg_184" d="m106.28 74.521c-0.1034-0.4577-0.6054-0.4282-0.66441-1.0187 0.0886-0.014801 1.4911 0.9153 0.66441 1.0187z" class="fil0"/>
  <path id="svg_185" d="m115.54 73.665c-0.251-0.251 0.1772-0.6939 0.1034-0.014801-0.029602 0-0.059097 0-0.1034 0.014801z" class="fil0"/>
  <path id="svg_186" d="m122.52 72.661c-0.2953-0.6053 0.5462-0.3691 0.1181-0.1624 0 0.1181-0.014793 0.1329-0.1181 0.1624z" class="fil3"/>
  <path id="svg_187" d="m103.23 72.454c-0.073799-0.1476 0.044304-0.2658 0.1919-0.3691 0.1624 0.029503-0.1033 0.2953-0.1919 0.3691z" class="fil1"/>
  <path id="svg_188" d="m122.72 71.613c-2.0817-1.2402-1.2254-0.3248-0.7382-1.7864 0.6053-0.1181 0.2215-1.6831 0.8858-0.6939 1.9636 0.1329 1.624 2.2293-0.1476 2.4803z" fill="#f00" class="fil1"/>
  <path id="svg_189" d="m102.83 71.421c-0.3986-0.6053 0.62-0.3838 0.4429-0.029495-0.1477 0-0.2953 0.014793-0.4429 0.029495z" class="fil3"/>
  <path id="svg_190" d="m103.88 71.022c-1.4468 0 0.1181-3.5728 0.5315-1.9045 0.2805 0.0886 0.1181 1.8159-0.5315 1.9045z" fill="#f00" class="fil5"/>
  <path id="svg_191" d="m120.47 70.565c-0.1033-0.10339 0.9301-2.1851 0.9449-2.7756 0.6496-0.6496 0.6644 1.7273 0.1772 1.8455 0 0.14761-1.0482 0.9153-1.1221 0.9301z" class="fil1"/>
  <path id="svg_192" d="m105.09 70.181c-0.2953-0.6053-0.044296-1.7864-0.8563-2.0521-0.058998-0.753 2.5836-3.8681 3.3809-3.8681 0.073799 0.1624-1.7569 3.1742-1.8307 3.8681-0.3396 0-0.4282 1.7864-0.6939 2.0521z" fill="#f00" class="fil1"/>
  <path id="svg_193" d="m103.02 66.49c-0.3838-0.3838 0.4872-1.1515 0.4872-0.058998-0.059097 0.029503-0.059097 0.029503-0.4872 0.058998z" class="fil3"/>
  <path id="svg_194" d="m109.58 66.298c-0.3691 0 0.2362-1.5502-0.2657-1.6683 0-0.6939 0.9744 1.4321 0.2657 1.6683z" class="fil0"/>
  <path id="svg_195" d="m115.73 65.914c-0.5462-0.6791-0.3395-2.6279-1.2992-2.9379-0.1919-0.5906-0.8267-0.5315-0.7677-1.3435 0.6201-0.31 2.7018 0.9449 2.8346 1.5206 1.1959 0.3987-0.2805 2.2736-0.7677 2.7608z" fill="#f00" class="fil1"/>
  <path id="svg_196" d="m104.26 65.442c-0.8267-1.0335-0.5019-2.938-1.9487-3.5137-0.2067-0.6201-5.7283-1.3287-4.0305-2.1703 0.5315-0.014702 2.9822-2.9674 3.4694-1.5059 1.063 0.1034 5.7283 2.2293 6.1564 3.1004 1.565 0.1919 0.8859-1.0482 1.4764-1.8307 0.1624 0.073799 0.014801 0.4724 0.2953 0.3691 0.073799-1.3878 1.0925 1.2697 1.9045-0.3691 0.6791-0.2214 3.3956-3.3956 3.4989-3.9123 0.7677-0.3839 0.6496-3.1594 1.7274-3.248 0.1033-2.3622 1.0334 0.5462 1.122 1.1811 0.48721 0.1624-0.0886 4.5471-0.6791 5.1377-0.4134 0.1033-0.8711 1.9931-1.1516 2.0816-0.1181 1.4469-3.8976-1.0186-4.3552 0.3839-1.5059 0.1033-2.8642 0.5167-3.2923 1.8159-0.9301 0.073799-3.5728 1.4911-3.8828 2.4508-0.1034 0-0.2067 0.014702-0.3101 0.029503z" fill="#ff0" class="fil1"/>
  <path id="svg_197" d="m107.72 62.622c-0.014702-0.1182-0.029503-0.2363-0.044304-0.3544 0.192-0.0443 0.6644 0.3544 0.044304 0.3544z" class="fil0"/>
  <path id="svg_198" d="m115.93 50.102c-0.059105-0.073902-0.059105-0.073902-0.059105-0.192 0.1772 0.014801 0.2657 0.1329 0.059105 0.192z" class="fil3"/>
  <path id="svg_199" d="m103.83 157.97c-0.042503-0.954-0.3358-1.8358-1.515-2.0905-0.2658-0.812-3.8386-2.4065-2.4951-3.3071 0.251-1.5797 1.7569-6.053 3.1004-6.9388 0.2805-1.1516 0.9891 0.39859 1.2549 0.39859 0-1.4468 0.1919-4.7834-0.6349-5.6102 0-1.8454 0.7234-2.0669 2.2293-2.5688 0-1.1811-4.5176 0.8858-4.9015 2.0373-0.50191 0.1624-1.5206 2.5246-2.0373 1.4764-0.3839 0-0.9597 4.4881-2.0374 4.7539 0 0.4576 1.934 3.4694 0.5905 3.6761 0 0.4429 0.3543 0.3691 0.4282 0.7529-1.2106 0.26579-0.251 2.9675 0.7972 3.1299 0.502 1.0039 3.2627 2.997 4.311 3.248 0 0.7086 0.2214 3.4842-0.7382 3.0708-0.3986 0.39859 1.1368 0.7972-0.044296 1.0482-0.1772 0.56099-1.063 3.8976-0.073799 4.5472 0 0.2067-0.2953 0.67909-0.5315 0.7972-0.044304 0.59061-0.812 1.9045-0.812 0.87111 0.5462-1.0925-0.1772-2.3031-0.2953-3.3809-0.3838-0.059006-1.4616-1.7864-1.5649-0.85629-1.314 0.5168-0.1772 3.9124-2.4508 4.4144 0 0.6348-1.5944 0.1476-0.4576-0.53151 0.044205-0.3544 0.561-1.8898 0.812-2.0522 0.014702-1.0629 0.2509-1.3877-0.029602-1.9488-1.2401 0-3.4251 1.9931-3.8533 0.014801-1.0186-0.67911-0.26569-2.7165 0.8563-0.47241 1.6388 0.059006 1.1811-0.014786 2.0669-1.2106 0.7234 0 1.8012-1.004 2.3917-1.2992 0.0886-1.2106 0.1919-2.4508 0.1919-3.7943-1.0777-0.2067-1.181-3.0856-2.3769-3.0856-0.32481-1.3434-3.1003-1.5797-1.8159-4.1485 0.31-0.10339 1.2992-2.6427 1.3878-3.0265 0.1919-0.059097-0.1624-3.9272 1.373-4.1929 0.33949-0.69389 0.9744-0.3396 0.9153-0.3396-0.3691-0.9301 2.5836-1.4911 0.3839-1.6092-0.014801 0.044296-1.8602 1.8455-1.4321 0.75299 1.1368-0.3691 1.5945-2.0669 2.7903-2.6575 0.3543-1.063 0.9597-4.5915 2.0669-5.1377 0.2215-0.4429 2.2293-2.1703 2.3179-1.0482 0.7382 0.20671 1.0187-1.5502 1.2401-0.56099 1.1811 0.38379-0.2805-2.7165 1.004-2.2146 0.9744 1.9636 2.8936-2.1259 2.1554-2.8641-0.029503 0-0.8267-2.997-0.9448-3.307-2.1998-0.4282-0.2805-4.7687-0.2215-6.2893 0.3248-0.3248 0.9154 2.0226 1.2106 1.9045-0.073807-3.9714-2.1259-7.2785-2.4507-11.191-0.2067 0-0.3986-1.4321-0.2953-1.6535 3.1151 0-0.0886-4.2224-0.3248-2.3179-0.1919 0.1919-0.14761-0.3543-0.32481-0.3543-0.3986-1.2106 1.0187-1.0482 1.2402-2.0669 0.6053-0.2953 0.2657-5.3001-0.6349-5.5954-0.2214-0.66441-1.7126-0.7825-0.6053-2.997 0.561-0.2805-0.9744-9.7735 1.0039-5.8021 1.8898 0.6201 2.4508 9.2863 3.0266 9.4782 0.1181 5.8021 0.6791 11.501 0.8858 17.214 0.4726 0-0.1156 1.5255 0.1478 1.9364 0.1005 1.3619 0.4892 4.6181 0.4702 4.7282-0.069397 0.4039 0.1171 1.0499 0.3711 1.352 0.7686 0.914 1.0562 4.6267 1.9809 5.5865-0.1687 0.5759 0.088493 2.1538-0.1207 2.2235-0.044197 1.1515-2.3769 8.9762-3.1003 9.2124-0.1033 0.4872-0.9301 3.3956-1.2401 3.499-0.010895 0.30429-0.5574 2.4956-0.7217 3.6315-0.0355 0.1866-0.073204 0.42209-0.037399 0.60689-0.004906 0.88771 0.1027 2.3041 0.187 2.6598 0.1365 0.57581 0.3063 1.3103 0.1882 1.3103-0.2067 0.85629-2.0106 5.4738-2.436 5.9645-0.4391 0.50661-1.2727 1.4292-1.8215 2.2234z" fill="#f00" class="fil1"/>
  <path id="svg_200" d="m139.21 169.96c-0.2538 0.1102-0.6599 0.33881-0.7399 0.59761-0.1317 0.037994-0.283 0.0858-0.45711 0.14339-0.50189 1.5354-1.1958-0.67909-0.2509-1.314 0-3.3808-0.4872 1.2992-1.2106 1.7274-0.014801 0.1181-0.029602 0.25101-0.044312 0.3838-0.70869 0.23619-2.9675 0.9449-3.1742 1.5945-1.8454 0.1772-3.5875 1.4321-5.5511 1.683 0 0.3544-1.8454 0.26579-1.8454 0.6053-2.1998 0.1182-4.0896 0.7235-6.3779 0.8268 0 0.014801-12.475 0.42821-12.741-0.3691-1.2844-0.36911-3.8533 0.4429-4.0895-1.6387-0.3248 0-0.871-3.7352-1.3582-3.8976-0.073799-0.85631-0.5758-0.9449-0.2805-1.8602 1.0039-0.1181 1.063-1.1516 1.6387-1.5354 0-0.502-0.5019-6.4222 1.0482-7.3523 0.004204-0.095688 0.009903-0.1942 0.0159-0.295 0.4852-0.3784 1.3852-1.4095 1.6229-1.8309 0.7947-1.4096 4.2858-7.9514 2.7579-9.1751-0.060997-0.048904-0.1822-2.0061-0.2519-2.7899 0.3569-1.3149 1.0957-5.2707 1.554-5.3822 0.1771-2.0522 0.9891-0.9744 2.3474-1.7864 1.373 0 8.4152 0.73819 8.5924 0.2067 0.2657-0.088593-9.3158-0.23621-10.216-0.23621-0.2953-0.45769 1.1663-2.5394 1.1663-3.189 0.073799-0.1328 0.5315-1.5354 0.7382-1.5354 0.3543-2.185 0.91531-3.3218 3.3366-3.499 0.2805-0.84151 7.3522-1.3287 7.3522-1.4025-0.3395 0-1.6092-0.23621-1.6092-0.044312-0.7382 0.02951-6.2598 0.53151-6.3483 1.2402-2.8051 0.31-1.2254-0.3101-1.6536-3.3957-0.034904-0.011299-0.066002-0.012802-0.093803-0.006203-0.0065-0.6661-0.1867-2.207-0.3195-2.3116-0.4034-0.3178-1.3372-4.092-1.624-4.7244-0.058502-0.1288-0.55901-2.981-0.8492-4.3261 0.002602 0.000099 0.005005 0.000397 0.007599 0.000397 0-3.8385-0.7677-7.869-0.5905-11.589 0.2067-0.2067 2.1555 1.2844 2.7017 1.373 0 1.0482 8.2086 3.0265 9.3011 3.0708 0.029503 0.059105 4.9015 0.4429 3.4251 0.812-0.3395 0.6792-2.4803 0.4134-3.1151 0.4134-0.1329 0.4872 2.7017 0.2067 3.2185 0.2067 0.3543 0.35429-1.1516 4.3257-1.2106 5.1082-0.2363 0-1.3583 4.4586-1.7717 4.5619-0.251 1.5059-0.9744 1.7274-2.4655 1.8012 0 0.073799 2.3031 0.3986 1.0039 1.0482-0.088501 0.8268-2.1702 3.3809-1.993 3.8385 0.5462 0 2.1259-2.0521 2.244-2.6131 0.3248-0.1624 1.0925-2.0965 1.3583-1.9636 0 1.624 0.044304 2.746 0.4429 4.3553 0.9596 0.31-0.192 1.8011-0.2067 1.8749-0.7677 0.029602-4.7982 0.5611-4.9163 1.0335 1.9193 0 3.9271-0.8415 5.8907-0.7825 0.0886 0.3839 0.8858 1.7274 0.5758 2.0374-0.1477 0-2.7461 0.014801-2.5541 0.3986 3.2627 0.029495 2.9527 0.1624 4.0895 2.436 0.3248 0.1624 1.7716 2.9232 1.8454 3.307 1.0039 0.3248 1.7569 3.3366 1.8307 4.2667 0.87099 0.42821-1.3435 5.0639-1.4911 6.1416-0.32481 0.20671-1.8012 2.0817-1.624 2.1408 0 0.53149 1.4025-0.7825 1.8011-0.87111 0.42821-1.7126 2.1998 3.7943 2.687 4.1191 1.3287 1.993 2.6574 4.119 3.5433 6.3335 0.2657 0.088593 0.84151 1.373 0.2214 1.5207 0 0.42808-0.1772 0.42808 0.7972 0.5757 0.2215 0.6792 1.6831 2.8642 0.4725 3.2628-0.088608 0.32481 0.3691 1.3287-0.25101 1.6387 0 2.1703 0.85631-3.6613 1.4764-0.84149 0.3331 0.1071 1.9126 3.9345 2.575 5.8102-0.1366-0.028107-0.282-0.005905-0.4037 0.062897z" fill="#ff7f00" class="fil2"/>
  <path id="svg_201" d="m119.42 191.58c-1.0925-0.5463-9.3748-0.561-9.7882-1.3878-0.8858-0.073792-6.186-0.8268-5.5954-2.3031 1.0039-0.502 0.1772-6.5993 0.1033-7.7361-0.4576-0.3101-0.2067-2.5541 0.059097-1.7569 0.044304 0 1.9783-0.1181 2.0817 0.2067 1.8454 0.044296 9.6553 0.7234 9.5224 0.044296-2.1702-0.029495-11.678-0.1919-12.062-0.9744-0.2657-0.029495-1.7716-2.1112 0.251-1.8307 0.1624 0.51671 5.8611 0.59061 6.555 0.81201 0 0.044296 10.246 0.4429 10.453-0.19191 1.1368-0.4577 7.0127-0.57579 7.4704-1.5059 1.9045 0 4.9605-1.4173 6.6288-2.2441 0.5168-1.0334 0.9744 1.0483 1.2845-0.39859 0.50191-0.1624 2.3917-1.7568 2.2145-0.81201-0.1476 0-0.35431 1.1811-0.81201 1.2845 0 0.02951-2.1702 1.5649-2.2588 0.7381-0.3101 0-0.3986 0.38391-0.41341 0.64961-0.42819 0.13289-2.7608 1.0778-2.8346 1.4173 0.1919 0 3.1003-0.8562 1.6387-0.1328 0 0.4429 1.4173-1.1221 2.185-1.314 0.1624-0.4872 0.9892-0.6644 1.3878-0.812 0.35429 0.35431-0.94481 1.7569-0.94481 2.2588 0.7677 0 1.432-2.4802 2.2588-2.8936 0.013199-0.5578 0.1412-1.0242 0.2572-1.3851 0.10109-0.007202 0.18449-0.044205 0.2733-0.087601 0.14009-0.070206 0.2744-0.151 0.41499-0.2213v-0.000107c0.072098-0.036194 0.1356-0.086792 0.1868-0.14819 0.81891 0.4792 0.44 7.2481 0.90511 7.3934 0 1.0334-0.76781 2.7312-0.75301 2.6869 1.2549-0.4133-1.7126 4.9311-1.8454 5.4921-0.3248 0.05899-1.875 3.0413-2.377 3.5432-0.9596-0.7677-2.7903 0.28059-4.2223 0.42819-0.11821 0.1772-1.9636 0.561-1.7864 0.19191 1.4468-0.20671 2.6131-1.1515 4.0009-1.4911 0.088593-0.1919 2.8346-1.4764 1.683-1.3582 0 0.5314-5.9497 2.746-6.7469 2.8641 0 0.2657-3.9124 0.812-3.9124 0.9301-1.8159 0.014801-3.6318 0.029495-5.4625 0.044296z" fill="#f00" class="fil2"/>
 </g>
</svg>
