<?xml version="1.0" encoding="utf-8"?>
<!-- Generator: Adobe Illustrator 18.1.1, SVG Export Plug-In . SVG Version: 6.00 Build 0)  -->
<svg version="1.1" id="Ebene_1" xmlns="http://www.w3.org/2000/svg" xmlns:xlink="http://www.w3.org/1999/xlink" x="0px" y="0px"
	 viewBox="0 0 1000 500" enable-background="new 0 0 1000 500" xml:space="preserve">
<g>
	<path fill="#EA5B0C" d="M122.4,405.3c0,0-6,41,10,54c0,0,5-3.1,14-16c0,0,3,12,11,16c0,0,16-10,17-15c0,0,3.7,11,11.3,15
		s18.1-36,18.1-36L122.4,405.3z"/>
	<path fill="#EA5B0C" d="M345.3,405.3c0,0,6,41-10,54c0,0-5-3.1-14-16c0,0-3,12-11,16c0,0-16-10-17-15c0,0-3.7,11-11.3,15
		s-18.1-36-18.1-36L345.3,405.3z"/>
	<path fill="#E887B3" d="M374.4,179.3c-4.7-15.1-10.4-28.2-16.7-39.6c0,0,0,0,0,0c26.3-36.6,4.7-119.4,4.7-119.4
		c-49,2-74.8,54.5-74.8,54.5v0c-33.2-13.9-61.8-10.5-61.8-10.5s-20.1-2.4-46.1,5c-8.2-13.5-32.5-47.4-71.7-49
		c0,0-16.2,62.1-3.4,102.6c-10.7,14.8-20.1,33.3-27.4,56.4c-40,128,0,201,0,201s33.3,63,148.6,55c115.4,8,148.6-55,148.6-55
		S414.4,307.3,374.4,179.3z"/>
	<path fill="#EA5B0C" d="M208.9,198.5c0,0,0.5,26.8,23.5,45.8c0,0,27-25.6,23.5-45.8S229.5,143.7,208.9,198.5z"/>
	<path fill="#E71D73" d="M357.7,139.7c0,0-113.3,173.6,59.7,273.6C417.4,413.3,422,241,357.7,139.7z"/>
	<path fill="#E71D73" d="M104.5,122.8c0,0,113.3,173.6-59.7,273.6C44.8,396.4,40.2,224.2,104.5,122.8z"/>
	<circle fill="#FFFFFF" cx="185.7" cy="157.9" r="46.7"/>
	<circle fill="#FFFFFF" cx="279.1" cy="157.9" r="46.7"/>
	<circle stroke="#FFFFFF" stroke-width="0.3624" stroke-miterlimit="10" cx="277.5" cy="161.6" r="18.1"/>
	<circle stroke="#FFFFFF" stroke-width="0.3624" stroke-miterlimit="10" cx="185.7" cy="161.6" r="18.1"/>
	<path fill="#E71D73" d="M121.3,105.3c0,0-9-47.2,4.1-62c0,0,37.4,13,42.2,35C167.6,78.3,146,77.1,121.3,105.3z"/>
	<path fill="#E71D73" d="M351.4,111.3c0,0,9-47.2-4.1-62c0,0-37.4,13-42.2,35C305.1,84.3,326.7,83.1,351.4,111.3z"/>
</g>
<g>
	<path fill="#EA5B0C" d="M537.4,405.3c0,0-6,41,10,54c0,0,5-3.1,14-16c0,0,3,12,11,16c0,0,16-10,17-15c0,0,3.7,11,11.3,15
		s18.1-36,18.1-36L537.4,405.3z"/>
	<path fill="#EA5B0C" d="M760.3,405.3c0,0,6,41-10,54c0,0-5-3.1-14-16c0,0-3,12-11,16c0,0-16-10-17-15c0,0-3.7,11-11.3,15
		s-18.1-36-18.1-36L760.3,405.3z"/>
	<path fill="#36A9E1" d="M789.4,179.3c-4.7-15.1-10.4-28.2-16.7-39.6c0,0,0,0,0,0c26.3-36.6,4.7-119.4,4.7-119.4
		c-49,2-74.8,54.5-74.8,54.5v0c-33.2-13.9-61.8-10.5-61.8-10.5s-20.1-2.4-46.1,5c-8.2-13.5-32.5-47.4-71.7-49
		c0,0-16.2,62.1-3.4,102.6c-10.7,14.8-20.1,33.3-27.4,56.4c-40,128,0,201,0,201s33.3,63,148.6,55c115.4,8,148.6-55,148.6-55
		S829.4,307.3,789.4,179.3z"/>
	<path fill="#EA5B0C" d="M623.9,198.5c0,0,0.5,26.8,23.5,45.8c0,0,27-25.6,23.5-45.8C667.4,178.3,644.5,143.7,623.9,198.5z"/>
	<path fill="#312783" d="M772.7,139.7c0,0-113.3,173.6,59.7,273.6C832.4,413.3,837,241,772.7,139.7z"/>
	<path fill="#312783" d="M519.5,122.8c0,0,113.3,173.6-59.7,273.6C459.8,396.4,455.2,224.2,519.5,122.8z"/>
	<circle fill="#FFFFFF" cx="600.7" cy="157.9" r="46.7"/>
	<circle fill="#FFFFFF" cx="694.1" cy="157.9" r="46.7"/>
	<circle stroke="#FFFFFF" stroke-width="0.3624" stroke-miterlimit="10" cx="692.4" cy="161.6" r="18.1"/>
	<circle stroke="#FFFFFF" stroke-width="0.3624" stroke-miterlimit="10" cx="600.7" cy="161.6" r="18.1"/>
	<path fill="#312783" d="M536.3,105.3c0,0-9-47.2,4.1-62c0,0,37.4,13,42.2,35C582.6,78.3,561,77.1,536.3,105.3z"/>
	<path fill="#312783" d="M766.4,111.3c0,0,9-47.2-4.1-62c0,0-37.4,13-42.2,35C720.1,84.3,741.7,83.1,766.4,111.3z"/>
</g>
</svg>
