<?xml version="1.0" encoding="UTF-8" standalone="no"?>
<svg viewBox="0 0 408.31262 500.00229" xmlns="http://www.w3.org/2000/svg" xmlns:xlink="http://www.w3.org/1999/xlink">
<defs>
<filter height="1.74128" id="filter3831" width="1.74128" x="-.37064" y="-.37064">
<feGaussianBlur stdDeviation="10.5898"/>
</filter>
<filter height="1.27047" id="filter3845" width="1.09394" x="-.04697" y="-.13523">
<feGaussianBlur stdDeviation="6.7051"/>
</filter>
<linearGradient id="linearGradient4098-0-5-9-4">
<stop offset="0" stop-color="#ffb142"/>
<stop offset="1" stop-color="#c87600"/>
</linearGradient>
<linearGradient id="linearGradient4015-4-5-7">
<stop offset="0"/>
<stop offset="1" stop-opacity="0"/>
</linearGradient>
<linearGradient gradientUnits="userSpaceOnUse" id="linearGradient9195" x1="708.48035" x2="708.4803" xlink:href="#linearGradient4098-0-5-9-4" y1="674.37262" y2="688.45277"/>
<linearGradient gradientUnits="userSpaceOnUse" id="linearGradient9198" x1="708.48031" x2="708.48026" xlink:href="#linearGradient4098-0-5-9-4" y1="674.37262" y2="688.45277"/>
<linearGradient gradientUnits="userSpaceOnUse" id="linearGradient9200" x1="708.4804" x2="708.48035" xlink:href="#linearGradient4098-0-5-9-4" y1="674.37262" y2="688.45277"/>
<linearGradient gradientUnits="userSpaceOnUse" id="linearGradient9202" x1="708.48033" x2="708.48028" xlink:href="#linearGradient4098-0-5-9-4" y1="674.37262" y2="688.45277"/>
<linearGradient gradientUnits="userSpaceOnUse" id="linearGradient9204" x1="708.48038" x2="708.48032" xlink:href="#linearGradient4098-0-5-9-4" y1="674.37262" y2="688.45277"/>
<linearGradient gradientUnits="userSpaceOnUse" id="linearGradient9206" x1="708.48036" x2="708.48031" xlink:href="#linearGradient4098-0-5-9-4" y1="674.37262" y2="688.45277"/>
<linearGradient gradientTransform="matrix(1.55423,2.97648,-2.97648,1.55423,4.66574,-2595.1145)" gradientUnits="userSpaceOnUse" id="linearGradient9208" x1="990.98877" x2="991.80615" xlink:href="#linearGradient4015-4-5-7" y1="237.26962" y2="232.98532"/>
<linearGradient gradientUnits="userSpaceOnUse" id="linearGradient9210" x1="311.07492" x2="314.42505" xlink:href="#linearGradient4015-4-5-7" y1="252.39413" y2="234.83443"/>
<linearGradient gradientUnits="userSpaceOnUse" id="linearGradient9212" x1="699.77836" x2="708.26833" xlink:href="#linearGradient4098-0-5-9-4"/>
<radialGradient cx="488.03571" cy="349.50504" gradientUnits="userSpaceOnUse" id="radialGradient9214" r="41.49114">
<stop offset="0" stop-color="#fff"/>
<stop offset="1" stop-color="#dadada"/>
</radialGradient>
</defs>
<g transform="translate(-514.45522,-198.37285)">
<g transform="matrix(1.0803,0,0,1.0803,-41.31062,-56.07643)">
<path d="m698.4801,672.84894a14.25003,23.02388 0 0,1 -28.5,0 14.25003,23.02388 0 1,1 28.5,0z" fill="url(#linearGradient9195)" stroke="#000" stroke-linecap="round" stroke-linejoin="round" stroke-width="5"/>
<path d="m663.9801,672.84894a14.25003,23.02389 0 0,1 -28.50003,0 14.25003,23.02389 0 1,1 28.50003,0z" fill="url(#linearGradient9198)" stroke="#000" stroke-linecap="round" stroke-linejoin="round" stroke-width="5"/>
<path d="m680.9801,672.84894a14.25003,23.02389 0 0,1 -28.5,0 14.25003,23.02389 0 1,1 28.5,0z" fill="url(#linearGradient9200)" stroke="#000" stroke-linecap="round" stroke-linejoin="round" stroke-width="5"/>
<path d="m775.4803,672.84894a14.25005,23.02392 0 0,1 -28.5001,0 14.25005,23.02392 0 1,1 28.5001,0z" fill="url(#linearGradient9202)" stroke="#000" stroke-linecap="round" stroke-linejoin="round" stroke-width="5"/>
<path d="m740.9803,672.84894a14.25005,23.02392 0 0,1 -28.5001,0 14.25005,23.02392 0 1,1 28.5001,0z" fill="url(#linearGradient9204)" stroke="#000" stroke-linecap="round" stroke-linejoin="round" stroke-width="5"/>
<path d="m757.9803,672.84894a14.25003,23.02388 0 0,1 -28.5,0 14.25003,23.02388 0 1,1 28.5,0z" fill="url(#linearGradient9206)" stroke="#000" stroke-linecap="round" stroke-linejoin="round" stroke-width="5"/>
<path d="m649.7303,649.82107c-5.8064,0-10.78035,5.63036-13.00009,13.68748 18.97119,5.07435 39.81429,8.03419 61.71889,8.43756-.2983-12.28491-6.5429-22.12504-14.2187-22.12504-3.301,0-6.3334,1.82748-8.7501,4.87498-2.4167-3.0475-5.4491-4.87498-8.75-4.87498-3.1858,0-6.1261,1.70482-8.5,4.56243-2.374-2.85761-5.3143-4.56243-8.5-4.56243zm77.0001,0c-7.6562,0-13.8907,9.79045-14.2188,22.03125 21.8806-.7043 42.616-3.98348 61.4376-9.34372-2.3472-7.51569-7.1571-12.68753-12.7187-12.68753-3.3009,0-6.3333,1.82748-8.7501,4.87498-2.4167-3.0475-5.449-4.87498-8.75-4.87498-3.1857,0-6.126,1.70482-8.5,4.56243-2.3739-2.85761-5.3142-4.56243-8.5-4.56243z" fill-opacity=".3137"/>
<path d="m869.13893,496.75956a165.56448,165.56443 0 0,1 -331.12896,0 165.56448,165.56443 0 1,1 331.12896,0z" fill="#784421" stroke="#000" stroke-linecap="round" stroke-width="5.00001"/>
<path d="m785.411,579.53992c-26.5-4.92364-2.2474,21.63114-6.3108,31.23273-16.0633-7.89835-9.9427,18.25-17.2066,25.51396-13.7638-.73606-15.9123,13.14317-25.5139,17.2066-11.6016-6.43662-20.1562,6.31071-31.2326,6.31071s-17.6312-12.2474-31.2327-6.31071c-9.6016-4.06343-11.7501-17.44273-25.5139-17.2066-7.26394-7.26396-6.1432-34.91238-17.2066-25.51396-4.06337-9.60159 14.6892-38.15637-6.31078-31.23273 0-11.07649 22.24738-31.63116 6.31078-31.23272 4.06335-9.60158 24.4427-16.75003 17.2066-25.51387 14.5277-14.52773 34.5937-23.51731 56.7466-23.51731s42.2188,8.98958 56.7465,23.51731c-10.7361,5.26385 13.1433,15.91229 17.2066,25.51387-17.9366-.89847 6.3108,20.15623 6.3108,31.23272z" fill="#fff" stroke="#000" stroke-linecap="round" stroke-linejoin="round" stroke-width="4.99999"/>
<path d="m849.85563,419.19551c1.9806,10.23253 3.0313,20.78551 3.0313,31.59383 0,3.7299-.1318,7.42507-.375,11.09377-3.6726-.18283-7.5783.0204-11.75.62501-35.2156,7.49869-20.1734,51.66408-29.3439,97.87516-30.34233,34.32869-74.70953,55.96893-124.09393,55.96893-30.3733,0-58.83176-8.20727-83.31268-22.50017-23.67924-55.44263 8.07623-115.66479-33.65631-126.0627-46.11054-8.32538-63.97058,34.45628-34.15628,98.56266 16.461,35.39439 43.72295,52.77992 63.78134,59.53141 28.36342,22.80047 64.39193,36.43771 103.59393,36.43771 45.9497,0 87.5574-18.73954 117.56273-49.00016 17.4536-8.71751 36.8617-24.59517 50.3439-51.15645 25.2124-49.67104 20.3847-87.07862-5.4688-97.43762-3.1698-16.13607-8.666-31.44202-16.1563-45.53138z" fill-opacity=".3137" fill-rule="evenodd"/>
<path d="m704.3229,479.86839c-9.288,0-19.3836,10.32724-18.9798,16.84966s16.5569,33.69951 20.1913,33.69951 17.7684-26.63343 17.3646-34.24299-12.5187-16.84976-18.5761-16.30618z" fill-opacity=".3137" fill-rule="evenodd"/>
<path d="m657.6234,368.95926c-31.23452,0-56.60347,29.33142-56.60347,65.47181s25.36895,65.47182 56.60347,65.47182c18.3556,0 34.6444-10.14098 44.9848-25.82959 10.3397,15.70003 26.6639,25.82959 45.0274,25.82959 31.2345,0 56.60343-29.33152 56.60343-65.47182s-25.36893-65.47181-56.60343-65.47181c-18.3613,0-34.6875,10.13262-45.0274,25.82948-10.3406-15.68516-26.6315-25.82948-44.9848-25.82948z" fill="#fff" stroke="#000" stroke-linecap="round" stroke-width="5.00001"/>
<path d="m699.0331,438.86063a16.38715,16.38715 0 0,1 -32.7743,0 16.38715,16.38715 0 1,1 32.7743,0z" stroke="#000" stroke-linecap="round" stroke-width="5.00001"/>
<path d="m740.5331,438.86063a16.38714,16.38714 0 1,1 -32.7742,0 16.38714,16.38714 0 1,1 32.7742,0z" stroke="#000" stroke-linecap="round" stroke-width="5.00001"/>
<path d="m680.9806,433.12144a4.25002,4.25002 0 0,1 -8.5,0 4.25002,4.25002 0 1,1 8.5,0z" fill="#fff"/>
<path d="m722.4807,433.12144a4.25002,4.25002 0 0,1 -8.5,0 4.25002,4.25002 0 1,1 8.5,0z" fill="#fff"/>
<path d="m603.52885,690.19991 68.98967-.78541-.0351,2.01474-68.60285,2.08461z" fill="#75c800" transform="matrix(.98103,-.19387,.19387,.98103,0,0)"/>
<g transform="matrix(-.90298,-.42969,-.42969,.90298,1935.7728,289.25519)">
<path d="m963.37961,666.82047c-.12636-.23136-.27446-.455-.41274-.67982-3.31794-5.39584-10.34615-9.24812-14.75511-9.4513-5.87865-.27105-11.85664,8.10486-13.38043,16.63348-.18797,1.05184-.30629,2.11195-.36803,3.16702l-28.44873-28.87245-17.97386,9.3854 .19084,1.08453-45.61546,23.819 10.71674,79.37519c20.55311,11.08909 41.16233,22.42793 61.70723,33.65845l40.7362-21.2712 1.12532.82761 17.95117-9.37355-3.43971-10.01667c2.66304.54894 5.28287.50817 7.68967-.3184 11.19354-3.84202 15.21842-14.2607 10.10652-23.73299-.16505-.30548-.32489-.61512-.50852-.91864-3.90876-6.44399-20.01379-11.92072-30.97638-15.01775l-6.54158-19.05446c9.47156-10.27456 13.79428-16.59199 13.674-24.03618-.0291-1.80517-.59264-3.58765-1.47715-5.20727zm-11.82281,8.83067c-.37176.69435-.70793,1.33967-.96255,1.91783-1.06725,2.42361-3.07196,6.37592-5.03163,10.1656l-.71079-.69748c.24887-1.41525.56497-2.70551.95706-3.53238 1.70466-3.59563 4.0287-6.22514 5.74791-7.85357zm24.48611,60.11253c.64429,1.14114 1.17134,2.32482 1.56245,3.54534-.66658.33429-1.40198.64704-2.21622.95506-2.33123.88181-5.30769,1.55873-8.45501,1.72892l-6.28769-18.29169c1.54136.68557 2.69276,1.21962 2.97989,1.44773 5.49358,2.32383 9.88111,6.12409 12.41658,10.61464z" stroke="#000" stroke-width="9"/>
<path d="m891.70818,656.57204 16.86077,76.15862-52.91401,28.68234-11.91593-79.79291z" fill="#81dc00"/>
<path d="m854.17793,706.88373-7.63761,3.70402 2.16395,15.95721 8.35846-4.2244-2.88573-15.43861z" fill="url(#linearGradient9208)" fill-rule="evenodd"/>
<path d="m905.52412,646.82708 18.05257,78.11183-20.75133,10.1586-15.69081-78.8333z" fill="#6bb800"/>
<path d="m853.40659,761.25233 61.63358,33.69673 48.58349-25.36882-54.01567-37.67457z" fill="#87e600"/>
<path d="m975.13792,765.07338-51.95418-40.7599-20.50215,10.83133 54.21658,39.65291z" fill="#71c200"/>
<path d="m949.81074,692.04891 25.25212,73.02454-52.13866-40.61229-16.91193-76.84246z" fill="#75c800"/>
<path d="m913.31564,677.00582 47.275,45.87037 4.53504,13.49224-49.82416-44.47277-66.69135,33.82969-2.16823-15.20455z" fill="#ccc"/>
<path d="m927.38098,669.4565 17.92429,73.79092-64.76358,33.50319 14.79757,8.05229 61.96967-32.63143-19.2524-71.88637-10.67632-10.83009z" fill="#ccc" fill-rule="evenodd"/>
<path d="m953.8152,673.7591c0,0-5.02474,3.44993-8.01434,9.75593-1.41907,2.99263-1.80456,11.92045-1.80456,11.92045l-2.55651,6.08706c0,0-3.30443-3.19028-4.05548-5.25619s-2.97378-13.09747-2.79625-17.77829 4.07679-14.90964 5.54881-16.16997 4.89584-5.31113 8.53517-5.24512 6.51561,2.36924 7.11499,3.20328 .65898,11.61743.65898,11.61743l-2.63081,1.86542z" fill="#999" fill-rule="evenodd"/>
<path d="m938.14064,701.83515c0,0 2.84351,5.76187-.32048,8.06619s-8.50133,1.13579-12.29478,11.37551c1.99022,1.75492 4.27931,1.08478 4.27931,1.08478l-.10545,6.69941c0,0 4.95067-7.37982 7.81072-8.53711s6.64715-1.92175 6.94601-4.34681-3.61806-12.10518-3.61806-12.10518l-2.69727-2.23679z" fill="#b3b3b3" fill-rule="evenodd"/>
<path d="m962.97284,666.16045c-3.31794-5.39583-10.35382-9.25255-14.76277-9.45574-5.87865-.27104-11.8464,8.10636-13.37019,16.63497-2.08829,11.68792 4.17678,24.27026 4.17674,24.27028 .19408-.10134 1.9998,9.31154 9.79003,1.04353 11.18465-11.87088 16.18327-18.55583 16.05309-26.61244-.0332-2.06307-.78087-4.08186-1.8869-5.8806zm-9.42346-5.04684c4.73715,4.75552-1.12656,12.33237-2.95395,16.48177-2.24894,5.10711-9.57175,18.84835-9.57175,18.84835l-1.22072,2.64964c0,0-.46453-.85334-2.90777-10.55607s.16068-18.95712.54123-19.48351c3.41628-8.3251 10.15735-13.77013 16.11296-7.94018z" fill="#ccc" fill-rule="evenodd"/>
<path d="m935.25806,685.7719c0,0-5.59111-4.04179-7.75092-6.12703-2.15964-2.08493-8.35802-16.51923-8.35802-16.51923l1.42081,8.36117-5.19623.30374c0,0 5.3744,10.54198 7.89069,14.08586 3.71246,5.22847 9.10431,4.61686 13.37932,12.29112 2.56447,4.60361 3.31421,7.37249 3.31421,7.37249s1.75351-8.9478-4.6998-19.76815z" fill="#b3b3b3" fill-rule="evenodd"/>
<path d="m950.11148,712.58341c.29679-1.32509-.34659-11.68963-1.46175-13.82527s-7.01719-3.50132-9.03436-1.21273 .1894,10.77321 1.40588,13.10288c1.6154,1.79676 3.25834,3.33975 5.27853,4.90355 1.35906-.70966 3.08881-1.09848 3.8117-2.96843z" fill="#e6e6e6" fill-rule="evenodd"/>
<path d="m942.02008,712.36171c0,0 1.04044,7.9673 2.54804,12.42354s4.47057,13.56971 6.31876,15.22636 10.01476,11.6479 13.26784,11.91562-1.47019-9.71916-1.47019-9.71916-6.36732-3.72134-8.64173-7.44947-5.48681-16.46993-5.48681-16.46993l-5.69626-6.20177-.83935.27539z" fill="#999" fill-rule="evenodd"/>
<path d="m943.5264,713.04981 4.83935,5.50221c0,0 14.13355,5.72844 15.2536,6.61827 7.99067,3.38013 13.66434,9.84298 14.6581,17.08844 0,0 7.51768-4.74487 7.47202-7.34273s-2.23133-8.6664-2.23133-8.6664-9.13965-4.97952-10.51152-5.41019-21.10014-6.81024-21.10014-6.81024l-6.96005-1.58298-2.11016.0586 .69013.54498z" fill="#999" fill-rule="evenodd"/>
<path d="m988.6914,730.14935c-5.88772-9.70649-39.50879-17.21958-41.40138-17.70601s-5.58373-.78905-5.38786-.72768c0,0 .97016,15.45473 7.26139,25.93391s19.88786,20.60071 29.93995,17.14999c11.55462-3.96595 15.47562-14.94371 9.5879-24.65021zm-8.01406-4.52101c2.39054,3.06938 6.23544,10.30299-5.27785,14.65801-7.12812,2.69629-20.27845,3.43654-25.97011-6.20831-5.69185-9.64515-6.46339-21.57313-6.26751-21.51175-3e-005,2e-005 24.92787,7.04191 25.77922,7.4171 .85104.37458 8.76317,2.25665 11.73625,5.64495z" fill="#ccc" fill-rule="evenodd"/>
</g>
<g transform="translate(231.5562,-145.83566)">
<path d="m605.10332,605.57604c-48.11131,17.30001 14.16348,94.14286-37.81921,161.19209-9.6084,12.39327 57.86805,2.09082 81.72293-66.58524 23.19836-66.78589 1.13236-107.53923-43.90372-94.60685z" fill="#784421" fill-rule="evenodd" stroke="#000" stroke-width="5.00001"/>
<path d="m620.86187,603.18753c-.41264-.00065-.83166.0204-1.25001.0316 16.21213,13.06451 23.07337,43.29719 14.78125,85.3439-11.02309,55.89484-53.57665,80.00828-67.71885,81.2815 4.59206,6.52641 60.97096-8.12574 82.34386-69.65651 20.29856-58.43758 5.92076-96.95023-28.15625-97.00009z" fill-opacity=".3137" fill-rule="evenodd"/>
</g>
<path d="m818.98443,450.69287c13.3887-4.60896 27.2211,7.58393 29.8652,14.17998-13.5123-3.45225-19.7196-4.42584-23.2184-1.38066 1.5067,3.37138 17.4083,6.74184 22.3374,28.87114-12.4288-8.61667-22.3036-18.57556-26.2725-14.48315 2.8816,5.03385 6.1995,14.49745 3.9636,23.88083-7.1415-9.42451-14.4388-19.37848-21.1416-19.64785" fill="#784421" fill-rule="evenodd" stroke="#000" stroke-linecap="round" stroke-linejoin="round" stroke-width="5.00001"/>
<g transform="matrix(.99558,.09387,-.09387,.99558,323.5782,182.44506)">
<path d="m353.50887,296.78626c-.14752-.21848-.31596-.42722-.47474-.63807-3.80981-5.06054-11.16862-8.23604-15.57718-8.02444-5.87814.28201-11.04345,9.18211-11.75989,17.81611-.0884,1.06484-.10668,2.13138-.0691,3.18759l-31.03349-26.07434-17.01343,11.03124 .2918,1.06182-43.17803,27.99595 18.12073,78.01864c21.50333,9.11071 43.08596,18.4648 64.5944,27.71708l38.55949-25.00136 1.19804.71832 16.99196-11.01731-4.36483-9.64954c2.70281.29653 5.30724.01 7.62582-1.03886 10.78344-4.87584 13.8125-15.62634 7.83397-24.57693-.193-.28863-.3812-.5819-.59251-.86684-4.49643-6.0486-21.04446-9.9893-32.24937-12.04354l-8.30142-18.35623c8.46521-11.11833 12.1758-17.81365 11.35723-25.21368-.19842-1.79447-.92681-3.51617-1.95946-5.04561zm-10.94163,9.90154c-.30493.72618-.57904,1.40021-.77826,1.99972-.83502,2.51309-2.45986,6.63614-4.05512,10.59305l-.77313-.62768c.11492-1.43236.3085-2.7466.62124-3.60662 1.35959-3.73978 3.42652-6.57585 4.98527-8.35847zm30.02102,57.54845c.74857,1.07562 1.38441,2.20459 1.88836,3.38301-.63225.39539-1.33504.77579-2.11677,1.15889-2.23816,1.09676-5.13793,2.0501-8.25538,2.51499l-7.97704-17.62066c1.59891.53785 2.79536.96146 3.10263,1.1616 5.68747,1.79787 10.41238,5.16947 13.3582,9.40217z" stroke="#000" stroke-width="9"/>
<g transform="matrix(.44571,.68741,-.68741,.44571,269.49428,38.41192)">
<path d="m268.52237,158.67465 91.92846,24.78497v74.50733l-91.92846-33.23875z" fill="#009dff"/>
<path d="m302.06062,226.31917-.3074,10.35647 18.48804,6.67414 .15163-11.43043-18.33473-5.60018z" fill="url(#linearGradient9210)" fill-rule="evenodd"/>
<path d="m267.2221,136.75167 92.69727,24.78503v28.58789l-92.69721-28.62751z" fill="#0075ff" stroke="#0075ff"/>
<path d="m360.45083,257.87089 71.28106-47.64863v-66.89946l-71.28106,37.15877z" fill="#008cff"/>
<path d="m433.26867,128.64875-73.3493,33.21889v28.03126l73.34945-36.50499z" fill="#0064ff"/>
<path d="m340.04015,114.46455 93.22852,14.1842-73.3493,33.21889-92.69727-25.11597z" fill="#007cff"/>
<path d="m303.14477,145.45265 76.34045-25.23501 17.16061,2.716-76.2685,28.78277-1.07604,91.27212-17.67609-6.24427z" fill="#ccc"/>
<path d="m302.92315,125.96895 89.96752,22.29656-.34016,89.00183 17.07278-11.46137-.29512-85.48633-88.65717-19.78353-17.7499,5.43284z" fill="#ccc" fill-rule="evenodd"/>
<path d="m322.51329,99.79841c0,0 .8939,7.38583 6.02783,14.1833 2.43624,3.22619 11.87821,8.68731 11.87821,8.68731l5.14173,6.20518c0,0-5.31877,1.7729-7.97838,1.41833s-15.85139-4.18223-20.81566-7.01888-13.82871-12.83466-14.3607-15.13943-2.98052-8.2979-.85294-12.19831 6.24466-5.71122 7.48572-5.88852 12.94219,5.85061 12.94219,5.85061l.532,3.90041z" fill="#999" fill-rule="evenodd"/>
<path d="m344.03535,132.62044c0,0 7.84078.17871 8.54643,4.90399s-3.57417,9.84001 5.36183,19.7297c3.02323-1.1619 3.59144-4.01727 3.59144-4.01727l7.18908,3.89913c0,0-5.18783-9.52601-4.82413-13.27438s1.6762-8.27786-.77883-9.97134-15.14175-2.92449-15.14175-2.92449l-3.94407,1.65466z" fill="#b3b3b3" fill-rule="evenodd"/>
<path d="m319.46555,85.59691c-7.71278.54143-15.86082,5.97517-18.57163,10.63078-3.61458,6.20748 2.07798,17.39756 10.4449,23.86477 11.46631,8.86293 28.61985,9.19299 28.61985,9.19304 0-.26724 11.20478,3.09708 6.66025-10.00309-6.52502-18.80843-10.93391-27.99372-19.72459-32.40469-2.25099-1.12962-4.85769-1.46128-7.42878-1.28082zm-10.78467,7.34468c7.8218-2.43876 12.70695,8.18645 16.16411,12.50799 4.2552,5.31873 14.98578,21.00541 14.98578,21.00541l2.17719,2.8178c0,0-1.18575.0205-13.06434-2.8178s-20.42053-10.88424-20.77507-11.59339c-7.07751-8.39987-9.16039-18.76994.51233-21.92001z" fill="#ccc" fill-rule="evenodd"/>
<path d="m325.02656,126.66394c0,0-7.53202,3.76597-11.00847,4.92473s-22.59567-.28977-22.59567-.28977l9.84939,3.18659-2.60712,5.79385c0,0 14.44269.14099 19.69876-.57938 7.75459-1.06285 10.13913-7.2423 20.85785-7.53199 6.42991-.17378 9.84938.57938 9.84938.57938s-8.69068-6.9526-24.04412-6.08349z" fill="#b3b3b3" fill-rule="evenodd"/>
<path d="m362.42808,125.74073c-1.26605-1.06978-12.84382-6.22941-15.78459-6.22941s-7.75295,5.61432-6.41638,9.08987 11.76345,5.88172 14.97141,5.88172c2.85673-.73271 5.45445-1.63858 8.28783-2.94088 0-1.87143.55657-3.96267-1.05827-5.8013z" fill="#e6e6e6" fill-rule="evenodd"/>
<path d="m357.61673,134.37024c0,0 9.20833,3.37562 14.88167,4.26211s17.208,2.82952 20.04466,1.76577 18.26099-4.25498 20.38858-7.62351-11.34661-3.90041-11.34661-3.90041-7.62384,4.78686-12.94261,5.14143-20.92015-3.36853-20.92015-3.36853l-9.9285,2.65939-.17624,1.06375z" fill="#999" fill-rule="evenodd"/>
<path d="m359.21228,133.12919 8.68745-2.12747c0,0 14.18325-12.05583 15.77884-12.76498 8.17181-6.73607 18.37002-9.22352 26.77095-6.20522 0,0-.88653-10.81477-3.72318-12.2331s-10.63757-2.48208-10.63757-2.48208-10.55148,7.07564-11.79254,8.31666-19.28972,18.98238-19.28972,18.98238l-5.64504,6.63632-1.12876,2.31629 .97957-.4388z" fill="#999" fill-rule="evenodd"/>
<path d="m403.23103,93.92223c-13.82872.88645-40.95298,33.0192-42.54857,34.79214s-4.00844,5.59571-3.83137,5.41845c0,0 17.26991,7.68191 32.16264,6.79542s33.52588-9.87938 35.47148-22.70518c2.23703-14.74261-7.42546-25.18728-21.25418-24.30083zm-9.41945,6.11682c4.67163-.85239 14.67058-.92568 12.87787,13.99202-1.1099,9.23587-7.73862,23.88256-21.38988,24.5917s-26.99348-5.19508-26.8164-5.37234c0,4e-005 21.70298-22.99304 22.58992-23.70222s7.39268-8.20666 12.73849-9.50916z" fill="#ccc" fill-rule="evenodd"/>
</g>
</g>
<path d="m702.2016,469.25951c-9.288,0-19.3836,9.30621-18.9798,15.18375s16.5569,30.36769 20.1913,30.36769 17.7684-24.00025 17.3645-30.8574-12.5186-15.18385-18.576-14.69404z" fill="url(#linearGradient9212)" fill-rule="evenodd" stroke="#000" stroke-width="5.00001"/>
<g transform="translate(-207.0354,533.11883)">
<path d="m777.2519-73.37845c48.11131,17.30001-14.16347,94.14286 37.81925,161.19209 9.6084,12.39327-57.86809,2.09082-81.72297-66.58524-23.19835-66.78589-1.13235-107.53923 43.90372-94.60685z" fill="#784421" fill-rule="evenodd" stroke="#000" stroke-width="4.99916"/>
<path d="m725.57791-43.5794c-3.45178,16.50582-1.29856,38.67264 7.78124,64.81254 23.85489,68.67606 91.32732,78.98724 81.71892,66.59397-4.10893-5.2998-7.5204-10.67453-10.31251-16.06253-18.95156-4.54145-54.04791-24.3764-69.90639-70.03146-5.87955-16.92674-8.85391-32.1805-9.28126-45.31252zm71.28136,6.34367c-.88284,8.53616-1.85619,17.61191-2.28123,27.12509 .99326-9.79063 2.07938-18.94122 2.28123-27.12509z" fill-opacity=".3137" fill-rule="evenodd"/>
</g>
<path d="m587.62348,450.69287c-13.38871-4.60896-27.22114,7.58393-29.86524,14.17998 13.51228-3.45225 19.71965-4.42584 23.21839-1.38066-1.50673,3.37138-17.40826,6.74184-22.33735,28.87114 12.42876-8.61667 22.30358-18.57556 26.27244-14.48315-2.88155,5.03385-6.19952,14.49745-3.96356,23.88083 7.14152-9.42451 14.43877-19.37848 21.14157-19.64785" fill="#784421" fill-rule="evenodd" stroke="#000" stroke-linecap="round" stroke-linejoin="round" stroke-width="5.00001"/>
<path d="m740.5,312.03125c-47.27888.87507-97.24016,30.11271-117.8125,85.09375-6.87387,4.85781-14.34924,10.74054-18.25,20.5625a5.19394,5.19394 0 0,0 -.0312.0625c-2.92641,7.74126-4.19375,16.59155-1.375,24.125 1.40937,3.76672 4.24833,7.31722 8.4375,8.9375s9.08339,1.26198 14.40625-.6875a5.19394,5.19394 0 0,0 .65625-.28125c37.03685-19.76887 70.30302-18.92868 97.875-10.96875s49.23142,23.20049 61.96875,32.53125c4.17106,3.0573 9.81215,8.06274 17.75,9.78125h.0625c.057.0122.099.0506.15625.0625v-.0312c6.2111,1.5579 11.7052,1.30601 16.1562-.7188 2.78524-1.26704 4.95955-3.22517 6.65625-5.46875-1.69938,17.79316 11.0925,33.92829 28.9375,36.0625 18.10441,2.16523 34.67793-10.82814 36.84375-28.9375 2.16523-18.10441-10.82814-34.67793-28.9375-36.84375-2.10954-.25229-4.20097-.23698-6.25-.0937-6.32613-19.44378-12.68085-38.63319-18.3125-59.4375-.008-.0325-.0231-.0613-.0312-.0937-11.16062-44.42915-45.81095-68.80658-84.21875-73-4.8482-.52934-9.74962-.74764-14.6875-.65625zm86.375,127.9375c3.79912,5.18215 7.21091,10.54057 9.59375,15.15625-1.90156,1.93711-3.64084,4.0313-5.03125,6.40625 .14951-4.93442-.91943-9.76527-3.09375-13.90625-.35674-2.79618-.8677-5.36654-1.46875-7.65625z" transform="matrix(1.01239,-.04055,.04583,.89592,-37.08041,-13.77498)"/>
<g transform="matrix(.57712,.03776,-.04267,.51072,566.31915,165.42305)">
<path d="m113.85588,288.39365c162.58561-145.80571 306.25527-2.99512 345.07269,48.61139 13.35255,16.62989 14.73046,56.66449-25.08492,51.3506-11.38072-.97306-21.2182-7.44833-29.63918-12.19729-48.48473-27.32501-167.54779-90.69575-292.06161-3.79617-30.35429,15.42301-37.27763-16.72412-31.14227-41.53832 5.05885-19.09258 19.70315-30.59821 32.85529-42.43021z" fill="#e2e2e2" stroke="#d3d3d3" stroke-width="1.83692"/>
<path d="m312.625,123.65625c-86.89622.8934-179.92607,62.17642-204.875,170.1875 2.04206-1.82299 4.08187-3.62756 6.09375-5.4375 162.58561-145.80571 306.27633-3.01276 345.09375,48.59375 .17461.21747.32955.46218.5.6875-5.10645-21.92357-15.04967-32.3553-18.03125-39.03125-12.79521-28.64931 43.07435,25.45685 55.59375,50.9375l21.21875-4.71875c-17.67298-38.56127-35.70895-75.85199-52.5-117.5-27.33099-71.68388-88.51554-104.38269-153.09375-103.71875z" fill="#e72f31"/>
<path d="m529.10714,349.50504c0,22.68312-18.38831,41.07143-41.07143,41.07143s-41.07143-18.38831-41.07143-41.07143 18.3883-41.07143 41.07143-41.07143 41.07143,18.3883 41.07143,41.07143z" fill="url(#radialGradient9214)" stroke="#d3d3d3" stroke-width="1.54194" transform="matrix(1.1913,0,0,1.1913,-52.11335,-35.7904)"/>
<path d="m354.69803,203.86494c39.06661,23.70539 58.0853,59.43952 88.25388,88.48372l-.75762,2.02031c-39.9852-25.29591-31.89181-58.98648-119.95561-75.88771-46.14596-7.93382-28.76473-20.77488-8.13025-24.63214 17.4637-3.20166 26.97369,1.80206 40.5896,10.01582z" fill="#d32a31"/>
<path d="m677.14283,507.36218c0,18.93548-15.35024,34.28572-34.28571,34.28572s-34.28572-15.35024-34.28572-34.28572 15.35024-34.28571 34.28572-34.28571 34.28571,15.35024 34.28571,34.28571z" fill="#fff" filter="url(#filter3831)" transform="translate(-115.0359,-129.60261)"/>
<path d="m258.53125,247.28125c-38.88011.6861-82.01624,15.30985-129.5625,57.9375l-.0312.0312c-13.82989,12.44114-23.06699,20.42055-26,31.125-1.37244,5.66477-1.05121,11.33681-.5625,15.375 66.12158-44.90342 132.98849-51.60329 187.96875-42.625 55.8555,9.12122 100.34125,33.43294 124.96875,47.3125a22.61907,22.61907 0 0,1 .0312.0312c9.51633,5.36668 16.42891,9.00101 20.4375,9.34375a22.61907,22.61907 0 0,1 1.0625.125c5.92093.79023 7.44261-.14494 7.5-.1875-.00012-.0687-.0256-.0714.0937-.53125 .67852-2.6132-1.7588-12.36097-3.125-14.0625a22.61907,22.61907 0 0,1 -.4375-.5625c-23.89207-31.7637-96.77179-104.82245-182.3437-103.3124z" fill="#fff" filter="url(#filter3845)"/>
</g>
<path d="m716.4508,379.97799c13.2759-32.15978 35.6656-36.51329 35.6656-36.51329s-12.4533,16.77537-1.1739,12.10876c17.4653-7.22589 72.99683,15.41839 72.99683,15.41839s-73.57453-17.12609-107.48853,8.98614z" fill="#fff" fill-rule="evenodd" stroke="#000" stroke-linejoin="round" stroke-width="5.00001"/>
<path d="m686.0096,376.97803c-13.2759-32.15988-35.6657-36.51329-35.6657-36.51329s12.4534,16.77528 1.174,12.10876c-17.46529-7.22589-72.99685,15.4183-72.99685,15.4183s73.57455-17.126 107.48855,8.98623z" fill="#fff" fill-rule="evenodd" stroke="#000" stroke-linejoin="round" stroke-width="5.00001"/>
</g>
</g>
</svg>
