<?xml version="1.0" encoding="UTF-8" standalone="no"?>
<svg viewBox="0 0 744.09448819 1052.3622047" xmlns="http://www.w3.org/2000/svg">
<path d="m228.08202,186.79498c-1.71571.0386-3.50713.26556-5.40556.77877-13.44756,3.63541-34.08389,25.66738-47.4132,42.05345-13.00066,15.98207-24.01867,34.168-30.73841,53.64333-7.76203,22.49612-11.15832,46.97342-10.2156,70.6388 1.01537,25.48837 7.21685,50.97842 17.04127,75.49464 10.51737,26.24547 30.59922,50.09104 44.43556,75.54044 12.23796,22.50948 34.08253,68.21087 34.08253,68.21087s20.37311,99.84077 50.2534,140.26977c9.41958,12.74499 35.84621,30.44064 35.84621,30.44064l6.52791-28.19596c0,0 10.25481,19.6177 16.45718,25.48173 6.75019,6.38198 22.32085,16.68623 22.32085,16.68623s1.02959-23.45463 9.45975-23.45463 9.45972,23.45463 9.45972,23.45463 15.57067-10.30426 22.32085-16.68623c6.20238-5.86403 16.4572-25.48173 16.4572-25.48173l6.52789,28.19596c0,0 26.42663-17.69565 35.84622-30.44064 29.88031-40.429 50.25342-140.26977 50.25342-140.26977s21.84456-45.70139 34.08252-68.21087c13.83633-25.4494 33.91819-49.29497 44.43556-75.54044 9.82441-24.51622 16.0259-50.00627 17.04126-75.49464 .94274-23.66538-2.45355-48.14268-10.2156-70.6388-6.71973-19.47533-17.73775-37.66126-30.73841-53.64333-13.32929-16.38607-33.96563-38.41804-47.41319-42.05345-20.24995-5.47432-29.28298,18.21438-45.03108,25.05799-33.09772,14.38318-103.02636,33.25795-103.02636,33.25795s-69.92865-18.87477-103.02636-33.25795c-14.27173-6.20202-23.04031-26.20991-39.62553-25.83676z" fill="#664312"/>
<path d="m370.70785,578.65499-121.43877,11.87818c0,0 2.20093,19.34808 4.16778,29.48706s4.75924,20.95293 7.76249,31.25837c3.30994,11.35791 7.07773,22.60555 11.30511,33.65485 3.04971,7.97112 3.60504,17.96724 10.10687,23.49587 6.23393,5.30082 16.42836-.31352 24.43363,1.19824 11.00822,2.07884 51.01412,32.61482 51.01412,32.61482l12.64877-17.87129 12.64877,17.87129c0,0 37.12617-27.60415 48.13438-29.68299 8.00529-1.51175 21.13154,1.17075 27.36547-4.13007 6.50183-5.52863 7.05715-15.52475 10.10686-23.49587 4.22738-11.0493 7.99518-22.29694 11.30511-33.65485 3.00325-10.30544 5.79566-21.11941 7.76249-31.25837s4.16779-29.48706 4.16779-29.48706z" fill="#724a18"/>
<path d="m370.71305,594.97714-97.20533,9.50787c0,0 1.76174,15.48713 3.3361,23.60283s3.8095,16.7717 6.21347,25.02067c2.64944,9.09141 5.66536,18.09455 9.04912,26.93894 2.44114,6.38046 2.88564,14.38182 8.09003,18.8072 4.98991,4.24303 13.15002-.25096 19.55783.95912 8.8115,1.664 40.83408,26.10647 40.83408,26.10647l10.1247-14.30507 10.12468,14.30507c0,0 29.71754-22.09568 38.52903-23.75969 6.40778-1.21009 16.91468.93713 21.90459-3.3059 5.20439-4.42538 5.6489-12.42674 8.09003-18.8072 3.38377-8.84439 6.3997-17.84753 9.04913-26.93894 2.40396-8.24897 4.63913-16.90496 6.21347-25.02067s3.33609-23.60283 3.33609-23.60283z" fill="#7d541c"/>
<path d="m253.64392,261.08631c-13.66082.23378-25.73482,3.98023-34.31158,13.12857-19.35099,20.6406.2905,64.20683-1.42011,96.19869-.86616,16.19915-4.10535,22.90665-4.48936,48.3898 3.82191,78.92874 157.81494,194.48864 157.81494,194.48864s153.99304-115.5599 157.81494-194.48864c-.384-25.48315-3.6232-32.19065-4.48936-48.3898-1.71061-31.99186 17.93088-75.55809-1.4201-96.19869-39.20805-41.82097-151.90548,29.7426-151.90548,29.7426s-68.80524-43.70608-117.59389-42.87117z" fill="#724a18"/>
<path d="m4.04566,575.78373 51.21111-29.76478 115.77013-2.9616 136.44177,26.65436 68.11671-14.80798 88.84788-8.88478 183.61901,11.84638 93.34879,11.84638v68.11672l-93.34879-11.84638-100.69431-11.84638h-139.19502l-88.84789,17.76957-118.46384-23.72254-71.37594,17.85888-65.33371,8.79549-60.0959,32.60733v-91.66067z" fill="#4d270b"/>
<g transform="matrix(1.46592,0,0,1.46592,-4.07742,-490.5495)">
<path d="m281.02643,404.35558c0,0 22.17105-6.48152 32.4776-9.77454 13.4531-4.29837 37.1805-14.0414 37.1805-14.0414l-7.22637,8.22003-1.34318,5.43209-.49797,2.55821-.87677,2.62135-10.92835,8.89933-7.22638,8.22004c0,0-14.60368,7.72829-22.53884,5.64626-8.78004-2.30371-19.02024-17.78137-19.02024-17.78137z" fill="#935c10"/>
<path d="m296.77714,403.28184c0,0 17.63358-5.15503 25.83081-7.77411 10.69982-3.41867 25.19623-12.23915 25.19623-12.23915l-3.5153,6.1806-2.73365,2.97667 1.18433,1.55049-1.76209-.23523 1.00313,2.22145-.97717.3398 .5065,1.25526-.66149-.007-1.00874,1.03429-12.77672,12.20606c0,0-8.84707,8.2895-15.15824,6.63357-6.98313-1.83224-15.1276-14.14227-15.1276-14.14227z" fill="#5f3f12"/>
<g transform="matrix(-1,0,0,1,512.05286,0)">
<path d="m281.02643,404.35558c0,0 22.17105-6.48152 32.4776-9.77454 13.4531-4.29837 37.1805-14.0414 37.1805-14.0414l-7.22637,8.22003-1.34318,5.43209-.49797,2.55821-.87677,2.62135-10.92835,8.89933-7.22638,8.22004c0,0-14.60368,7.72829-22.53884,5.64626-8.78004-2.30371-19.02024-17.78137-19.02024-17.78137z" fill="#935c10"/>
<path d="m296.77714,403.28184c0,0 17.63358-5.15503 25.83081-7.77411 10.69982-3.41867 25.19623-12.23915 25.19623-12.23915l-3.5153,6.1806-2.73365,2.97667 1.18433,1.55049-1.76209-.23523 1.00313,2.22145-.97717.3398 .5065,1.25526-.66149-.007-1.00874,1.03429-12.77672,12.20606c0,0-8.84707,8.2895-15.15824,6.63357-6.98313-1.83224-15.1276-14.14227-15.1276-14.14227z" fill="#5f3f12"/>
</g>
</g>
<path d="m253.64392,259.81589c-13.66082.18436-25.73482,3.13876-34.31158,10.35303-19.35099,16.27692.2905,50.63271-1.42011,75.86111-.86616,12.77446-4.10535,18.06393-4.48936,38.15961 3.82191,62.24224 157.81494,153.37139 157.81494,153.37139s153.99304-91.12915 157.81494-153.37139c-.384-20.09568-3.6232-25.38515-4.48936-38.15961-1.71061-25.2284 17.93088-59.58419-1.4201-75.86111-39.20805-32.97951-151.90548,23.45465-151.90548,23.45465s-68.80524-34.46607-117.59389-33.80768z" fill="#805d2e"/>
<g transform="matrix(1.46592,0,0,1.46592,4.90258,-490.5495)">
<path d="m293.38581,588.19053c1.90944,11.98467-1.85759,32.38672-1.85759,32.38672s-14.07328-14.82827-19.01969-26.2793c-4.77392-11.0517.63549-15.17064 6.40059-16.85716s12.58252-1.13901 14.47669,10.74974z" fill="#9e7742" stroke="#9a7c3c" stroke-linecap="round" stroke-linejoin="round" stroke-width="2.537"/>
<path d="m316.19705,564.39329c2.61311,11.85116.0562,32.43991.0562,32.43991s-14.92353-13.97225-20.53684-25.11153c-5.41756-10.75084-.26056-15.18171 5.39501-17.20539s12.49342-1.8793 15.08563,9.87701z" fill="#9e7742" stroke="#9a7c3c" stroke-linecap="round" stroke-linejoin="round" stroke-width="2.537"/>
<path d="m279.87952,627.76307c.44828,8.53236-3.70177,22.5371-3.70177,22.5371s-8.75369-11.42511-11.36781-19.80903c-2.52294-8.09154 1.56972-10.57425 5.73107-11.3276s8.89382.13545 9.33851,8.59953z" fill="#97764a"/>
<path d="m317.10222,607.05844c2.59413,8.14081 2.12541,22.73999 2.12541,22.73999s-11.36135-8.8363-16.01314-16.28509c-4.48956-7.18904-1.15891-10.62713 2.67608-12.4096s8.63828-2.12095 11.21165,5.9547z" fill="#97764a"/>
<path d="m302.21813,634.70515c.88747,7.41564-1.91719,19.87174-1.91719,19.87174s-8.29958-9.45535-11.0674-16.61549c-2.67129-6.91046.75377-9.31397 4.33936-10.21316s7.76486-.39938 8.64523,6.95691z" fill="#97764a"/>
<path d="m335.03259,535.28744c5.16001,10.98417 7.20219,31.63034 7.20219,31.63034s-17.63526-10.34083-25.56491-19.96962c-7.65313-9.29301-3.5991-14.75122 1.47162-17.97125s11.77235-4.58576 16.8911,6.31053z" fill="#9e7742" stroke="#9a7c3c" stroke-linecap="round" stroke-linejoin="round" stroke-width="2.537"/>
<path d="m348.10009,520.3386c3.38672,6.50583 5.12879,18.92308 5.12879,18.92308s-10.90426-5.80986-15.93006-11.42894c-4.85053-5.42314-2.53696-8.8191.44573-10.88855s6.99593-3.05935 10.35554,3.39441z" fill="#97764a"/>
<path d="m337.84562,577.60837c1.68652,7.13802.32794,19.60306.32794,19.60306s-9.14496-8.30825-12.63806-14.98889c-3.37127-6.44768-.29504-9.17201 3.10431-10.44617s7.53279-1.24889 9.20581,5.832z" fill="#97764a"/>
<path d="m334.37737,607.94789c.42815,4.46618-1.43235,11.90734-1.43235,11.90734s-4.85083-5.79597-6.41188-10.13529c-1.50661-4.188.58436-5.58306 2.75049-6.0724s4.66901-.13008 5.09374,4.30035z" fill="#987c56"/>
<path d="m351.39478,549.0183c.96703,4.38122.0233,11.99316.0233,11.99316s-5.51839-5.16442-7.59453-9.28222c-2.00373-3.9742-.0975-5.61271 1.9932-6.36132s4.61871-.69575 5.57798,3.65038z" fill="#987c56"/>
<path d="m351.99161,580.92587c.214,4.48157-2.00044,11.82517-2.00044,11.82517s-4.56798-6.02141-5.91963-10.43046c-1.3045-4.25529.85084-5.5487 3.03787-5.93385s4.66989.0935 4.88215,4.53913z" fill="#987c56"/>
<path d="m315.09166,637.94789c.42815,4.46618-1.43235,11.90734-1.43235,11.90734s-4.85083-5.79597-6.41188-10.13529c-1.50661-4.188.58436-5.58306 2.75049-6.0724s4.66901-.13008 5.09374,4.30035z" fill="#987c56"/>
<path d="m290.09166,654.37646c.42815,4.46618-1.43235,11.90734-1.43235,11.90734s-4.85083-5.79597-6.41188-10.13529c-1.50661-4.188.58436-5.58306 2.75049-6.0724s4.66901-.13008 5.09374,4.30035z" fill="#987c56"/>
<path d="m272.3459,664.88704c.14634,4.48426-2.17859,11.79364-2.17859,11.79364s-4.4766-6.08965-5.76158-10.51858c-1.24016-4.27448.93443-5.53524 3.12705-5.88734s4.66795.1639 4.81312,4.61228z" fill="#987c56"/>
<g transform="matrix(-1,0,0,1,499.11659,0)">
<path d="m293.38581,588.19053c1.90944,11.98467-1.85759,32.38672-1.85759,32.38672s-14.07328-14.82827-19.01969-26.2793c-4.77392-11.0517.63549-15.17064 6.40059-16.85716s12.58252-1.13901 14.47669,10.74974z" fill="#9e7742" stroke="#9a7c3c" stroke-linecap="round" stroke-linejoin="round" stroke-width="2.537"/>
<path d="m316.19705,564.39329c2.61311,11.85116.0562,32.43991.0562,32.43991s-14.92353-13.97225-20.53684-25.11153c-5.41756-10.75084-.26056-15.18171 5.39501-17.20539s12.49342-1.8793 15.08563,9.87701z" fill="#9e7742" stroke="#9a7c3c" stroke-linecap="round" stroke-linejoin="round" stroke-width="2.537"/>
<path d="m279.87952,627.76307c.44828,8.53236-3.70177,22.5371-3.70177,22.5371s-8.75369-11.42511-11.36781-19.80903c-2.52294-8.09154 1.56972-10.57425 5.73107-11.3276s8.89382.13545 9.33851,8.59953z" fill="#97764a"/>
<path d="m317.10222,607.05844c2.59413,8.14081 2.12541,22.73999 2.12541,22.73999s-11.36135-8.8363-16.01314-16.28509c-4.48956-7.18904-1.15891-10.62713 2.67608-12.4096s8.63828-2.12095 11.21165,5.9547z" fill="#97764a"/>
<path d="m302.21813,634.70515c.88747,7.41564-1.91719,19.87174-1.91719,19.87174s-8.29958-9.45535-11.0674-16.61549c-2.67129-6.91046.75377-9.31397 4.33936-10.21316s7.76486-.39938 8.64523,6.95691z" fill="#97764a"/>
<path d="m335.03259,535.28744c5.16001,10.98417 7.20219,31.63034 7.20219,31.63034s-17.63526-10.34083-25.56491-19.96962c-7.65313-9.29301-3.5991-14.75122 1.47162-17.97125s11.77235-4.58576 16.8911,6.31053z" fill="#9e7742" stroke="#9a7c3c" stroke-linecap="round" stroke-linejoin="round" stroke-width="2.537"/>
<path d="m348.10009,520.3386c3.38672,6.50583 5.12879,18.92308 5.12879,18.92308s-10.90426-5.80986-15.93006-11.42894c-4.85053-5.42314-2.53696-8.8191.44573-10.88855s6.99593-3.05935 10.35554,3.39441z" fill="#97764a"/>
<path d="m337.84562,577.60837c1.68652,7.13802.32794,19.60306.32794,19.60306s-9.14496-8.30825-12.63806-14.98889c-3.37127-6.44768-.29504-9.17201 3.10431-10.44617s7.53279-1.24889 9.20581,5.832z" fill="#97764a"/>
<path d="m334.37737,607.94789c.42815,4.46618-1.43235,11.90734-1.43235,11.90734s-4.85083-5.79597-6.41188-10.13529c-1.50661-4.188.58436-5.58306 2.75049-6.0724s4.66901-.13008 5.09374,4.30035z" fill="#987c56"/>
<path d="m351.39478,549.0183c.96703,4.38122.0233,11.99316.0233,11.99316s-5.51839-5.16442-7.59453-9.28222c-2.00373-3.9742-.0975-5.61271 1.9932-6.36132s4.61871-.69575 5.57798,3.65038z" fill="#987c56"/>
<path d="m351.99161,580.92587c.214,4.48157-2.00044,11.82517-2.00044,11.82517s-4.56798-6.02141-5.91963-10.43046c-1.3045-4.25529.85084-5.5487 3.03787-5.93385s4.66989.0935 4.88215,4.53913z" fill="#987c56"/>
<path d="m315.09166,637.94789c.42815,4.46618-1.43235,11.90734-1.43235,11.90734s-4.85083-5.79597-6.41188-10.13529c-1.50661-4.188.58436-5.58306 2.75049-6.0724s4.66901-.13008 5.09374,4.30035z" fill="#987c56"/>
<path d="m290.09166,654.37646c.42815,4.46618-1.43235,11.90734-1.43235,11.90734s-4.85083-5.79597-6.41188-10.13529c-1.50661-4.188.58436-5.58306 2.75049-6.0724s4.66901-.13008 5.09374,4.30035z" fill="#987c56"/>
<path d="m272.3459,664.88704c.14634,4.48426-2.17859,11.79364-2.17859,11.79364s-4.4766-6.08965-5.76158-10.51858c-1.24016-4.27448.93443-5.53524 3.12705-5.88734s4.66795.1639 4.81312,4.61228z" fill="#987c56"/>
</g>
<g transform="translate(-.78545)">
<path d="m261.21486,604.91117c-1.53232,12.0387-10.87614,30.5624-10.87614,30.5624s-9.34382-18.18319-10.87614-30.5624c-1.47888-11.94752 4.86942-14.38197 10.87614-14.38197s12.39619,2.43961 10.87614,14.38197z" fill="#9e7742" stroke="#9a7c3c" stroke-linecap="round" stroke-linejoin="round" stroke-width="2.537"/>
<path d="m257.47499,653.4426c-1.00517,7.89716-7.13454,20.04836-7.13454,20.04836s-6.12937-11.92783-7.13454-20.04836c-.97012-7.83735 3.19424-9.4343 7.13454-9.4343s8.13167,1.60034 7.13454,9.4343z" fill="#9e7742" stroke="#9a7c3c" stroke-linecap="round" stroke-linejoin="round" stroke-width="2.537"/>
<path d="m254.11761,684.51257c-.53194,4.17919-3.77561,10.60962-3.77561,10.60962s-3.24367-6.31222-3.7756-10.60962c-.51339-4.14753 1.69039-4.99264 3.7756-4.99264s4.30329.8469 3.77561,4.99264z" fill="#9b7f5a"/>
</g>
</g>
<path d="m371.23563,97.79859c-40.6666.1334-90.7832.51857-114.88302,16.3713-12.04994,7.92638-23.84325,31.13542-27.56424,46.59863s-3.78752,21.69849-4.14427,45.84845c3.55033,74.79964 69.6588,146.01168 146.59153,184.36467 76.93276-38.35299 143.0412-109.56503 146.59153-184.36467-.35673-24.14996-.42328-30.38525-4.14427-45.84845s-15.5143-38.67225-27.56423-46.59863c-24.09983-15.85273-74.21643-16.23792-114.88303-16.3713z" fill="#775527"/>
<path d="m330.7419,128.61648c-15.44433.79033-24.27937,3.93796-34.81549,9.62008-10.00594,5.39618-19.20421,14.15297-24.41665,24.87474-6.75713,13.89902-6.47394,30.87705-6.68823,46.58861-.2355,17.26522-.28493,35.5595 5.95527,51.44447 4.60862,11.7316 12.41897,22.63906 22.21778,29.68479 9.6355,6.92827 18.80742,10.1358 31.05909,13.69714 9.82034,2.85459 24.94093,3.95591 34.08252-.87038 4.92211-2.59862 12.59772-19.56081 12.59772-19.56081s7.6756,16.96219 12.5977,19.56081c9.14159,4.82629 24.26219,3.72497 34.08254.87038 12.25166-3.56134 21.42359-6.76887 31.05907-13.69714 9.79881-7.04573 17.60916-17.95319 22.21778-29.68479 6.24022-15.88497 6.19079-34.17925 5.95528-51.44447-.2143-15.71156.0689-32.68959-6.68824-46.58861-5.21244-10.72177-14.41071-19.47856-24.41665-24.87474-10.53612-5.68212-19.37114-8.82975-34.81548-9.62008-9.27996-.47487-22.90833-3.01285-29.59317,3.98546-5.90396,6.1808-10.39883,34.58643-10.39883,34.58643s-4.49489-28.40563-10.39885-34.58643c-8.91485-6.96919-19.5646-4.52832-29.59316-3.98546z" fill="#3e2200"/>
<path d="m370.73391,190.72114c-25.54378,4.72875 0,76.74512 0,76.74512s25.54377-72.01637 0-76.74512z" fill="#1d1d1d" stroke="#000" stroke-linecap="round" stroke-linejoin="round" stroke-width=".87955"/>
<g transform="matrix(1.46592,0,0,1.46592,4.01311,-490.5495)">
<path d="m312.66253,469.54478c0,5.43945-2.62877,9.85887-6.8789,13.4235s-16.18257,5.76941-21.15283,2.73895c-11.07477-6.75249-21.46574-7.30386-21.46574-18.18275s18.0912-31.8198 31.06219-31.8198c6.48549,0 6.80116,7.7606 11.0513,11.32523s7.38398,17.07542 7.38398,22.51487z" fill="#5f3f12"/>
<path d="m330.82496,248.78583c0,8.36838-6.78391,15.15229-15.15229,15.15229s-15.15229-6.78391-15.15229-15.15229 6.78391-15.15229 15.15229-15.15229 15.15229,6.78391 15.15229,15.15229z" transform="matrix(.96604,0,0,.96604,-24.23932,225.03817)"/>
<path d="m330.82496,248.78583c0,8.36838-6.78391,15.15229-15.15229,15.15229s-15.15229-6.78391-15.15229-15.15229 6.78391-15.15229 15.15229-15.15229 15.15229,6.78391 15.15229,15.15229z" stroke="#f3ec46" stroke-width="7.4" transform="matrix(.67851,0,0,.67851,66.52879,296.57373)"/>
<g transform="matrix(-1,0,0,1,500.33012,0)">
<path d="m312.66253,469.54478c0,5.43945-2.62877,9.85887-6.8789,13.4235s-16.18257,5.76941-21.15283,2.73895c-11.07477-6.75249-21.46574-7.30386-21.46574-18.18275s18.0912-31.8198 31.06219-31.8198c6.48549,0 6.80116,7.7606 11.0513,11.32523s7.38398,17.07542 7.38398,22.51487z" fill="#5f3f12"/>
<path d="m330.82496,248.78583c0,8.36838-6.78391,15.15229-15.15229,15.15229s-15.15229-6.78391-15.15229-15.15229 6.78391-15.15229 15.15229-15.15229 15.15229,6.78391 15.15229,15.15229z" transform="matrix(.96604,0,0,.96604,-24.23932,225.03817)"/>
<path d="m330.82496,248.78583c0,8.36838-6.78391,15.15229-15.15229,15.15229s-15.15229-6.78391-15.15229-15.15229 6.78391-15.15229 15.15229-15.15229 15.15229,6.78391 15.15229,15.15229z" stroke="#f3ec46" stroke-width="7.4" transform="matrix(.67851,0,0,.67851,66.52879,296.57373)"/>
</g>
</g>
<g transform="matrix(1.46592,0,0,1.46592,32.23974,-490.5495)">
<g transform="matrix(.88353,0,0,.88353,5.58044,84.9851)">
<path d="m203.62629,737.23749c0,14.82686-10.05487,26.84641-10.05487,26.84641s-10.05488-12.01955-10.05488-26.84641 1.60049-26.84641 10.05488-26.84641 10.05487,12.01955 10.05487,26.84641z" fill="#c08d00" stroke="#453209" stroke-width=".28126"/>
<path d="m198.38385,757.55852c-1.54329,6.90725-4.82651,13.03826-4.82651,13.03826s-3.50369-6.71818-4.82651-13.03826c-1.45182-6.93645.76826-13.03827 4.82651-13.03827s6.36859,6.13644 4.82651,13.03827z" fill="#161107"/>
<path d="m185.97405,719.29075c3.99786-4.20897 11.40317-4.47683 15.40103-.26786 1.03944,1.09433 1.05163,4.46429 1.05163,4.46429s-6.11359-1.6243-9.07439-1.60714c-2.79419.0162-8.73517,1.96429-8.73517,1.96429s.31747-3.45925 1.3569-4.55358z" fill="#b68500" stroke="#b37b00" stroke-width=".38984"/>
<path d="m185.35547,728.71932c4.32258-4.20897 12.3294-4.47683 16.65198-.26786 1.12386,1.09433 1.13704,4.46429 1.13704,4.46429s-6.61015-1.6243-9.81145-1.60714c-3.02114.0162-9.44468,1.96429-9.44468,1.96429s.34325-3.45925 1.46711-4.55358z" fill="#b68500" stroke="#b37b00" stroke-width=".40536"/>
<path d="m184.94425,740.74676c4.1857-4.0256 13.36756-4.54965 17.55326-.52405 1.08828,1.04665-.14896,4.26979-.14896,4.26979s-5.77584-1.55353-8.87577-1.53712c-2.92548.0155-8.60991,1.61085-8.60991,1.61085s-1.0069-2.77282.0814-3.81947z" fill="#b68500" stroke="#b37b00" stroke-width=".39011"/>
</g>
<path d="m203.62629,737.23749c0,14.82686-10.05487,26.84641-10.05487,26.84641s-10.05488-12.01955-10.05488-26.84641 1.60049-26.84641 10.05488-26.84641 10.05487,12.01955 10.05487,26.84641z" fill="#c08d00" stroke="#453209" stroke-width=".28126"/>
<path d="m198.38385,757.55852c-1.54329,6.90725-4.82651,13.03826-4.82651,13.03826s-3.50369-6.71818-4.82651-13.03826c-1.45182-6.93645.76826-13.03827 4.82651-13.03827s6.36859,6.13644 4.82651,13.03827z" fill="#161107"/>
<path d="m185.97405,719.29075c3.99786-4.20897 11.40317-4.47683 15.40103-.26786 1.03944,1.09433 1.05163,4.46429 1.05163,4.46429s-6.11359-1.6243-9.07439-1.60714c-2.79419.0162-8.73517,1.96429-8.73517,1.96429s.31747-3.45925 1.3569-4.55358z" fill="#b68500" stroke="#b37b00" stroke-width=".38984"/>
<path d="m185.35547,728.71932c4.32258-4.20897 12.3294-4.47683 16.65198-.26786 1.12386,1.09433 1.13704,4.46429 1.13704,4.46429s-6.61015-1.6243-9.81145-1.60714c-3.02114.0162-9.44468,1.96429-9.44468,1.96429s.34325-3.45925 1.46711-4.55358z" fill="#b68500" stroke="#b37b00" stroke-width=".40536"/>
<path d="m184.94425,740.74676c4.1857-4.0256 13.36756-4.54965 17.55326-.52405 1.08828,1.04665-.14896,4.26979-.14896,4.26979s-5.77584-1.55353-8.87577-1.53712c-2.92548.0155-8.60991,1.61085-8.60991,1.61085s-1.0069-2.77282.0814-3.81947z" fill="#b68500" stroke="#b37b00" stroke-width=".39011"/>
</g>
<g transform="matrix(-1.46592,0,0,1.46592,709.22807,-503.74273)">
<g transform="matrix(.88353,0,0,.88353,5.58044,84.9851)">
<path d="m203.62629,737.23749c0,14.82686-10.05487,26.84641-10.05487,26.84641s-10.05488-12.01955-10.05488-26.84641 1.60049-26.84641 10.05488-26.84641 10.05487,12.01955 10.05487,26.84641z" fill="#c08d00" stroke="#453209" stroke-width=".28126"/>
<path d="m198.38385,757.55852c-1.54329,6.90725-4.82651,13.03826-4.82651,13.03826s-3.50369-6.71818-4.82651-13.03826c-1.45182-6.93645.76826-13.03827 4.82651-13.03827s6.36859,6.13644 4.82651,13.03827z" fill="#161107"/>
<path d="m185.97405,719.29075c3.99786-4.20897 11.40317-4.47683 15.40103-.26786 1.03944,1.09433 1.05163,4.46429 1.05163,4.46429s-6.11359-1.6243-9.07439-1.60714c-2.79419.0162-8.73517,1.96429-8.73517,1.96429s.31747-3.45925 1.3569-4.55358z" fill="#b68500" stroke="#b37b00" stroke-width=".38984"/>
<path d="m185.35547,728.71932c4.32258-4.20897 12.3294-4.47683 16.65198-.26786 1.12386,1.09433 1.13704,4.46429 1.13704,4.46429s-6.61015-1.6243-9.81145-1.60714c-3.02114.0162-9.44468,1.96429-9.44468,1.96429s.34325-3.45925 1.46711-4.55358z" fill="#b68500" stroke="#b37b00" stroke-width=".40536"/>
<path d="m184.94425,740.74676c4.1857-4.0256 13.36756-4.54965 17.55326-.52405 1.08828,1.04665-.14896,4.26979-.14896,4.26979s-5.77584-1.55353-8.87577-1.53712c-2.92548.0155-8.60991,1.61085-8.60991,1.61085s-1.0069-2.77282.0814-3.81947z" fill="#b68500" stroke="#b37b00" stroke-width=".39011"/>
</g>
<path d="m203.62629,737.23749c0,14.82686-10.05487,26.84641-10.05487,26.84641s-10.05488-12.01955-10.05488-26.84641 1.60049-26.84641 10.05488-26.84641 10.05487,12.01955 10.05487,26.84641z" fill="#c08d00" stroke="#453209" stroke-width=".28126"/>
<path d="m198.38385,757.55852c-1.54329,6.90725-4.82651,13.03826-4.82651,13.03826s-3.50369-6.71818-4.82651-13.03826c-1.45182-6.93645.76826-13.03827 4.82651-13.03827s6.36859,6.13644 4.82651,13.03827z" fill="#161107"/>
<path d="m185.97405,719.29075c3.99786-4.20897 11.40317-4.47683 15.40103-.26786 1.03944,1.09433 1.05163,4.46429 1.05163,4.46429s-6.11359-1.6243-9.07439-1.60714c-2.79419.0162-8.73517,1.96429-8.73517,1.96429s.31747-3.45925 1.3569-4.55358z" fill="#b68500" stroke="#b37b00" stroke-width=".38984"/>
<path d="m185.35547,728.71932c4.32258-4.20897 12.3294-4.47683 16.65198-.26786 1.12386,1.09433 1.13704,4.46429 1.13704,4.46429s-6.61015-1.6243-9.81145-1.60714c-3.02114.0162-9.44468,1.96429-9.44468,1.96429s.34325-3.45925 1.46711-4.55358z" fill="#b68500" stroke="#b37b00" stroke-width=".40536"/>
<path d="m184.94425,740.74676c4.1857-4.0256 13.36756-4.54965 17.55326-.52405 1.08828,1.04665-.14896,4.26979-.14896,4.26979s-5.77584-1.55353-8.87577-1.53712c-2.92548.0155-8.60991,1.61085-8.60991,1.61085s-1.0069-2.77282.0814-3.81947z" fill="#b68500" stroke="#b37b00" stroke-width=".39011"/>
</g>
<g transform="matrix(1.46592,0,0,1.46592,4.25508,-490.4029)">
<path d="m381.64722,490.74349c-3.98937,41.3104 6.48395,39.31235 3.29314,74.92517-3.44588,38.45959-22.30085,125.99896-22.30085,125.99896s8.7953-3.86605 17.04376-15.95798 15.95008-32.40973 19.47701-39.59897c8.97111-18.28654 21.95327-83.47219 15.41201-112.95874s-32.92507-32.40844-32.92507-32.40844z" fill="#805d2e"/>
</g>
<g transform="matrix(1.46592,0,0,1.46592,4.25508,-490.28773)">
<path d="m382.67857,490.57647c-6.06092,45.96194-.60226,67.80712-5.57923,107.4439-5.37482,42.80521-11.19344,91.36125-11.19344,91.36125s18.38275-24.1899 26.15048-39.86859c9.879-19.94015 24.60152-69.5301 19.55076-102.86514s-28.92857-56.07142-28.92857-56.07142z" fill="#987c56"/>
<g transform="translate(0,.1)">
<path d="m381.64722,490.74349c-3.98937,41.3104 6.48395,39.31235 3.29314,74.92517-3.44588,38.45959-22.30085,125.99896-22.30085,125.99896s8.7953-3.86605 17.04376-15.95798 15.95008-32.40973 19.47701-39.59897c8.97111-18.28654 21.95327-83.47219 15.41201-112.95874s-32.92507-32.40844-32.92507-32.40844z" fill="#805d2e"/>
</g>
</g>
<g transform="matrix(-1.46592,0,0,1.46592,737.51703,-490.28773)">
<path d="m382.67857,490.57647c-6.06092,45.96194-.60226,67.80712-5.57923,107.4439-5.37482,42.80521-11.19344,91.36125-11.19344,91.36125s18.38275-24.1899 26.15048-39.86859c9.879-19.94015 24.60152-69.5301 19.55076-102.86514s-28.92857-56.07142-28.92857-56.07142z" fill="#987c56"/>
<g transform="translate(0,.1)">
<path d="m381.64722,490.74349c-3.98937,41.3104 6.48395,39.31235 3.29314,74.92517-3.44588,38.45959-22.30085,125.99896-22.30085,125.99896s8.7953-3.86605 17.04376-15.95798 15.95008-32.40973 19.47701-39.59897c8.97111-18.28654 21.95327-83.47219 15.41201-112.95874s-32.92507-32.40844-32.92507-32.40844z" fill="#805d2e"/>
</g>
</g>
</svg>
