<?xml version="1.0" encoding="UTF-8" standalone="no"?>
<!-- Created with Inkscape (http://www.inkscape.org/) -->

<svg
   xmlns:dc="http://purl.org/dc/elements/1.1/"
   xmlns:cc="http://creativecommons.org/ns#"
   xmlns:rdf="http://www.w3.org/1999/02/22-rdf-syntax-ns#"
   xmlns:svg="http://www.w3.org/2000/svg"
   xmlns="http://www.w3.org/2000/svg"
   xmlns:xlink="http://www.w3.org/1999/xlink"
   xmlns:sodipodi="http://sodipodi.sourceforge.net/DTD/sodipodi-0.dtd"
   xmlns:inkscape="http://www.inkscape.org/namespaces/inkscape"
   id="svg2"
   version="1.1"
   inkscape:version="0.48.4 r9939"
   width="1315.6309"
   height="2048"
   sodipodi:docname="Comunicação Originuum - Desenho Coruja - 1.0.0 [comunicacao.originuum.com.br].svg"
   inkscape:export-filename="./Comunicação Originuum - Desenho Coruja - 1.0.0 - 1316x2048 [comunicacao.originuum.com.br].png"
   inkscape:export-xdpi="90"
   inkscape:export-ydpi="90">
  <title
     id="title3013">Desenho Coruja</title>
  <sodipodi:namedview
     pagecolor="#ffffff"
     bordercolor="#666666"
     borderopacity="1"
     objecttolerance="10"
     gridtolerance="10"
     guidetolerance="10"
     inkscape:pageopacity="0"
     inkscape:pageshadow="2"
     inkscape:window-width="1323"
     inkscape:window-height="744"
     id="namedview4"
     showgrid="false"
     inkscape:zoom="0.1767767"
     inkscape:cx="-1546.1779"
     inkscape:cy="1383.6023"
     inkscape:window-x="43"
     inkscape:window-y="24"
     inkscape:window-maximized="1"
     inkscape:current-layer="layer1"
     inkscape:snap-bbox="true"
     inkscape:bbox-nodes="false"
     inkscape:bbox-paths="true"
     inkscape:snap-bbox-edge-midpoints="true"
     inkscape:snap-bbox-midpoints="true"
     inkscape:object-paths="false"
     inkscape:snap-intersection-paths="true"
     inkscape:object-nodes="false"
     inkscape:snap-smooth-nodes="false"
     inkscape:snap-midpoints="false"
     inkscape:snap-object-midpoints="true"
     inkscape:snap-center="true"
     showguides="true"
     inkscape:guide-bbox="true"
     inkscape:snap-grids="true"
     inkscape:snap-to-guides="true"
     inkscape:snap-nodes="true"
     inkscape:snap-global="true"
     fit-margin-top="0"
     fit-margin-left="0"
     fit-margin-right="0"
     fit-margin-bottom="0"
     borderlayer="false">
    <sodipodi:guide
       id="guide3010"
       position="0.040038795,0.03086942"
       orientation="2061.625,0" />
    <sodipodi:guide
       id="guide3012"
       position="662.23384,0.03086942"
       orientation="2061.625,0" />
    <sodipodi:guide
       id="guide3014"
       position="1324.4276,0.03086942"
       orientation="2061.625,0" />
    <sodipodi:guide
       id="guide3016"
       position="0.040038795,0.03086942"
       orientation="0,1324.3876" />
    <sodipodi:guide
       id="guide3018"
       position="0.040038795,1030.8433"
       orientation="0,1324.3876" />
    <sodipodi:guide
       id="guide3020"
       position="0.040038795,2061.6558"
       orientation="0,1324.3876" />
  </sodipodi:namedview>
  <metadata
     id="metadata8">
    <rdf:RDF>
      <cc:Work
         rdf:about="">
        <dc:format>image/svg+xml</dc:format>
        <dc:type
           rdf:resource="http://purl.org/dc/dcmitype/StillImage" />
        <dc:title>Desenho Coruja</dc:title>
        <cc:license
           rdf:resource="http://creativecommons.org/licenses/publicdomain/" />
        <dc:creator>
          <cc:Agent>
            <dc:title>Maicon Fonseca Zanco, Comunicacao Originuum</dc:title>
          </cc:Agent>
        </dc:creator>
        <dc:rights>
          <cc:Agent>
            <dc:title>Comunicacao Originuum</dc:title>
          </cc:Agent>
        </dc:rights>
        <dc:publisher>
          <cc:Agent>
            <dc:title>Comunicacao Originuum</dc:title>
          </cc:Agent>
        </dc:publisher>
        <dc:subject>
          <rdf:Bag>
            <rdf:li>desenho</rdf:li>
            <rdf:li>coruja</rdf:li>
            <rdf:li>vetor</rdf:li>
          </rdf:Bag>
        </dc:subject>
        <dc:contributor>
          <cc:Agent>
            <dc:title>Maicon Fonseca Zanco, Comunicacao Originuum</dc:title>
          </cc:Agent>
        </dc:contributor>
        <dc:date>2015-04-30</dc:date>
      </cc:Work>
      <cc:License
         rdf:about="http://creativecommons.org/licenses/publicdomain/">
        <cc:permits
           rdf:resource="http://creativecommons.org/ns#Reproduction" />
        <cc:permits
           rdf:resource="http://creativecommons.org/ns#Distribution" />
        <cc:permits
           rdf:resource="http://creativecommons.org/ns#DerivativeWorks" />
      </cc:License>
    </rdf:RDF>
  </metadata>
  <defs
     id="defs6" />
  <g
     transform="translate(-0.10383705,-14.187501)"
     inkscape:label="root"
     id="layer1"
     inkscape:groupmode="layer">
    <path
       style="fill:#6c4c28;fill-opacity:1;stroke:#5a4124;stroke-width:14.11615086px;stroke-linecap:butt;stroke-linejoin:miter;stroke-opacity:1"
       d="M 107.07124,723.65304 C -102.24815,1080.4454 51.837214,1404.9732 253.13074,1637.6758 149.53065,1450.0797 73.406947,1187.5838 96.608528,827.44318 c 2.31673,-35.96028 7.225802,-69.08634 12.973752,-100.86058 -0.8638,-0.98165 -1.64697,-1.9368 -2.51104,-2.92956 z m 1102.35166,20.08842 c 1.4812,5.17931 2.6088,10.27254 4.185,15.48481 49.2082,252.08323 21.0083,622.05513 -143.9668,916.53383 257.8205,-332.3918 311.3369,-751.9555 139.7818,-932.01864 z"
       id="path3913"
       inkscape:connector-curvature="0" />
    <g
       id="g3815"
       transform="matrix(0.99337607,0,0,0.99337607,6.8782124e-4,13.659781)">
      <path
         style="fill:#996c38;fill-opacity:1;stroke:none"
         d="m 58.501875,20.272438 c 0,0 603.770215,549.116322 1184.506825,2.053379 -62.6759,262.713853 -97.8653,475.834113 -21.519,728.280533 76.1254,389.97425 -30.9461,1060.53585 -540.66453,1304.18445 0,0 -645.746455,-268.3473 -583.428005,-1235.67068 C 113.81786,564.23408 246.99412,445.16426 58.501875,20.272438 z"
         id="path2989"
         inkscape:connector-curvature="0"
         sodipodi:nodetypes="ccccsc" />
      <path
         style="font-size:medium;font-style:normal;font-variant:normal;font-weight:normal;font-stretch:normal;text-indent:0;text-align:start;text-decoration:none;line-height:normal;letter-spacing:normal;word-spacing:normal;text-transform:none;direction:ltr;block-progression:tb;writing-mode:lr-tb;text-anchor:start;baseline-shift:baseline;color:#000000;fill:#5a4124;fill-opacity:1;fill-rule:nonzero;stroke:none;stroke-width:13.5;marker:none;visibility:visible;display:inline;overflow:visible;enable-background:accumulate;font-family:Sans;-inkscape-font-specification:Sans"
         d="M 1254.8125,1.9375 1238.375,17.40625 C 949.67703,289.36424 656.90887,288.40476 434.96875,220 213.02863,151.59524 63.03125,15.28125 63.03125,15.28125 L 52.34375,23 C 146.25614,234.69363 159.7374,369.08345 148.0625,482.75 136.3876,596.41655 98.93753,690.14345 90.65625,818.6875 59.398285,1303.8819 205.88504,1614.7819 360.5,1803.9688 c 154.61496,189.1868 317.75,257.0625 317.75,257.0624 l 2.78125,1.1563 2.71875,-1.3125 c 256.86716,-122.7841 412.1266,-353.1051 493.5,-601.1875 81.3734,-248.0824 89.1911,-514.08978 50.875,-710.375 l -0.062,-0.34375 -0.125,-0.3125 c -75.8752,-250.88875 -40.992,-462.28293 21.625,-724.75 l 5.25,-21.96875 z m -23.3437,40.03125 c -59.4996,253.21077 -91.1269,463.30083 -16.5313,710.25 37.7413,193.66123 30.018,457.77565 -50.5,703.25005 -80.2644,244.7011 -232.58991,470.6489 -483.78125,591.8437 -14.26859,-6.1941 -164.35582,-74.0471 -309.6875,-251.875 C 218.2901,1608.6199 73.064515,1301.6915 104.125,819.5625 112.26441,693.22051 149.60465,599.93783 161.5,484.125 172.90042,373.13072 160.16438,241.94995 75.84375,43.5625 124.55364,82.899391 254.71054,178.5716 431,232.90625 651.97926,301.01487 944.57141,302.1139 1231.4688,41.96875 z"
         id="path3822"
         inkscape:connector-curvature="0" />
    </g>
    <path
       style="fill:#ffffff;fill-opacity:1;stroke:none"
       d="m 1140.7874,793.96249 c -60.6,76.62202 -157.70321,125.97108 -267.42693,125.97108 -79.62966,0 -152.79875,-25.80651 -210.09131,-69.47242 -57.24675,43.52663 -130.60267,69.47242 -210.09131,69.47242 -101.55068,0 -192.18143,-42.15285 -253.19771,-109.23074 20.31382,659.33217 475.42577,847.47987 475.42577,847.47987 306.73038,-126.5576 459.45259,-583.6468 465.38149,-864.22021 z"
       id="path3889"
       inkscape:connector-curvature="0" />
    <g
       transform="matrix(13.392275,0,0,13.392275,-3012.2366,-1612.8805)"
       id="g3803">
      <path
         inkscape:connector-curvature="0"
         id="path3788"
         d="m 258.7745,142.60814 c -13.73006,0 -24.84631,10.40929 -24.84631,23.26619 0,12.85688 11.11625,23.26617 24.84631,23.26617 5.93541,0 11.4114,-1.94964 15.68601,-5.19977 4.27803,3.26053 9.74007,5.19977 15.68601,5.19977 13.73006,0 24.84631,-10.40929 24.84631,-23.26617 0,-12.8569 -11.11625,-23.26619 -24.84631,-23.26619 -5.94594,0 -11.40798,1.93924 -15.68601,5.19978 -4.27461,-3.25014 -9.7506,-5.19978 -15.68601,-5.19978 z"
         style="color:#000000;fill:#5a4124;fill-opacity:1;fill-rule:evenodd;stroke:none;stroke-width:0.37240794;marker:none;visibility:visible;display:inline;overflow:visible;enable-background:accumulate" />
      <path
         style="color:#000000;fill:#ffffff;fill-opacity:1;fill-rule:evenodd;stroke:none;stroke-width:0.37240794;marker:none;visibility:visible;display:inline;overflow:visible;enable-background:accumulate"
         d="m 260.40177,143.76249 c -12.30572,0 -22.26876,9.96305 -22.26876,22.26876 0,12.30571 9.96304,22.26876 22.26876,22.26876 5.31966,0 10.22758,-1.86607 14.05874,-4.97687 3.83422,3.12076 8.72963,4.97687 14.05874,4.97687 12.30572,0 22.26876,-9.96305 22.26876,-22.26876 0,-12.30571 -9.96304,-22.26876 -22.26876,-22.26876 -5.32911,0 -10.22452,1.85611 -14.05874,4.97687 -3.83116,-3.1108 -8.73908,-4.97687 -14.05874,-4.97687 z"
         id="path3759"
         inkscape:connector-curvature="0" />
      <g
         id="g3796">
        <path
           transform="matrix(1.2040816,0,0,1.2040816,-58.688622,-38.778513)"
           d="m 274.52489,170.44067 c 0,6.00581 -4.86866,10.87447 -10.87447,10.87447 -6.0058,0 -10.87447,-4.86866 -10.87447,-10.87447 0,-6.0058 4.86867,-10.87447 10.87447,-10.87447 6.00581,0 10.87447,4.86867 10.87447,10.87447 z"
           sodipodi:ry="10.874471"
           sodipodi:rx="10.874471"
           sodipodi:cy="170.44067"
           sodipodi:cx="263.65042"
           id="path3790"
           style="color:#000000;fill:#e79c2d;fill-opacity:1;fill-rule:evenodd;stroke:none;stroke-width:0.36457521;marker:none;visibility:visible;display:inline;overflow:visible;enable-background:accumulate"
           sodipodi:type="arc" />
        <path
           sodipodi:type="arc"
           style="color:#000000;fill:#000000;fill-opacity:1;fill-rule:evenodd;stroke:none;stroke-width:0.36457521;marker:none;visibility:visible;display:inline;overflow:visible;enable-background:accumulate"
           id="path3792"
           sodipodi:cx="263.65042"
           sodipodi:cy="170.44067"
           sodipodi:rx="10.874471"
           sodipodi:ry="10.874471"
           d="m 274.52489,170.44067 c 0,6.00581 -4.86866,10.87447 -10.87447,10.87447 -6.0058,0 -10.87447,-4.86866 -10.87447,-10.87447 0,-6.0058 4.86867,-10.87447 10.87447,-10.87447 6.00581,0 10.87447,4.86867 10.87447,10.87447 z"
           transform="matrix(0.75510202,0,0,0.75510202,59.685033,37.745869)" />
        <path
           transform="matrix(0.31632652,0,0,0.31632652,178.68343,109.35472)"
           d="m 274.52489,170.44067 c 0,6.00581 -4.86866,10.87447 -10.87447,10.87447 -6.0058,0 -10.87447,-4.86866 -10.87447,-10.87447 0,-6.0058 4.86867,-10.87447 10.87447,-10.87447 6.00581,0 10.87447,4.86867 10.87447,10.87447 z"
           sodipodi:ry="10.874471"
           sodipodi:rx="10.874471"
           sodipodi:cy="170.44067"
           sodipodi:cx="263.65042"
           id="path3794"
           style="color:#000000;fill:#ffffff;fill-opacity:1;fill-rule:evenodd;stroke:none;stroke-width:0.36457521;marker:none;visibility:visible;display:inline;overflow:visible;enable-background:accumulate"
           sodipodi:type="arc" />
      </g>
      <use
         x="0"
         y="0"
         xlink:href="#g3796"
         id="use3801"
         transform="translate(32.169988,0)"
         width="371"
         height="419" />
    </g>
    <g
       id="g3832"
       style="stroke:none"
       transform="matrix(0.99337607,0,0,0.99337607,6.8782124e-4,13.659781)">
      <path
         sodipodi:nodetypes="cccc"
         inkscape:connector-curvature="0"
         id="path3812"
         d="m 58.501875,20.272438 c 0,0 603.770215,549.116322 1184.506825,2.053379 C 1206.4552,236.32642 731.16362,383.51948 670.7605,541.87327 605.9551,375.90442 113.70973,249.09833 58.501875,20.272438 z"
         style="fill:#825e34;fill-opacity:1;stroke:none" />
      <path
         inkscape:connector-curvature="0"
         id="path3837"
         d="M 46.8125,0.53123868 51.937499,21.84374 c 28.60863,118.57724 167.445771,207.46921 305.687491,288.625 69.12087,40.57789 138.35629,79.11094 194.0625,117.62501 55.70622,38.51407 97.52574,77.14885 112.78126,116.21874 l 6.37499,16.28125 6.21876,-16.3125 c 14.17557,-37.16293 54.19652,-75.74484 107.43749,-114.875 53.24097,-39.13015 119.37505,-79.02066 184.93751,-120.75 65.5624,-41.72934 130.5742,-85.27207 181.7813,-132.15625 51.207,-46.88418 88.9125,-97.267673 98.4374,-153.03125 L 1253.0312,3.6249888 1238.375,17.40624 C 949.67475,289.36638 656.91103,288.40543 434.96875,220 213.02646,151.59456 63.031249,15.28124 63.031249,15.28124 L 46.8125,0.53123868 z M 71.687499,40.15624 C 116.3596,76.801626 248.94145,176.76223 430.99999,232.87499 651.91507,300.96384 944.40107,302.1108 1231.2188,42.187489 c -13.6816,43.48825 -45.9087,84.804341 -89.0938,124.343761 -50.0784,45.85074 -114.5262,89.13676 -179.90626,130.74999 -65.38002,41.61323 -131.68062,81.58819 -185.68749,121.28125 -48.0863,35.34166 -86.64844,70.29105 -105.84376,107.1875 -20.25225,-38.5009 -60.73907,-73.76302 -111.34374,-108.75 C 502.80219,377.90837 433.37963,339.31671 364.4375,298.84374 235.61274,223.21625 109.41151,140.59928 71.687499,40.15624 z"
         style="font-size:medium;font-style:normal;font-variant:normal;font-weight:normal;font-stretch:normal;text-indent:0;text-align:start;text-decoration:none;line-height:normal;letter-spacing:normal;word-spacing:normal;text-transform:none;direction:ltr;block-progression:tb;writing-mode:lr-tb;text-anchor:start;baseline-shift:baseline;color:#000000;fill:#5a4124;fill-opacity:1;stroke:none;stroke-width:13.48157597px;marker:none;visibility:visible;display:inline;overflow:visible;enable-background:accumulate;font-family:Sans;-inkscape-font-specification:Sans" />
    </g>
    <path
       sodipodi:nodetypes="zczsz"
       inkscape:connector-curvature="0"
       id="path3814"
       d="m 598.97989,859.34156 c -0.32946,33.94394 42.3524,132.17372 66.78244,147.41034 28.51806,-16.81276 64.64547,-113.08019 64.64547,-147.41034 0,-34.33016 -39.94462,-67.77669 -64.64547,-67.77669 -32.71156,0 -66.45326,33.83276 -66.78244,67.77669 z"
       style="fill:#eda91a;fill-opacity:1;stroke:none" />
    <g
       id="g3847"
       transform="matrix(13.392275,0,0,13.392275,-3107.9942,-1697.203)">
      <path
         sodipodi:nodetypes="sssssss"
         inkscape:connector-curvature="0"
         id="rect3820"
         d="m 259.64374,261.2955 c 1.61184,0 3.37214,1.36545 2.90945,2.90945 -1.11896,3.73395 -0.2391,6.2686 0,9.18771 0.13158,1.60645 -1.29761,2.90944 -2.90945,2.90944 -1.61183,0 -2.68762,-1.31295 -2.90944,-2.90944 -0.75204,-5.4127 -0.40935,-7.40436 0,-9.18771 0.36061,-1.57098 1.29761,-2.90945 2.90944,-2.90945 z"
         style="color:#000000;fill:#eda91a;fill-opacity:1;fill-rule:evenodd;stroke:#5a4124;stroke-width:0.565;stroke-miterlimit:4;stroke-opacity:1;marker:none;visibility:visible;display:inline;overflow:visible;enable-background:accumulate" />
      <path
         sodipodi:nodetypes="sssssss"
         inkscape:connector-curvature="0"
         id="rect3826"
         d="m 270.71601,261.24475 c 1.61183,0 2.55034,1.33812 2.90944,2.90944 0.97116,4.24954 0.27527,6.46158 0,9.18772 -0.16193,1.60368 -1.29761,2.90944 -2.90944,2.90944 -1.61183,0 -3.20437,-1.32482 -2.90945,-2.90944 0.55411,-2.97733 1.30234,-5.92479 0,-9.18772 -0.5975,-1.49699 1.29762,-2.90944 2.90945,-2.90944 z"
         style="color:#000000;fill:#eda91a;fill-opacity:1;fill-rule:evenodd;stroke:#5a4124;stroke-width:0.565;stroke-miterlimit:4;stroke-opacity:1;marker:none;visibility:visible;display:inline;overflow:visible;enable-background:accumulate" />
      <path
         sodipodi:nodetypes="sssssss"
         inkscape:connector-curvature="0"
         id="rect3822"
         d="m 265.22185,261.2955 c 1.61183,0 2.5619,1.33553 2.90945,2.90945 0.92625,4.19465 0.3468,6.549 0,9.18771 -0.21003,1.59809 -1.29762,2.90944 -2.90945,2.90944 -1.61183,0 -2.55428,-1.33723 -2.90944,-2.90944 -0.72147,-3.19375 -0.90178,-6.2891 0,-9.18771 0.47882,-1.53908 1.29761,-2.90945 2.90944,-2.90945 z"
         style="color:#000000;fill:#eda91a;fill-opacity:1;fill-rule:evenodd;stroke:#5a4124;stroke-width:0.565;stroke-miterlimit:4;stroke-opacity:1;marker:none;visibility:visible;display:inline;overflow:visible;enable-background:accumulate" />
    </g>
    <g
       transform="matrix(13.392275,0,0,13.392275,-2653.4784,-1692.9996)"
       id="g3852">
      <path
         style="color:#000000;fill:#eda91a;fill-opacity:1;fill-rule:evenodd;stroke:#5a4124;stroke-width:0.565;stroke-miterlimit:4;stroke-opacity:1;marker:none;visibility:visible;display:inline;overflow:visible;enable-background:accumulate"
         d="m 259.64374,261.2955 c 1.61184,0 3.37214,1.36545 2.90945,2.90945 -1.11896,3.73395 -0.2391,6.2686 0,9.18771 0.13158,1.60645 -1.29761,2.90944 -2.90945,2.90944 -1.61183,0 -2.68762,-1.31295 -2.90944,-2.90944 -0.75204,-5.4127 -0.40935,-7.40436 0,-9.18771 0.36061,-1.57098 1.29761,-2.90945 2.90944,-2.90945 z"
         id="path3854"
         inkscape:connector-curvature="0"
         sodipodi:nodetypes="sssssss" />
      <path
         style="color:#000000;fill:#eda91a;fill-opacity:1;fill-rule:evenodd;stroke:#5a4124;stroke-width:0.565;stroke-miterlimit:4;stroke-opacity:1;marker:none;visibility:visible;display:inline;overflow:visible;enable-background:accumulate"
         d="m 270.71601,261.24475 c 1.61183,0 2.55034,1.33812 2.90944,2.90944 0.97116,4.24954 0.27527,6.46158 0,9.18772 -0.16193,1.60368 -1.29761,2.90944 -2.90944,2.90944 -1.61183,0 -3.20437,-1.32482 -2.90945,-2.90944 0.55411,-2.97733 1.30234,-5.92479 0,-9.18772 -0.5975,-1.49699 1.29762,-2.90944 2.90945,-2.90944 z"
         id="path3856"
         inkscape:connector-curvature="0"
         sodipodi:nodetypes="sssssss" />
      <path
         style="color:#000000;fill:#eda91a;fill-opacity:1;fill-rule:evenodd;stroke:#5a4124;stroke-width:0.565;stroke-miterlimit:4;stroke-opacity:1;marker:none;visibility:visible;display:inline;overflow:visible;enable-background:accumulate"
         d="m 265.22185,261.2955 c 1.61183,0 2.5619,1.33553 2.90945,2.90945 0.92625,4.19465 0.3468,6.549 0,9.18771 -0.21003,1.59809 -1.29762,2.90944 -2.90945,2.90944 -1.61183,0 -2.55428,-1.33723 -2.90944,-2.90944 -0.72147,-3.19375 -0.90178,-6.2891 0,-9.18771 0.47882,-1.53908 1.29761,-2.90945 2.90944,-2.90945 z"
         id="path3858"
         inkscape:connector-curvature="0"
         sodipodi:nodetypes="sssssss" />
    </g>
  </g>
</svg>
